{"glyphs":{"0":{"ha":825,"x_min":0,"x_max":0,"o":"m 46 469 b 413 953 46 808 221 953 b 779 469 604 953 779 807 b 413 -12 779 131 604 -12 b 46 469 221 -12 46 131 m 314 469 b 413 188 314 343 314 188 b 511 469 511 188 511 343 b 413 754 511 576 511 754 b 314 469 314 754 314 576 "},"1":{"ha":825,"x_min":0,"x_max":0,"o":"m 283 0 l 283 940 l 540 940 l 540 0 "},"2":{"ha":825,"x_min":0,"x_max":0,"o":"m 771 0 l 57 0 l 57 18 b 275 261 125 83 204 178 b 450 596 358 358 450 467 b 317 742 450 685 393 742 b 88 622 224 742 146 683 l 88 844 b 392 953 149 883 244 953 b 700 663 565 953 700 844 b 592 376 700 529 624 425 b 467 211 554 321 511 264 l 771 211 "},"3":{"ha":825,"x_min":0,"x_max":0,"o":"m 100 267 b 315 174 146 228 228 174 b 450 283 406 174 450 232 b 293 408 450 353 392 407 l 263 408 l 263 560 l 299 560 b 435 669 403 560 435 632 b 317 778 435 724 389 778 b 125 713 250 778 179 749 l 125 893 b 382 953 189 919 272 953 b 697 701 613 953 697 793 b 569 492 697 615 635 528 b 713 261 621 464 713 407 b 401 -12 713 54 524 -12 b 100 56 301 -12 174 19 "},"4":{"ha":825,"x_min":0,"x_max":0,"o":"m 414 0 l 414 203 l 32 203 l 32 382 l 463 940 l 664 940 l 664 364 l 775 364 l 775 203 l 664 203 l 664 0 m 414 364 l 414 665 l 181 364 "},"5":{"ha":825,"x_min":0,"x_max":0,"o":"m 683 742 l 347 742 l 347 581 b 407 585 364 582 383 585 b 722 294 603 585 722 447 b 388 -12 722 136 614 -12 b 75 78 276 -12 167 15 l 75 281 b 335 182 122 246 247 182 b 460 293 439 182 460 257 b 281 419 460 350 424 419 b 139 392 207 419 163 401 l 139 940 l 683 940 "},"6":{"ha":825,"x_min":0,"x_max":0,"o":"m 653 878 b 414 624 561 800 474 714 b 476 631 429 628 450 631 b 781 325 640 631 781 511 b 418 -12 781 151 639 -12 b 46 360 171 -12 46 171 b 421 954 46 576 196 794 m 536 329 b 415 456 536 422 471 456 b 290 329 318 456 290 374 b 411 199 290 257 340 199 b 536 329 504 199 536 281 "},"7":{"ha":825,"x_min":0,"x_max":0,"o":"m 156 57 l 443 732 l 63 732 l 63 940 l 775 940 l 775 913 l 374 -12 "},"8":{"ha":825,"x_min":0,"x_max":0,"o":"m 197 485 b 78 686 131 526 78 581 b 413 953 78 785 153 953 b 747 686 679 953 747 785 b 628 485 747 581 697 529 b 779 253 718 439 779 349 b 413 -12 779 185 736 -12 b 46 253 82 -12 46 185 b 197 485 46 349 104 439 m 413 543 b 510 668 461 543 510 592 b 415 794 510 711 490 794 b 315 668 338 794 315 718 b 413 543 315 592 364 543 m 414 138 b 538 278 476 138 538 189 b 413 417 538 369 468 417 b 288 278 354 417 288 368 b 414 138 288 179 357 138 "},"9":{"ha":825,"x_min":0,"x_max":0,"o":"m 172 63 b 411 317 264 140 351 226 b 349 310 396 313 375 310 b 44 615 185 310 44 429 b 407 953 44 789 186 953 b 779 581 654 953 779 769 b 404 -14 779 364 629 146 m 289 611 b 410 485 289 518 354 485 b 535 611 507 485 535 567 b 414 742 535 683 485 742 b 289 611 321 742 289 660 "}," ":{"ha":413,"x_min":0,"x_max":0,"o":""},"!":{"ha":419,"x_min":0,"x_max":0,"o":"m 211 310 b 157 343 179 311 168 321 b 64 744 121 417 64 631 b 211 953 64 904 151 953 b 356 744 271 953 356 904 b 265 343 356 631 301 415 b 211 310 254 321 243 311 m 211 279 b 356 133 292 279 356 214 b 211 -12 356 53 292 -12 b 64 133 132 -12 64 53 b 211 279 64 215 132 279 "},"\"":{"ha":694,"x_min":0,"x_max":0,"o":"m 308 940 l 308 776 l 264 576 l 78 576 l 33 776 l 33 940 m 661 940 l 661 776 l 618 576 l 431 576 l 386 776 l 386 940 "},"#":{"ha":926,"x_min":0,"x_max":0,"o":"m 308 963 l 454 963 l 401 710 l 625 710 l 678 963 l 825 963 l 771 710 l 876 710 l 876 563 l 740 563 l 701 378 l 876 378 l 876 231 l 671 231 l 618 -22 l 471 -22 l 525 231 l 301 231 l 249 -22 l 101 -22 l 156 231 l 50 231 l 50 378 l 186 378 l 225 563 l 50 563 l 50 710 l 256 710 m 594 563 l 371 563 l 332 378 l 556 378 "},"$":{"ha":868,"x_min":0,"x_max":0,"o":"m 372 -131 l 372 -12 b 85 90 292 -3 178 32 l 85 283 b 372 150 168 217 265 164 l 372 376 b 72 654 106 443 72 564 b 372 924 72 732 117 893 l 372 983 l 476 983 l 476 924 b 747 821 579 910 653 879 l 747 619 b 476 756 706 654 603 726 l 476 569 b 783 263 628 518 783 442 b 476 -12 783 156 707 11 l 476 -131 m 476 149 b 582 244 514 157 582 174 b 476 350 582 294 550 319 m 372 765 b 272 686 322 763 272 738 b 372 596 272 668 281 618 "},"%":{"ha":1114,"x_min":0,"x_max":0,"o":"m 303 629 b 394 719 353 629 394 669 b 303 811 394 769 353 811 b 213 719 253 811 213 769 b 303 629 213 669 253 629 m 303 953 b 536 721 432 953 536 850 b 303 488 536 592 432 488 b 71 721 174 488 71 592 b 303 953 71 850 174 953 m 149 -25 l 828 953 l 965 953 l 288 -25 m 810 440 b 1043 208 939 440 1043 338 b 810 -25 1043 79 939 -25 b 578 208 681 -25 578 79 b 810 440 578 338 681 440 m 810 117 b 901 207 860 117 901 157 b 810 299 901 257 860 299 b 719 207 760 299 719 257 b 810 117 719 157 760 117 "},"&":{"ha":1143,"x_min":0,"x_max":0,"o":"m 1058 483 b 856 213 1010 390 935 283 l 1058 0 l 739 0 l 679 63 b 393 -12 592 4 479 -12 b 64 229 164 -12 64 110 b 272 494 64 324 107 382 b 168 699 203 567 168 625 b 489 953 168 832 282 953 b 783 721 694 953 783 813 b 601 483 783 621 708 538 l 728 349 b 832 483 775 392 801 429 m 490 599 b 594 715 515 610 594 646 b 497 797 594 750 569 797 b 404 722 426 797 404 751 b 490 599 404 685 450 640 m 390 368 b 300 254 314 319 300 281 b 425 153 300 219 333 153 b 556 194 490 153 536 181 "},"’":{"ha":419,"x_min":0,"x_max":0,"o":"m 49 483 b 156 678 142 518 158 606 b 49 811 82 699 49 746 b 193 953 49 885 110 953 b 368 739 315 953 368 836 b 49 440 368 622 283 472 "},"(":{"ha":535,"x_min":0,"x_max":0,"o":"m 583 953 b 308 313 486 849 308 660 b 583 -326 308 -40 486 -221 l 404 -326 b 51 310 315 -258 51 -40 b 404 953 51 660 311 876 "},")":{"ha":535,"x_min":0,"x_max":0,"o":"m -49 -326 b 226 314 49 -222 226 -33 b -49 953 226 667 49 847 l 131 953 b 483 317 219 885 483 667 b 131 -326 483 -33 224 -250 "},"*":{"ha":782,"x_min":0,"x_max":0,"o":"m 306 850 b 290 907 292 892 290 897 b 394 953 290 947 344 953 b 493 910 413 953 493 953 b 479 856 493 893 482 865 l 418 679 b 449 658 433 672 436 669 l 594 771 b 649 801 629 797 632 801 b 713 731 665 801 686 799 b 729 650 717 719 729 682 b 647 607 729 607 694 607 l 465 607 b 454 571 464 590 463 585 l 600 468 b 654 411 654 431 654 419 b 514 294 654 363 542 294 b 464 367 490 294 478 319 l 411 538 b 392 535 408 538 399 535 b 372 538 385 535 375 538 l 315 365 b 265 297 300 321 293 297 b 125 411 226 297 125 371 b 171 463 125 424 126 432 l 326 571 b 315 607 319 586 317 590 l 129 606 b 53 650 96 606 53 604 b 125 804 53 699 88 804 b 183 775 146 804 153 799 l 335 658 b 363 679 346 671 350 674 "},"+":{"ha":926,"x_min":0,"x_max":0,"o":"m 379 554 l 379 851 l 547 851 l 547 554 l 844 554 l 844 386 l 547 386 l 547 89 l 379 89 l 379 386 l 82 386 l 82 554 "},",":{"ha":419,"x_min":0,"x_max":0,"o":"m 49 -190 b 156 4 142 -156 158 -68 b 49 138 82 25 49 72 b 193 279 49 211 110 279 b 368 65 315 279 368 163 b 49 -233 368 -51 283 -201 "},"-":{"ha":681,"x_min":0,"x_max":0,"o":"m 563 463 l 563 236 l 118 236 l 118 463 "},".":{"ha":390,"x_min":0,"x_max":0,"o":"m 197 279 b 342 133 278 279 342 214 b 197 -12 342 53 278 -12 b 50 133 118 -12 50 53 b 197 279 50 215 118 279 "},"/":{"ha":735,"x_min":0,"x_max":0,"o":"m 714 953 l 203 -12 l 21 -12 l 532 953 "},":":{"ha":390,"x_min":0,"x_max":0,"o":"m 196 703 b 340 557 272 703 340 640 b 194 410 340 475 275 410 b 50 556 115 410 50 475 b 196 703 50 643 122 703 m 197 279 b 342 133 278 279 342 214 b 197 -12 342 53 278 -12 b 50 133 118 -12 50 53 b 197 279 50 215 118 279 "},";":{"ha":419,"x_min":0,"x_max":0,"o":"m 49 -190 b 156 4 142 -156 158 -68 b 49 138 82 25 49 72 b 193 279 49 192 93 279 b 368 65 315 279 368 163 b 49 -233 368 -51 283 -201 m 196 703 b 340 557 272 703 340 640 b 194 410 340 475 275 410 b 50 556 115 410 50 475 b 196 703 50 643 122 703 "},";":{"ha":419,"x_min":0,"x_max":0,"o":"m 49 -233 b 368 65 283 -201 368 -51 b 193 279 368 163 315 279 b 49 138 93 279 49 192 b 156 4 49 72 82 25 b 49 -190 158 -68 142 -156 m 196 703 b 50 556 122 703 50 643 b 194 410 50 475 115 410 b 340 557 275 410 340 475 b 196 703 340 640 272 703 "},"<":{"ha":926,"x_min":0,"x_max":0,"o":"m 82 394 l 82 546 l 844 863 l 844 683 l 317 471 l 844 258 l 844 78 "},"=":{"ha":926,"x_min":0,"x_max":0,"o":"m 844 717 l 844 549 l 82 549 l 82 717 m 844 389 l 844 221 l 82 221 l 82 389 "},">":{"ha":926,"x_min":0,"x_max":0,"o":"m 844 546 l 844 394 l 82 78 l 82 258 l 610 471 l 82 683 l 82 863 "},"?":{"ha":535,"x_min":0,"x_max":0,"o":"m 114 932 b 243 953 147 942 186 953 b 492 756 418 953 492 849 b 365 535 492 672 472 629 b 267 353 313 489 267 400 b 215 307 267 324 249 307 b 165 335 188 307 171 319 b 151 438 156 361 151 417 b 178 564 151 494 174 554 b 226 692 193 600 226 660 b 142 761 226 714 215 761 b 61 743 104 761 83 753 l 50 743 m 219 279 b 364 133 300 279 364 214 b 219 -12 364 53 300 -12 b 72 133 140 -12 72 53 b 219 279 72 215 140 279 "},"@":{"ha":1335,"x_min":0,"x_max":0,"o":"m 1325 -28 b 736 -326 1213 -256 968 -326 b 385 -264 639 -326 513 -314 b 40 281 139 -168 40 67 b 724 953 40 606 250 953 b 1292 443 1088 953 1292 717 b 853 -40 1292 196 1107 -40 b 728 36 765 -40 740 -7 b 546 -40 706 15 650 -40 b 292 246 401 -40 292 67 b 650 682 292 424 415 682 b 828 592 686 682 774 678 l 843 665 l 1019 665 l 919 188 b 910 128 913 154 910 140 b 936 96 910 97 933 96 b 1169 449 1000 96 1169 239 b 721 831 1169 596 1071 831 b 163 274 250 831 163 449 b 725 -204 163 56 294 -204 b 1183 -28 1033 -204 1140 -81 m 472 238 b 583 82 472 121 533 82 b 782 407 732 82 782 314 b 667 563 782 425 779 563 b 472 238 526 563 472 360 "},"A":{"ha":1157,"x_min":0,"x_max":0,"o":"m 375 190 l 297 0 l 7 0 l 422 940 l 736 940 l 1150 0 l 860 0 l 783 190 m 718 354 l 581 697 l 442 354 "},"B":{"ha":1040,"x_min":0,"x_max":0,"o":"m 572 940 b 911 719 814 940 911 842 b 779 513 911 606 833 533 b 976 267 896 467 976 397 b 661 0 976 108 864 0 l 118 0 l 118 940 m 401 782 l 401 557 l 463 557 b 646 669 581 557 646 572 b 461 782 646 767 575 782 m 401 399 l 401 158 l 517 158 b 692 278 633 158 692 196 b 517 399 692 360 633 399 "},"C":{"ha":1032,"x_min":0,"x_max":0,"o":"m 960 71 b 589 -12 836 7 713 -12 b 57 471 257 -12 57 183 b 593 953 57 803 310 953 b 956 882 751 953 881 908 l 956 632 b 657 733 903 664 797 733 b 346 467 496 733 346 632 b 642 207 346 324 468 207 b 960 308 793 207 904 274 "},"D":{"ha":1142,"x_min":0,"x_max":0,"o":"m 508 940 b 921 824 744 940 851 881 b 1085 453 1010 751 1085 625 b 908 79 1085 232 971 128 b 611 0 800 -6 638 0 l 118 0 l 118 940 m 401 194 l 522 194 b 796 465 624 194 796 215 b 522 751 796 715 624 751 l 401 751 "},"E":{"ha":899,"x_min":0,"x_max":0,"o":"m 826 189 l 826 0 l 118 0 l 118 940 l 815 940 l 815 751 l 401 751 l 401 579 l 796 579 l 796 390 l 401 390 l 401 189 "},"F":{"ha":864,"x_min":0,"x_max":0,"o":"m 792 940 l 792 751 l 401 751 l 401 569 l 792 569 l 792 381 l 401 381 l 401 0 l 118 0 l 118 940 "},"G":{"ha":1110,"x_min":0,"x_max":0,"o":"m 986 663 b 674 750 931 694 833 750 b 346 468 407 750 346 567 b 642 204 346 329 444 204 b 757 218 690 204 725 211 l 757 329 l 629 329 l 629 518 l 1004 518 l 1004 67 b 853 18 949 46 910 32 b 589 -12 782 1 690 -12 b 57 472 313 -12 57 133 b 210 833 57 597 100 747 b 604 953 344 939 478 953 b 986 885 793 953 922 906 "},"H":{"ha":1229,"x_min":0,"x_max":0,"o":"m 401 367 l 401 0 l 118 0 l 118 940 l 401 940 l 401 594 l 828 594 l 828 940 l 1111 940 l 1111 0 l 828 0 l 828 367 "},"I":{"ha":522,"x_min":0,"x_max":0,"o":"m 403 940 l 403 0 l 119 0 l 119 940 "},"J":{"ha":550,"x_min":0,"x_max":0,"o":"m 431 940 l 431 117 b 113 -301 431 -82 411 -301 b 11 -292 64 -301 40 -297 l -32 -65 b 140 14 65 -62 122 -60 b 147 213 149 46 147 172 l 147 940 "},"K":{"ha":1113,"x_min":0,"x_max":0,"o":"m 401 940 l 401 519 l 742 940 l 1050 940 l 700 500 l 1107 0 l 761 0 l 401 440 l 401 0 l 118 0 l 118 940 "},"L":{"ha":879,"x_min":0,"x_max":0,"o":"m 401 940 l 401 225 l 832 225 l 832 0 l 118 0 l 118 940 "},"M":{"ha":1331,"x_min":0,"x_max":0,"o":"m 118 940 l 375 940 l 664 588 l 954 940 l 1211 940 l 1211 0 l 928 0 l 928 544 l 672 229 l 650 229 l 393 544 l 393 0 l 118 0 "},"N":{"ha":1257,"x_min":0,"x_max":0,"o":"m 369 940 l 856 419 l 856 940 l 1139 940 l 1139 0 l 886 0 l 399 524 l 399 0 l 118 0 l 118 940 "},"O":{"ha":1182,"x_min":0,"x_max":0,"o":"m 1124 471 b 590 -12 1124 213 946 -12 b 57 471 222 -12 57 228 b 590 953 57 714 222 953 b 1124 471 949 953 1124 725 m 346 471 b 590 229 346 329 436 229 b 835 471 747 229 835 331 b 590 711 835 610 747 711 b 346 471 436 711 346 613 "},"P":{"ha":971,"x_min":0,"x_max":0,"o":"m 588 940 b 932 644 850 940 932 769 b 588 353 932 519 850 353 l 401 353 l 401 0 l 118 0 l 118 940 m 401 760 l 401 533 l 463 533 b 643 643 596 533 643 553 b 461 760 643 733 596 760 "},"Q":{"ha":1182,"x_min":0,"x_max":0,"o":"m 1164 -68 l 965 -249 b 503 -72 803 -214 647 -153 b 367 22 447 -42 407 -17 b 57 471 224 74 57 215 b 590 953 57 714 222 953 b 1124 471 960 953 1124 714 b 828 26 1124 232 979 89 b 1156 -53 892 -3 1007 -54 m 346 471 b 590 229 346 329 436 229 b 835 471 747 229 835 331 b 590 711 835 610 747 711 b 346 471 436 711 346 613 "},"R":{"ha":1039,"x_min":0,"x_max":0,"o":"m 600 940 b 932 649 853 940 932 756 b 778 414 932 489 817 433 b 933 204 831 382 860 364 l 1028 0 l 724 0 l 650 167 b 433 367 567 356 518 367 l 401 367 l 401 0 l 118 0 l 118 940 m 401 760 l 401 533 l 463 533 b 643 643 597 533 643 556 b 461 760 643 731 588 760 "},"S":{"ha":850,"x_min":0,"x_max":0,"o":"m 735 653 b 454 760 681 690 575 760 b 354 689 376 760 354 722 b 463 592 354 650 383 629 b 775 274 650 503 775 438 b 419 -12 775 94 626 -12 b 89 63 393 -12 261 -12 l 89 293 b 376 190 142 260 251 190 b 492 260 489 190 492 250 b 349 378 492 315 425 346 b 81 681 217 433 81 513 b 419 953 81 826 188 953 b 735 874 596 953 715 886 "},"T":{"ha":1067,"x_min":0,"x_max":0,"o":"m 1019 940 l 1019 711 l 675 711 l 675 0 l 392 0 l 392 711 l 47 711 l 47 940 "},"U":{"ha":1201,"x_min":0,"x_max":0,"o":"m 388 940 l 388 494 b 601 224 388 300 478 224 b 814 493 722 224 814 299 l 814 940 l 1097 940 l 1097 421 b 601 -12 1097 82 811 -12 b 104 421 392 -12 104 82 l 104 940 "},"V":{"ha":1049,"x_min":0,"x_max":0,"o":"m 306 940 l 521 397 l 742 940 l 1038 940 l 614 -12 l 426 -12 l 11 940 "},"W":{"ha":1653,"x_min":0,"x_max":0,"o":"m 304 940 l 500 419 l 724 940 l 926 940 l 1146 419 l 1350 940 l 1640 940 l 1233 -12 l 1069 -12 l 825 542 l 575 -12 l 410 -12 l 11 940 "},"X":{"ha":1186,"x_min":0,"x_max":0,"o":"m 388 940 l 451 861 b 585 690 483 822 540 749 b 703 851 622 746 660 800 l 776 940 l 1132 940 l 767 489 l 1179 0 l 815 0 l 715 118 b 585 279 704 132 621 229 b 451 106 507 175 486 149 l 365 0 l 7 0 l 406 489 l 25 940 "},"Y":{"ha":1043,"x_min":0,"x_max":0,"o":"m 303 940 l 518 644 l 735 940 l 1035 940 l 667 431 l 667 0 l 383 0 l 383 425 l 8 940 "},"Z":{"ha":1013,"x_min":0,"x_max":0,"o":"m 26 0 l 513 715 l 67 715 l 67 940 l 981 940 l 496 225 l 981 225 l 981 0 "},"[":{"ha":622,"x_min":0,"x_max":0,"o":"m 590 940 l 590 781 l 343 781 l 343 -154 l 590 -154 l 590 -314 l 111 -314 l 111 940 "},"\\":{"ha":735,"x_min":0,"x_max":0,"o":"m 203 953 l 714 -12 l 532 -12 l 21 953 "},"]":{"ha":622,"x_min":0,"x_max":0,"o":"m 511 -314 l 32 -314 l 32 -154 l 279 -154 l 279 781 l 32 781 l 32 940 l 511 940 "},"^":{"ha":917,"x_min":0,"x_max":0,"o":"m 553 940 l 829 389 l 590 389 l 460 722 l 328 389 l 88 389 l 364 940 "},"_":{"ha":694,"x_min":0,"x_max":0,"o":"m 703 -104 l 703 -174 l -8 -174 l -8 -104 "},"‘":{"ha":419,"x_min":0,"x_max":0,"o":"m 371 910 b 264 715 278 875 261 788 b 371 582 338 694 371 647 b 226 440 371 508 310 440 b 51 654 104 440 51 557 b 371 953 51 771 136 921 "},"a":{"ha":793,"x_min":0,"x_max":0,"o":"m 72 608 b 397 703 164 674 279 703 b 699 485 603 703 699 617 l 699 218 b 732 143 699 169 706 143 b 794 163 756 143 782 157 l 794 35 b 586 -12 746 15 682 -12 b 468 61 493 -12 476 36 b 254 -12 431 31 374 -12 b 49 161 92 -12 49 86 b 311 390 49 296 161 343 b 454 440 417 424 428 426 b 346 547 454 492 446 547 b 72 421 228 547 133 482 m 454 331 b 288 190 358 290 288 261 b 354 119 288 140 322 119 b 454 167 393 119 436 153 "},"b":{"ha":885,"x_min":0,"x_max":0,"o":"m 76 940 l 321 940 l 321 650 b 506 703 350 672 415 703 b 836 340 738 703 836 519 b 522 -12 836 86 661 -12 b 321 63 404 -12 349 39 l 321 0 l 76 0 m 321 219 b 444 171 344 197 383 171 b 579 346 479 171 579 189 b 444 528 579 472 510 528 b 321 483 390 528 342 497 "},"c":{"ha":710,"x_min":0,"x_max":0,"o":"m 658 471 b 472 508 614 485 529 508 b 306 347 399 508 306 467 b 472 182 306 229 399 182 b 669 224 529 182 611 206 l 669 32 b 436 -12 614 13 546 -12 b 49 347 107 -12 49 242 b 436 703 49 453 107 703 b 658 663 546 703 604 682 "},"d":{"ha":885,"x_min":0,"x_max":0,"o":"m 564 0 l 564 63 b 363 -12 536 39 481 -12 b 49 340 224 -12 49 86 b 379 703 49 519 147 703 b 564 650 485 703 532 671 l 564 940 l 808 940 l 808 0 m 564 483 b 440 528 526 504 492 528 b 306 346 365 528 306 461 b 440 171 306 213 379 171 b 564 219 510 171 547 206 l 564 483 "},"e":{"ha":828,"x_min":0,"x_max":0,"o":"m 786 286 l 300 286 b 496 143 318 200 403 143 b 768 213 589 143 682 172 l 768 61 b 444 -12 732 42 628 -12 b 49 349 181 -12 49 149 b 444 703 49 549 181 703 b 786 335 599 703 786 613 m 557 407 b 429 553 557 494 511 553 b 293 407 350 553 293 494 "},"f":{"ha":513,"x_min":0,"x_max":0,"o":"m 367 489 l 367 0 l 122 0 l 122 489 l 10 489 l 10 654 l 122 654 l 122 667 b 418 953 122 797 189 953 b 540 940 468 953 511 946 l 540 765 b 450 778 514 771 479 778 b 367 679 399 778 367 743 l 367 654 l 490 654 l 490 489 "},"g":{"ha":782,"x_min":0,"x_max":0,"o":"m 772 543 l 651 543 b 715 407 678 521 715 478 b 442 182 715 293 619 192 b 357 136 410 181 357 174 b 481 93 357 103 388 101 b 746 -107 550 88 746 72 b 392 -326 746 -232 656 -326 b 35 -144 132 -326 35 -247 b 199 0 35 -117 47 -19 b 139 88 165 13 139 50 b 244 204 139 124 161 189 b 54 426 156 226 54 297 b 393 690 54 613 206 690 l 772 690 m 267 424 b 381 314 267 365 310 314 b 503 426 451 314 503 365 b 388 542 503 499 442 542 b 267 424 306 542 267 474 m 403 -57 b 243 -132 290 -57 243 -79 b 399 -210 243 -210 369 -210 b 551 -129 486 -210 551 -185 b 403 -57 551 -60 436 -57 "},"h":{"ha":883,"x_min":0,"x_max":0,"o":"m 322 940 l 322 592 b 567 703 408 683 489 703 b 815 424 717 703 815 624 l 815 0 l 571 0 l 571 358 b 471 514 571 364 589 514 b 322 406 399 514 350 447 l 322 0 l 78 0 l 78 940 "},"i":{"ha":425,"x_min":0,"x_max":0,"o":"m 335 690 l 335 0 l 90 0 l 90 690 m 213 953 b 315 850 269 953 315 907 b 213 747 315 793 269 747 b 110 850 156 747 110 793 b 213 953 110 907 156 953 "},"j":{"ha":425,"x_min":0,"x_max":0,"o":"m 335 690 l 335 -40 b 69 -326 335 -258 167 -326 l -12 -140 b 90 74 79 -111 90 -64 l 90 690 m 213 953 b 315 850 269 953 315 907 b 213 747 315 793 269 747 b 110 850 156 747 110 793 b 213 953 110 907 156 953 "},"k":{"ha":899,"x_min":0,"x_max":0,"o":"m 324 940 l 324 389 l 565 690 l 858 690 l 589 368 l 899 0 l 589 0 l 324 328 l 324 0 l 76 0 l 76 940 "},"l":{"ha":425,"x_min":0,"x_max":0,"o":"m 335 940 l 335 0 l 90 0 l 90 940 "},"m":{"ha":1375,"x_min":0,"x_max":0,"o":"m 1308 0 l 1064 0 l 1064 368 b 964 514 1064 467 1032 514 b 815 406 883 514 833 432 l 815 0 l 571 0 l 571 368 b 469 514 571 454 550 514 b 322 406 392 514 351 443 l 322 0 l 78 0 l 78 690 l 322 690 l 322 592 b 565 703 393 667 464 703 b 792 568 654 703 747 671 b 1060 703 865 651 943 703 b 1308 421 1229 703 1308 599 "},"n":{"ha":883,"x_min":0,"x_max":0,"o":"m 322 690 l 322 592 b 567 703 400 675 476 703 b 815 406 824 703 815 468 l 815 0 l 571 0 l 571 358 b 471 514 571 403 576 514 b 322 406 389 514 344 435 l 322 0 l 78 0 l 78 690 "},"o":{"ha":889,"x_min":0,"x_max":0,"o":"m 444 703 b 840 346 708 703 840 547 b 444 -12 840 144 708 -12 b 49 346 181 -12 49 144 b 444 703 49 547 181 703 m 444 521 b 306 346 353 521 306 451 b 444 169 306 240 353 169 b 583 346 536 169 583 240 b 444 521 583 451 536 521 "},"p":{"ha":885,"x_min":0,"x_max":0,"o":"m 321 690 l 321 628 b 522 703 349 651 404 703 b 836 350 661 703 836 604 b 506 -12 836 171 738 -12 b 321 40 400 -12 353 19 l 321 -314 l 76 -314 l 76 690 m 321 207 b 444 163 358 186 393 163 b 579 344 519 163 579 229 b 444 519 579 478 506 519 b 321 471 375 519 338 485 l 321 207 "},"q":{"ha":885,"x_min":0,"x_max":0,"o":"m 808 -314 l 564 -314 l 564 40 b 379 -12 532 19 485 -12 b 49 350 147 -12 49 171 b 363 703 49 604 224 703 b 564 628 481 703 536 651 l 564 690 l 808 690 m 564 471 b 440 519 547 485 510 519 b 306 344 379 519 306 478 b 440 163 306 229 365 163 b 564 207 492 163 526 186 "},"r":{"ha":685,"x_min":0,"x_max":0,"o":"m 321 690 l 321 524 b 539 703 343 585 421 703 b 685 653 603 703 642 679 l 594 408 b 482 461 557 444 525 461 b 321 297 419 461 369 431 l 321 0 l 76 0 l 76 690 "},"s":{"ha":672,"x_min":0,"x_max":0,"o":"m 582 478 b 382 547 554 493 479 547 b 308 499 318 547 308 511 b 397 431 308 479 314 463 b 618 201 563 367 618 307 b 342 -12 618 83 533 -12 b 75 42 228 -12 146 15 l 75 215 b 282 143 125 186 197 143 b 374 193 326 143 374 154 b 226 293 374 228 336 246 b 64 496 153 325 64 389 b 344 703 64 593 153 703 b 582 647 361 703 474 703 "},"t":{"ha":651,"x_min":0,"x_max":0,"o":"m 604 521 l 371 521 l 371 300 b 469 182 371 242 371 182 b 622 231 522 182 568 203 l 622 40 b 390 -12 578 18 479 -12 b 126 246 208 -12 126 81 l 126 521 l 15 521 l 15 564 l 343 897 l 371 897 l 371 690 l 604 690 "},"u":{"ha":883,"x_min":0,"x_max":0,"o":"m 561 0 l 561 99 b 317 -12 497 29 426 -12 b 68 285 60 -12 68 222 l 68 690 l 313 690 l 313 332 b 413 176 313 288 307 176 b 561 285 496 176 543 258 l 561 690 l 806 690 l 806 0 "},"v":{"ha":810,"x_min":0,"x_max":0,"o":"m 267 690 l 410 329 l 568 690 l 806 690 l 492 0 l 311 0 l 4 690 "},"w":{"ha":1186,"x_min":0,"x_max":0,"o":"m 257 690 l 383 342 l 518 690 l 674 690 l 810 342 l 932 690 l 1176 690 l 904 0 l 750 0 l 596 376 l 443 0 l 289 0 l 10 690 "},"x":{"ha":854,"x_min":0,"x_max":0,"o":"m 307 690 l 435 503 l 564 690 l 831 690 l 569 363 l 847 0 l 546 0 l 413 196 l 279 0 l 13 0 l 279 339 l 7 690 "},"y":{"ha":810,"x_min":0,"x_max":0,"o":"m 281 690 l 421 347 l 581 690 l 818 690 l 349 -314 l 101 -314 l 292 90 l 18 690 "},"z":{"ha":767,"x_min":0,"x_max":0,"o":"m 47 690 l 735 690 l 735 668 l 404 181 l 728 181 l 728 0 l 19 0 l 19 22 l 350 510 l 47 510 "},"{":{"ha":535,"x_min":0,"x_max":0,"o":"m 514 -326 l 451 -326 b 168 -12 182 -326 168 -211 b 29 217 168 165 136 217 l 29 410 b 169 610 131 410 169 458 b 451 953 169 825 169 953 l 514 953 l 514 764 b 379 626 401 764 379 750 b 257 313 379 467 363 354 b 379 31 361 260 379 204 b 514 -137 379 -117 389 -137 "},"|":{"ha":406,"x_min":0,"x_max":0,"o":"m 288 953 l 288 -326 l 119 -326 l 119 953 "},"}":{"ha":535,"x_min":0,"x_max":0,"o":"m 21 953 l 83 953 b 367 639 353 953 367 838 b 506 410 367 461 399 410 l 506 217 b 365 17 404 217 365 168 b 83 -326 365 -199 365 -326 l 21 -326 l 21 -137 b 156 0 133 -137 156 -124 b 278 314 156 160 172 272 b 156 596 174 367 156 422 b 21 764 156 743 146 764 "},"~":{"ha":926,"x_min":0,"x_max":0,"o":"m 82 513 b 304 608 110 536 193 608 b 488 551 332 608 371 608 b 643 501 563 515 599 501 b 844 601 742 501 822 582 l 844 429 b 628 333 757 353 685 333 b 428 397 578 333 538 343 b 292 440 349 436 317 440 b 82 339 240 440 165 418 "},"¡":{"ha":419,"x_min":0,"x_max":0,"o":"m 208 317 b 263 283 240 315 251 306 b 356 -118 299 210 356 -4 b 208 -326 356 -278 268 -326 b 64 -118 149 -326 64 -278 b 154 283 64 -4 118 211 b 208 317 165 306 176 315 m 208 347 b 64 493 128 347 64 413 b 208 639 64 574 128 639 b 356 493 288 639 356 574 b 208 347 356 411 288 347 "},"¢":{"ha":724,"x_min":0,"x_max":0,"o":"m 668 478 b 565 511 638 493 594 507 l 458 175 b 679 221 540 163 638 203 l 679 33 b 400 -10 618 11 532 -21 l 322 -260 l 240 -260 l 322 1 b 60 339 143 50 60 190 b 447 703 60 471 129 703 b 543 696 497 703 529 699 l 610 906 l 692 906 l 619 679 b 668 663 636 675 653 668 m 489 521 b 299 339 363 521 299 426 b 383 190 299 242 357 207 "},"£":{"ha":796,"x_min":0,"x_max":0,"o":"m 60 560 l 194 560 b 335 831 250 704 272 760 b 592 953 415 922 507 953 b 667 942 629 953 647 947 l 768 731 b 663 751 740 740 708 751 b 463 560 535 751 494 646 l 569 560 l 569 381 l 406 381 l 361 210 b 443 222 401 219 413 222 b 539 211 481 222 506 219 b 635 199 585 200 600 199 b 728 224 689 199 706 210 l 728 7 b 611 -12 704 -1 678 -12 b 457 0 557 -12 507 -7 b 324 11 400 8 381 11 b 54 -12 207 11 143 1 b 92 176 69 67 78 114 b 136 358 106 239 117 297 l 143 381 l 60 381 "},"⁄":{"ha":143,"x_min":0,"x_max":0,"o":"m 463 953 l -181 -33 l -321 -33 l 322 953 "},"∕":{"ha":143,"x_min":0,"x_max":0,"o":"m 322 953 l -321 -33 l -181 -33 l 463 953 "},"¥":{"ha":1043,"x_min":0,"x_max":0,"o":"m 992 542 l 992 425 l 665 425 l 665 289 l 992 289 l 992 172 l 665 172 l 665 0 l 383 0 l 383 172 l 51 172 l 51 289 l 383 289 l 383 425 l 51 425 l 51 542 l 299 542 l 8 940 l 351 940 l 543 644 l 735 940 l 1035 940 l 746 542 "},"ƒ":{"ha":825,"x_min":0,"x_max":0,"o":"m 4 -122 b 86 -133 26 -129 50 -133 b 215 33 175 -133 197 -90 l 279 478 l 122 478 l 147 643 l 304 643 b 614 953 319 749 349 953 b 763 935 646 953 683 950 l 739 765 b 658 772 706 769 686 772 b 529 643 607 772 547 765 l 683 643 l 657 478 l 506 478 l 425 -72 b 315 -258 413 -157 376 -212 b 136 -314 246 -311 168 -314 b -22 -294 71 -314 19 -303 "},"§":{"ha":854,"x_min":0,"x_max":0,"o":"m 181 599 b 122 735 153 629 122 664 b 436 953 122 821 188 953 b 722 790 632 953 722 874 b 617 683 722 749 697 683 b 514 750 597 683 549 686 b 422 821 486 801 471 821 b 333 756 375 821 333 796 b 515 611 333 707 374 686 b 790 283 686 521 790 438 b 675 39 790 149 711 74 b 733 -112 699 8 733 -33 b 424 -326 733 -292 540 -326 b 132 -162 261 -326 132 -257 b 232 -71 132 -118 164 -71 b 342 -137 294 -71 326 -114 b 432 -194 363 -169 379 -194 b 522 -125 461 -194 522 -181 b 319 39 522 -83 514 -65 b 64 357 108 151 64 253 b 181 599 64 465 128 539 m 293 499 b 244 417 275 486 244 463 b 361 264 244 361 306 306 b 576 129 390 242 543 151 b 618 222 592 147 618 179 b 293 499 618 319 472 400 "},"¤":{"ha":767,"x_min":0,"x_max":0,"o":"m 22 699 l 147 835 l 242 744 b 383 781 250 747 296 781 b 525 744 471 781 515 747 l 615 835 l 744 704 l 656 614 b 689 472 682 563 689 511 b 656 332 689 432 679 381 l 744 242 l 615 111 l 525 200 b 383 168 499 189 449 168 b 242 200 318 168 265 190 l 158 111 l 22 242 l 108 332 b 76 474 76 394 76 451 b 108 614 76 536 94 583 m 263 474 b 383 353 263 407 318 353 b 503 474 449 353 503 407 b 383 594 503 540 449 594 b 263 474 317 594 263 540 "},"'":{"ha":386,"x_min":0,"x_max":0,"o":"m 331 940 l 331 776 l 288 576 l 100 576 l 56 776 l 56 940 "},"“":{"ha":781,"x_min":0,"x_max":0,"o":"m 744 910 b 638 715 651 875 635 788 b 744 582 711 694 744 647 b 600 440 744 508 683 440 b 425 654 478 440 425 557 b 744 953 425 771 510 921 m 371 910 b 264 715 278 875 261 788 b 371 582 338 694 371 647 b 226 440 371 508 310 440 b 51 654 104 440 51 557 b 371 953 51 771 136 921 "},"«":{"ha":885,"x_min":0,"x_max":0,"o":"m 247 338 l 461 0 l 235 0 l 21 338 l 235 672 l 461 672 m 642 338 l 854 0 l 628 0 l 414 338 l 628 672 l 854 672 "},"‹":{"ha":492,"x_min":0,"x_max":0,"o":"m 249 338 l 461 0 l 235 0 l 21 338 l 235 672 l 461 672 "},"›":{"ha":492,"x_min":0,"x_max":0,"o":"m 257 672 l 471 338 l 257 0 l 31 0 l 243 338 l 31 672 "},"":{"ha":904,"x_min":0,"x_max":0,"o":"m 692 953 b 794 850 749 953 794 907 b 692 747 794 793 749 747 b 589 850 635 747 589 793 b 692 953 589 907 635 953 m 367 489 l 367 0 l 122 0 l 122 489 l 10 489 l 10 654 l 122 654 l 122 667 b 418 953 122 792 182 953 b 519 942 468 953 490 947 l 519 771 b 450 778 503 774 479 778 b 367 679 399 778 367 743 l 367 654 l 490 654 l 490 489 m 814 690 l 814 0 l 569 0 l 569 690 "},"ﬁ":{"ha":904,"x_min":0,"x_max":0,"o":"m 692 953 b 589 850 635 953 589 907 b 692 747 589 793 635 747 b 794 850 749 747 794 793 b 692 953 794 907 749 953 m 490 489 l 490 654 l 367 654 l 367 679 b 450 778 367 743 399 778 b 519 771 479 778 503 774 l 519 942 b 418 953 490 947 468 953 b 122 667 182 953 122 792 l 122 654 l 10 654 l 10 489 l 122 489 l 122 0 l 367 0 l 367 489 m 569 690 l 569 0 l 814 0 l 814 690 "},"":{"ha":904,"x_min":0,"x_max":0,"o":"m 814 940 l 814 0 l 569 0 l 569 940 m 367 489 l 367 0 l 122 0 l 122 489 l 10 489 l 10 654 l 122 654 l 122 667 b 418 953 122 825 210 953 b 519 942 468 953 494 947 l 519 771 b 450 778 503 774 479 778 b 367 679 399 778 367 743 l 367 654 l 490 654 l 490 489 "},"ﬂ":{"ha":904,"x_min":0,"x_max":0,"o":"m 569 940 l 569 0 l 814 0 l 814 940 m 490 489 l 490 654 l 367 654 l 367 679 b 450 778 367 743 399 778 b 519 771 479 778 503 774 l 519 942 b 418 953 494 947 468 953 b 122 667 210 953 122 825 l 122 654 l 10 654 l 10 489 l 122 489 l 122 0 l 367 0 l 367 489 "},"–":{"ha":694,"x_min":0,"x_max":0,"o":"m 703 432 l 703 263 l -8 263 l -8 432 "},"†":{"ha":767,"x_min":0,"x_max":0,"o":"m 510 -233 b 513 -282 511 -244 513 -262 b 426 -326 513 -325 486 -326 l 347 -326 b 254 -279 294 -326 254 -326 b 257 -244 254 -268 256 -250 l 332 510 l 136 465 b 68 453 122 463 82 453 b 28 528 33 453 28 490 l 28 586 b 68 667 28 629 28 667 b 128 657 81 667 93 665 l 332 611 l 282 861 b 275 914 279 876 275 900 b 361 953 275 949 308 953 l 403 953 b 489 913 446 953 489 953 b 478 842 489 897 488 892 l 435 611 l 639 657 b 699 667 674 665 686 667 b 739 586 739 667 739 629 l 739 528 b 699 453 739 490 733 453 b 631 465 685 453 644 463 l 435 510 "},"‡":{"ha":767,"x_min":0,"x_max":0,"o":"m 622 672 b 696 683 678 683 685 683 b 736 618 736 683 736 644 l 736 561 b 697 483 736 521 736 483 b 639 494 679 483 646 493 l 435 535 l 475 315 l 435 92 l 642 135 b 692 143 664 139 678 143 b 736 76 729 143 736 117 l 736 15 b 696 -57 736 -6 736 -57 b 646 -50 682 -57 651 -50 l 435 -8 l 475 -224 b 485 -283 479 -244 485 -275 b 404 -326 485 -326 440 -326 l 354 -326 b 285 -292 331 -326 285 -326 b 292 -239 285 -276 289 -257 l 333 -8 l 122 -49 b 65 -57 117 -50 71 -57 b 31 4 31 -57 31 -4 l 31 69 b 65 143 31 111 33 143 b 113 135 75 143 79 142 l 333 92 l 286 315 l 333 535 l 136 494 b 75 483 131 493 97 483 b 31 561 31 483 31 529 l 31 633 b 74 683 31 650 31 683 b 124 675 85 683 89 682 l 333 635 l 292 851 b 283 911 285 885 283 900 b 372 953 283 953 318 953 l 410 953 b 483 915 431 953 483 953 b 475 851 483 900 481 878 l 435 635 "},"·":{"ha":390,"x_min":0,"x_max":0,"o":"m 197 617 b 342 471 278 617 342 551 b 197 325 342 390 278 325 b 50 471 118 325 50 390 b 197 617 50 553 118 617 "},"·":{"ha":390,"x_min":0,"x_max":0,"o":"m 197 617 b 50 471 118 617 50 553 b 197 325 50 390 118 325 b 342 471 278 325 342 390 b 197 617 342 551 278 617 "},"⋅":{"ha":390,"x_min":0,"x_max":0,"o":"m 197 617 b 342 471 278 617 342 551 b 197 325 342 390 278 325 b 50 471 118 325 50 390 b 197 617 50 553 118 617 "},"¶":{"ha":810,"x_min":0,"x_max":0,"o":"m 503 -326 l 408 -326 l 408 289 b 199 332 381 289 278 294 b 29 617 86 386 29 500 b 165 888 29 744 88 839 b 500 940 244 938 356 940 l 793 940 l 793 846 l 703 846 l 703 -326 l 608 -326 l 608 846 l 503 846 "},"•":{"ha":694,"x_min":0,"x_max":0,"o":"m 347 696 b 572 471 471 696 572 597 b 347 246 572 347 472 246 b 122 471 222 246 122 347 b 347 696 122 597 224 696 "},"‚":{"ha":419,"x_min":0,"x_max":0,"o":"m 49 -190 b 156 4 142 -156 158 -68 b 49 138 82 25 49 72 b 193 279 49 211 110 279 b 368 65 315 279 368 163 b 49 -233 368 -51 283 -201 "},"„":{"ha":781,"x_min":0,"x_max":0,"o":"m 36 -190 b 143 4 129 -156 146 -68 b 36 138 69 25 36 72 b 181 279 36 211 97 279 b 356 65 303 279 356 163 b 36 -233 356 -51 271 -201 m 410 -190 b 517 4 503 -156 519 -68 b 410 138 443 25 410 72 b 554 279 410 211 471 279 b 729 65 676 279 729 163 b 410 -233 729 -51 644 -201 "},"”":{"ha":781,"x_min":0,"x_max":0,"o":"m 36 483 b 143 678 129 518 146 606 b 36 811 69 699 36 746 b 181 953 36 885 97 953 b 356 739 303 953 356 836 b 36 440 356 622 271 472 m 410 483 b 517 678 503 518 519 606 b 410 811 443 699 410 746 b 554 953 410 885 471 953 b 729 739 676 953 729 836 b 410 440 729 622 644 472 "},"»":{"ha":885,"x_min":0,"x_max":0,"o":"m 650 672 l 864 338 l 650 0 l 424 0 l 638 338 l 424 672 m 257 672 l 471 338 l 257 0 l 31 0 l 243 338 l 31 672 "},"…":{"ha":1389,"x_min":0,"x_max":0,"o":"m 694 279 b 840 133 774 279 840 214 b 694 -12 840 53 775 -12 b 549 133 614 -12 549 53 b 694 279 549 215 615 279 m 1157 279 b 1303 133 1238 279 1303 214 b 1157 -12 1303 53 1238 -12 b 1011 133 1078 -12 1011 53 b 1157 279 1011 215 1078 279 m 232 279 b 378 133 311 279 378 214 b 232 -12 378 53 313 -12 b 86 133 151 -12 86 53 b 232 279 86 215 151 279 "},"‰":{"ha":1632,"x_min":0,"x_max":0,"o":"m 303 629 b 394 719 353 629 394 669 b 303 811 394 769 353 811 b 213 719 253 811 213 769 b 303 629 213 669 253 629 m 303 953 b 536 721 432 953 536 850 b 303 488 536 592 432 488 b 71 721 174 488 71 592 b 303 953 71 850 174 953 m 149 -25 l 828 953 l 965 953 l 288 -25 m 1328 440 b 1561 208 1457 440 1561 338 b 1328 -25 1561 79 1457 -25 b 1096 208 1199 -25 1096 79 b 1328 440 1096 338 1199 440 m 1328 117 b 1419 207 1378 117 1419 157 b 1328 299 1419 257 1378 299 b 1238 207 1278 299 1238 257 b 1328 117 1238 157 1278 117 m 810 440 b 1043 208 939 440 1043 338 b 810 -25 1043 79 939 -25 b 578 208 681 -25 578 79 b 810 440 578 338 681 440 m 810 117 b 901 207 860 117 901 157 b 810 299 901 257 860 299 b 719 207 760 299 719 257 b 810 117 719 157 760 117 "},"¿":{"ha":535,"x_min":0,"x_max":0,"o":"m 421 -306 b 292 -326 388 -315 349 -326 b 43 -129 117 -326 43 -222 b 169 92 43 -46 63 -3 b 268 274 231 146 268 235 b 319 319 268 303 286 319 b 369 292 347 319 364 307 b 383 189 379 265 383 210 b 357 63 383 132 361 72 b 308 -65 342 26 308 -33 b 393 -135 308 -87 319 -135 b 474 -117 431 -135 451 -126 l 485 -117 m 315 347 b 171 493 235 347 171 413 b 315 639 171 574 235 639 b 463 493 394 639 463 574 b 315 347 463 411 394 347 "},"`":{"ha":463,"x_min":0,"x_max":0,"o":"m 250 782 l 0 997 l 264 997 l 381 782 "},"´":{"ha":463,"x_min":0,"x_max":0,"o":"m 229 997 l 493 997 l 243 782 l 113 782 "},"ˆ":{"ha":463,"x_min":0,"x_max":0,"o":"m 354 782 l 232 907 l 108 782 l -37 782 l 86 1017 l 376 1017 l 500 782 "},"˜":{"ha":463,"x_min":0,"x_max":0,"o":"m 500 999 b 340 782 500 858 436 782 b 126 840 271 782 171 840 b 71 782 86 840 74 807 l -37 782 b 121 999 -37 939 56 999 b 239 969 154 999 197 983 b 338 939 279 954 318 939 b 390 999 375 939 390 974 "},"¯":{"ha":463,"x_min":0,"x_max":0,"o":"m -31 797 l -31 964 l 493 964 l 493 797 "},"˘":{"ha":463,"x_min":0,"x_max":0,"o":"m 96 1017 b 232 921 104 999 135 921 b 367 1017 332 921 356 990 l 488 1017 b 231 782 472 901 372 782 b -25 1017 100 782 -14 885 "},"˙":{"ha":463,"x_min":0,"x_max":0,"o":"m 139 875 b 232 968 139 925 179 968 b 325 875 285 968 325 925 b 232 782 325 824 285 782 b 139 875 179 782 139 825 "},"¨":{"ha":463,"x_min":0,"x_max":0,"o":"m -35 875 b 58 968 -35 925 6 968 b 151 875 111 968 151 925 b 58 782 151 824 111 782 b -35 875 6 782 -35 825 m 311 875 b 404 968 311 925 350 968 b 497 875 457 968 497 925 b 404 782 497 824 457 782 b 311 875 350 782 311 825 "},"̈":{"ha":463,"x_min":0,"x_max":0,"o":"m -35 875 b 58 782 -35 825 6 782 b 151 875 111 782 151 824 b 58 968 151 925 111 968 b -35 875 6 968 -35 925 m 311 875 b 404 782 311 825 350 782 b 497 875 457 782 497 824 b 404 968 497 925 457 968 b 311 875 350 968 311 925 "},"˚":{"ha":463,"x_min":0,"x_max":0,"o":"m 231 1060 b 371 921 308 1060 371 999 b 231 781 371 843 308 781 b 92 921 153 781 92 843 b 231 1060 92 999 153 1060 m 231 993 b 158 921 190 993 158 961 b 231 847 158 881 190 847 b 304 921 271 847 304 881 b 231 993 304 961 271 993 "},"¸":{"ha":463,"x_min":0,"x_max":0,"o":"m 300 14 l 274 -40 b 389 -157 347 -58 389 -100 b 165 -292 389 -228 328 -292 l 32 -292 l 32 -199 b 167 -144 100 -199 167 -192 b 101 -101 167 -117 149 -104 l 186 14 "},"˝":{"ha":463,"x_min":0,"x_max":0,"o":"m 393 997 l 657 997 l 407 782 l 276 782 m 65 997 l 329 997 l 79 782 l -50 782 "},"˛":{"ha":463,"x_min":0,"x_max":0,"o":"m 272 11 b 251 -69 260 -12 251 -40 b 332 -136 251 -100 285 -136 b 392 -126 365 -136 372 -133 l 392 -243 b 271 -271 354 -261 318 -271 b 124 -111 189 -271 124 -214 b 158 11 124 -71 133 -31 "},"ˇ":{"ha":463,"x_min":0,"x_max":0,"o":"m 108 1017 l 232 890 l 354 1017 l 500 1017 l 376 782 l 86 782 l -37 1017 "},"—":{"ha":1389,"x_min":0,"x_max":0,"o":"m 1397 432 l 1397 263 l -8 263 l -8 432 "},"Æ":{"ha":1546,"x_min":0,"x_max":0,"o":"m 1464 940 l 1464 751 l 1054 751 l 1054 579 l 1440 579 l 1440 390 l 1054 390 l 1054 189 l 1474 189 l 1474 0 l 771 0 l 771 350 l 500 350 l 294 0 l 7 0 l 601 940 m 771 808 l 597 513 l 771 513 "},"ª":{"ha":521,"x_min":0,"x_max":0,"o":"m 43 893 b 263 953 114 931 182 953 b 440 892 354 953 408 929 b 465 800 465 863 465 826 l 465 653 b 479 618 465 622 471 618 b 528 632 492 618 504 622 l 528 536 b 397 504 493 522 469 504 b 306 544 350 504 325 524 b 164 504 272 525 239 504 b 26 618 57 504 26 569 b 118 744 26 685 67 725 b 292 790 165 763 236 778 b 228 840 292 826 263 840 b 43 757 185 840 131 833 m 290 707 b 199 636 218 681 199 661 b 233 603 199 613 217 603 b 290 628 254 603 271 614 "},"Ł":{"ha":879,"x_min":0,"x_max":0,"o":"m 578 796 l 578 611 l 401 476 l 401 225 l 832 225 l 832 0 l 118 0 l 118 260 l -8 163 l -8 347 l 118 444 l 118 940 l 401 940 l 401 661 "},"Ø":{"ha":1182,"x_min":0,"x_max":0,"o":"m 143 -54 l 64 28 l 183 142 b 57 471 103 229 57 332 b 590 953 57 714 222 953 b 928 860 790 953 889 886 l 1039 965 l 1118 885 l 1013 783 b 1124 471 1103 683 1124 561 b 590 -12 1124 228 958 -12 b 271 69 501 -12 376 1 m 465 257 b 592 229 508 235 563 229 b 835 469 747 229 835 333 b 810 589 835 517 825 558 m 735 674 b 590 711 692 701 642 711 b 346 472 429 711 346 603 b 382 333 346 458 347 390 "},"Œ":{"ha":1504,"x_min":0,"x_max":0,"o":"m 1015 751 l 1015 579 l 1399 579 l 1399 390 l 1015 390 l 1015 189 l 1432 189 l 1432 0 l 613 0 b 239 94 533 0 376 0 b 57 478 78 206 57 388 b 218 835 57 594 93 740 b 665 940 358 942 544 940 l 1425 940 l 1425 751 m 732 751 l 685 751 b 346 471 460 751 346 685 b 685 189 346 257 460 189 l 732 189 "},"º":{"ha":564,"x_min":0,"x_max":0,"o":"m 279 953 b 547 728 450 953 547 853 b 279 504 547 603 450 504 b 17 728 108 504 17 603 b 279 953 17 853 108 953 m 279 826 b 200 728 224 826 200 792 b 279 631 200 664 224 631 b 364 728 335 631 364 664 b 279 826 364 792 335 826 "},"æ":{"ha":1158,"x_min":0,"x_max":0,"o":"m 72 608 b 369 703 133 644 232 703 b 588 642 481 703 544 667 b 781 703 617 663 672 703 b 1117 335 946 703 1117 593 l 1117 286 l 672 286 b 864 143 681 160 825 143 b 1101 214 917 143 992 158 l 1101 58 b 797 -12 1006 17 903 -12 b 514 75 696 -12 596 17 b 243 -12 418 10 329 -12 b 49 163 115 -12 49 75 b 307 389 49 313 224 364 b 446 435 400 417 410 419 b 346 547 446 515 436 547 b 72 425 226 547 144 488 m 446 329 b 289 193 343 281 289 256 b 351 119 289 168 301 119 b 446 161 399 119 428 144 m 889 407 b 779 553 886 460 871 553 b 668 407 715 553 669 507 "},"ı":{"ha":425,"x_min":0,"x_max":0,"o":"m 335 690 l 335 0 l 90 0 l 90 690 "},"ł":{"ha":425,"x_min":0,"x_max":0,"o":"m 432 713 l 432 565 l 335 490 l 335 0 l 90 0 l 90 304 l -7 229 l -7 376 l 90 451 l 90 940 l 335 940 l 335 638 "},"ø":{"ha":889,"x_min":0,"x_max":0,"o":"m 765 758 l 824 706 l 735 606 b 840 346 807 538 840 444 b 449 -12 840 194 747 -12 b 219 39 313 -12 250 22 l 124 -68 l 65 -17 l 156 85 b 117 126 147 93 135 104 b 49 342 72 182 49 261 b 443 703 49 524 167 703 b 669 653 522 703 601 690 m 528 496 b 447 524 494 524 461 524 b 306 344 343 524 306 438 b 318 263 306 325 308 292 m 363 196 b 446 167 386 178 415 167 b 583 351 503 167 583 201 b 572 428 583 397 576 417 "},"œ":{"ha":1304,"x_min":0,"x_max":0,"o":"m 1263 286 l 806 286 b 999 143 818 154 965 143 b 1246 211 1107 143 1201 190 l 1246 57 b 943 -12 1181 29 1083 -12 b 703 57 819 -12 758 18 b 453 -12 658 26 603 -12 b 49 338 176 -12 49 149 b 439 703 49 549 183 703 b 688 639 579 703 651 660 b 911 703 739 668 800 703 b 1263 333 1075 703 1263 614 m 1046 407 b 918 551 1039 457 1018 551 b 803 407 819 551 803 471 m 444 521 b 306 346 363 521 306 464 b 444 169 306 256 343 169 b 583 346 519 169 583 224 b 444 521 583 463 529 521 "},"ß":{"ha":918,"x_min":0,"x_max":0,"o":"m 101 614 b 151 842 101 715 104 783 b 469 953 196 896 293 953 b 811 717 732 953 811 822 b 697 539 811 601 732 558 b 861 279 815 488 861 392 b 582 -12 861 89 714 -12 b 453 6 535 -12 493 -4 l 453 175 b 563 194 485 174 522 167 b 617 322 600 221 617 274 b 465 465 617 433 551 463 l 465 601 b 579 706 553 601 579 664 b 464 813 579 754 540 813 b 346 669 378 813 346 754 l 346 0 l 101 0 "},"Ð":{"ha":1142,"x_min":0,"x_max":0,"o":"m 508 940 b 921 824 744 940 851 881 b 1085 453 1010 751 1085 625 b 908 79 1085 232 971 128 b 611 0 800 -6 638 0 l 118 0 l 118 397 l 14 397 l 14 543 l 118 543 l 118 940 m 401 543 l 594 543 l 594 397 l 401 397 l 401 194 l 522 194 b 796 465 624 194 796 215 b 522 751 796 715 624 751 l 401 751 "},"ð":{"ha":889,"x_min":0,"x_max":0,"o":"m 363 953 b 494 899 410 939 451 924 l 665 953 l 688 882 l 575 843 b 700 724 608 817 651 783 b 840 353 786 617 840 497 b 456 -12 840 143 706 -12 b 49 338 129 -12 49 194 b 404 690 49 581 236 690 b 500 672 447 690 474 682 b 400 788 476 710 432 761 l 179 714 l 157 788 l 325 843 b 222 899 306 857 294 864 m 444 521 b 306 346 353 521 306 451 b 444 169 306 240 353 169 b 583 346 536 169 583 240 b 444 521 583 451 536 521 "},"Þ":{"ha":971,"x_min":0,"x_max":0,"o":"m 401 940 l 401 764 l 588 764 b 932 468 825 764 932 619 b 588 176 932 317 825 176 l 401 176 l 401 0 l 118 0 l 118 940 m 401 583 l 401 357 l 463 357 b 643 467 581 357 643 369 b 461 583 643 564 575 583 "},"þ":{"ha":885,"x_min":0,"x_max":0,"o":"m 321 940 l 321 628 b 522 703 349 651 404 703 b 836 350 661 703 836 604 b 506 -12 836 171 738 -12 b 321 40 400 -12 353 19 l 321 -314 l 76 -314 l 76 940 m 321 207 b 444 163 358 186 393 163 b 579 344 519 163 579 229 b 444 519 579 478 506 519 b 321 471 375 519 338 485 l 321 207 "},"¹":{"ha":492,"x_min":0,"x_max":0,"o":"m 161 463 l 161 940 l 331 940 l 331 463 "},"²":{"ha":492,"x_min":0,"x_max":0,"o":"m 465 463 l 28 463 l 28 486 b 154 603 72 522 114 563 b 260 768 213 661 260 713 b 189 829 260 804 233 829 b 46 761 122 829 63 776 l 46 897 b 233 953 92 922 150 953 b 424 800 367 953 424 876 b 300 588 424 721 374 667 l 465 588 "},"³":{"ha":492,"x_min":0,"x_max":0,"o":"m 53 621 b 189 567 99 586 138 567 b 261 611 225 567 261 582 b 149 664 261 657 200 664 l 149 758 b 251 803 194 758 251 758 b 186 847 251 822 231 847 b 68 808 171 847 129 844 l 68 921 b 228 953 92 929 164 953 b 421 819 361 953 421 878 b 358 715 421 782 403 747 b 431 600 408 686 431 647 b 232 456 431 507 340 456 b 53 492 165 456 90 476 "},"−":{"ha":926,"x_min":0,"x_max":0,"o":"m 844 554 l 844 386 l 82 386 l 82 554 "},"°":{"ha":554,"x_min":0,"x_max":0,"o":"m 276 953 b 471 760 383 953 471 867 b 276 565 471 653 385 565 b 83 760 171 565 83 651 b 276 953 83 867 171 953 m 276 828 b 208 758 239 828 208 797 b 276 690 208 721 239 690 b 346 758 314 690 346 721 b 276 828 346 797 314 828 "},"¬":{"ha":926,"x_min":0,"x_max":0,"o":"m 844 717 l 844 221 l 676 221 l 676 549 l 82 549 l 82 717 "},"×":{"ha":926,"x_min":0,"x_max":0,"o":"m 464 590 l 707 833 l 826 714 l 582 471 l 826 226 l 707 108 l 464 351 l 219 108 l 100 226 l 344 471 l 100 714 l 219 833 "},"÷":{"ha":926,"x_min":0,"x_max":0,"o":"m 844 549 l 844 390 l 82 390 l 82 549 m 463 88 b 364 188 408 88 364 133 b 463 286 364 242 408 286 b 563 188 517 286 563 242 b 463 88 563 133 517 88 m 463 653 b 364 751 408 653 364 697 b 463 851 364 806 408 851 b 563 751 517 851 563 806 b 463 653 563 697 517 653 "},"±":{"ha":926,"x_min":0,"x_max":0,"o":"m 844 168 l 844 0 l 82 0 l 82 168 m 379 715 l 379 1013 l 547 1013 l 547 715 l 844 715 l 844 547 l 547 547 l 547 250 l 379 250 l 379 547 l 82 547 l 82 715 "},"µ":{"ha":883,"x_min":0,"x_max":0,"o":"m 313 -314 l 68 -314 l 68 690 l 313 690 l 313 329 b 413 176 313 278 311 176 b 561 282 486 176 531 239 l 561 690 l 806 690 l 806 0 l 561 0 l 561 38 b 429 -12 540 17 508 -12 b 313 21 368 -12 342 3 "},"¦":{"ha":406,"x_min":0,"x_max":0,"o":"m 288 226 l 288 -326 l 119 -326 l 119 226 m 288 953 l 288 400 l 119 400 l 119 953 "},"©":{"ha":1114,"x_min":0,"x_max":0,"o":"m 817 339 b 560 144 801 290 757 144 b 278 438 374 144 278 282 b 561 726 278 608 401 726 b 811 539 668 726 783 671 l 678 518 b 554 626 672 542 653 626 b 429 440 467 626 429 544 b 556 243 429 392 429 243 b 678 372 636 243 665 317 m 557 953 b 1075 436 840 953 1075 725 b 557 -82 1075 150 843 -82 b 39 436 271 -82 39 150 b 557 953 39 725 275 953 m 557 853 b 139 436 329 853 139 669 b 557 18 139 206 326 18 b 975 436 789 18 975 206 b 557 853 975 669 786 853 "},"®":{"ha":1114,"x_min":0,"x_max":0,"o":"m 557 953 b 1075 436 840 953 1075 725 b 557 -82 1075 150 843 -82 b 39 436 271 -82 39 150 b 557 953 39 725 275 953 m 557 853 b 139 436 329 853 139 669 b 557 18 139 206 326 18 b 975 436 789 18 975 206 b 557 853 975 669 786 853 m 569 713 b 769 556 682 713 769 671 b 619 401 769 443 671 411 b 749 253 688 369 710 324 l 800 158 l 638 158 b 508 369 576 283 535 354 b 460 379 497 375 476 381 l 460 158 l 322 158 l 322 713 m 460 478 l 519 478 b 628 547 585 478 628 494 b 525 617 628 594 585 617 l 460 617 "},"™":{"ha":1317,"x_min":0,"x_max":0,"o":"m 568 940 l 568 810 l 375 810 l 375 389 l 215 389 l 215 810 l 25 810 l 25 940 m 874 940 l 950 639 l 1031 940 l 1267 940 l 1267 389 l 1115 389 l 1115 779 l 1011 389 l 886 389 l 783 779 l 783 389 l 632 389 l 632 940 "},"½":{"ha":1128,"x_min":0,"x_max":0,"o":"m 161 463 l 161 940 l 331 940 l 331 463 m 922 953 l 279 -33 l 139 -33 l 782 953 m 1101 0 l 664 0 l 664 24 b 790 140 708 60 750 100 b 896 306 849 199 896 250 b 825 367 896 335 879 367 b 682 299 768 367 710 324 l 682 435 b 869 490 729 460 789 490 b 1060 338 1031 490 1060 388 b 936 125 1060 258 1010 204 l 1101 125 "},"¼":{"ha":1128,"x_min":0,"x_max":0,"o":"m 886 0 l 886 100 l 649 100 l 649 203 l 910 483 l 1038 483 l 1038 199 l 1103 199 l 1103 100 l 1038 100 l 1038 0 m 886 199 l 886 328 l 765 199 m 953 953 l 310 -33 l 169 -33 l 813 953 m 161 463 l 161 940 l 331 940 l 331 463 "},"¾":{"ha":1128,"x_min":0,"x_max":0,"o":"m 53 621 b 189 567 99 586 138 567 b 261 611 225 567 261 582 b 149 664 261 657 200 664 l 149 758 b 251 803 194 758 251 758 b 186 847 251 822 231 847 b 68 808 171 847 129 844 l 68 921 b 228 953 92 929 164 953 b 421 819 361 953 421 878 b 358 715 421 782 403 747 b 431 600 408 686 431 647 b 232 456 431 507 340 456 b 53 492 165 456 90 476 m 886 0 l 886 100 l 649 100 l 649 203 l 910 483 l 1038 483 l 1038 199 l 1103 199 l 1103 100 l 1038 100 l 1038 0 m 886 199 l 886 328 l 765 199 m 964 953 l 321 -33 l 181 -33 l 824 953 "},"Á":{"ha":1157,"x_min":0,"x_max":0,"o":"m 375 190 l 297 0 l 7 0 l 422 940 l 736 940 l 1150 0 l 860 0 l 783 190 m 718 354 l 581 697 l 442 354 m 576 1219 l 840 1219 l 590 1004 l 460 1004 "},"À":{"ha":1157,"x_min":0,"x_max":0,"o":"m 375 190 l 297 0 l 7 0 l 422 940 l 736 940 l 1150 0 l 860 0 l 783 190 m 718 354 l 581 697 l 442 354 m 597 1004 l 347 1219 l 611 1219 l 728 1004 "},"Â":{"ha":1157,"x_min":0,"x_max":0,"o":"m 375 190 l 297 0 l 7 0 l 422 940 l 736 940 l 1150 0 l 860 0 l 783 190 m 718 354 l 581 697 l 442 354 m 701 1004 l 579 1129 l 456 1004 l 310 1004 l 433 1239 l 724 1239 l 847 1004 "},"Ä":{"ha":1157,"x_min":0,"x_max":0,"o":"m 375 190 l 297 0 l 7 0 l 422 940 l 736 940 l 1150 0 l 860 0 l 783 190 m 718 354 l 581 697 l 442 354 m 313 1097 b 406 1190 313 1147 353 1190 b 499 1097 458 1190 499 1147 b 406 1004 499 1046 458 1004 b 313 1097 353 1004 313 1047 m 658 1097 b 751 1190 658 1147 697 1190 b 844 1097 804 1190 844 1147 b 751 1004 844 1046 804 1004 b 658 1097 697 1004 658 1047 "},"Ã":{"ha":1157,"x_min":0,"x_max":0,"o":"m 375 190 l 297 0 l 7 0 l 422 940 l 736 940 l 1150 0 l 860 0 l 783 190 m 718 354 l 581 697 l 442 354 m 847 1221 b 688 1004 847 1081 783 1004 b 474 1063 618 1004 518 1063 b 418 1004 433 1063 421 1029 l 310 1004 b 468 1221 310 1161 403 1221 b 586 1192 501 1221 544 1206 b 685 1161 626 1176 665 1161 b 738 1221 722 1161 738 1196 "},"Å":{"ha":1157,"x_min":0,"x_max":0,"o":"m 375 190 l 297 0 l 7 0 l 422 940 l 736 940 l 1150 0 l 860 0 l 783 190 m 718 354 l 581 697 l 442 354 m 578 1282 b 718 1143 656 1282 718 1221 b 578 1003 718 1065 656 1003 b 439 1143 500 1003 439 1065 b 578 1282 439 1221 500 1282 m 578 1215 b 506 1143 538 1215 506 1183 b 578 1069 506 1103 538 1069 b 651 1143 618 1069 651 1103 b 578 1215 651 1183 618 1215 "},"Ç":{"ha":1032,"x_min":0,"x_max":0,"o":"m 621 -40 b 738 -157 719 -60 738 -128 b 578 -287 738 -221 683 -275 b 381 -292 539 -292 521 -293 l 381 -199 b 514 -144 440 -200 514 -197 b 449 -101 514 -108 478 -104 l 517 -8 b 57 471 156 28 57 279 b 593 953 57 792 299 953 b 956 882 751 953 881 908 l 956 632 b 657 733 903 664 797 733 b 346 467 506 733 346 643 b 642 207 346 315 482 207 b 960 308 793 207 904 274 l 960 71 b 635 -11 831 4 710 -8 "},"É":{"ha":899,"x_min":0,"x_max":0,"o":"m 826 189 l 826 0 l 118 0 l 118 940 l 815 940 l 815 751 l 401 751 l 401 579 l 796 579 l 796 390 l 401 390 l 401 189 m 468 1219 l 732 1219 l 482 1004 l 351 1004 "},"È":{"ha":899,"x_min":0,"x_max":0,"o":"m 826 189 l 826 0 l 118 0 l 118 940 l 815 940 l 815 751 l 401 751 l 401 579 l 796 579 l 796 390 l 401 390 l 401 189 m 489 1004 l 239 1219 l 503 1219 l 619 1004 "},"Ê":{"ha":899,"x_min":0,"x_max":0,"o":"m 826 189 l 826 0 l 118 0 l 118 940 l 815 940 l 815 751 l 401 751 l 401 579 l 796 579 l 796 390 l 401 390 l 401 189 m 593 1004 l 471 1129 l 347 1004 l 201 1004 l 325 1239 l 615 1239 l 739 1004 "},"Ë":{"ha":899,"x_min":0,"x_max":0,"o":"m 826 189 l 826 0 l 118 0 l 118 940 l 815 940 l 815 751 l 401 751 l 401 579 l 796 579 l 796 390 l 401 390 l 401 189 m 204 1097 b 297 1190 204 1147 244 1190 b 390 1097 350 1190 390 1147 b 297 1004 390 1046 350 1004 b 204 1097 244 1004 204 1047 m 550 1097 b 643 1190 550 1147 589 1190 b 736 1097 696 1190 736 1147 b 643 1004 736 1046 696 1004 b 550 1097 589 1004 550 1047 "},"Í":{"ha":522,"x_min":0,"x_max":0,"o":"m 403 940 l 403 0 l 119 0 l 119 940 m 260 1219 l 524 1219 l 274 1004 l 143 1004 "},"Ì":{"ha":522,"x_min":0,"x_max":0,"o":"m 403 940 l 403 0 l 119 0 l 119 940 m 281 1004 l 31 1219 l 294 1219 l 411 1004 "},"Î":{"ha":522,"x_min":0,"x_max":0,"o":"m 403 940 l 403 0 l 119 0 l 119 940 m 385 1004 l 263 1129 l 139 1004 l -7 1004 l 117 1239 l 407 1239 l 531 1004 "},"Ï":{"ha":522,"x_min":0,"x_max":0,"o":"m 403 940 l 403 0 l 119 0 l 119 940 m -4 1097 b 89 1190 -4 1147 36 1190 b 182 1097 142 1190 182 1147 b 89 1004 182 1046 142 1004 b -4 1097 36 1004 -4 1047 m 342 1097 b 435 1190 342 1147 381 1190 b 528 1097 488 1190 528 1147 b 435 1004 528 1046 488 1004 b 342 1097 381 1004 342 1047 "},"Ñ":{"ha":1257,"x_min":0,"x_max":0,"o":"m 369 940 l 856 419 l 856 940 l 1139 940 l 1139 0 l 886 0 l 399 524 l 399 0 l 118 0 l 118 940 m 897 1221 b 738 1004 897 1081 833 1004 b 524 1063 668 1004 568 1063 b 468 1004 483 1063 471 1029 l 360 1004 b 518 1221 360 1161 453 1221 b 636 1192 551 1221 594 1206 b 735 1161 676 1176 715 1161 b 788 1221 772 1161 788 1196 "},"Ó":{"ha":1182,"x_min":0,"x_max":0,"o":"m 1124 471 b 590 -12 1124 213 946 -12 b 57 471 222 -12 57 228 b 590 953 57 714 222 953 b 1124 471 949 953 1124 725 m 346 471 b 590 229 346 329 436 229 b 835 471 747 229 835 331 b 590 711 835 610 747 711 b 346 471 436 711 346 613 m 589 1219 l 853 1219 l 603 1004 l 472 1004 "},"Ò":{"ha":1182,"x_min":0,"x_max":0,"o":"m 1124 471 b 590 -12 1124 213 946 -12 b 57 471 222 -12 57 228 b 590 953 57 714 222 953 b 1124 471 949 953 1124 725 m 346 471 b 590 229 346 329 436 229 b 835 471 747 229 835 331 b 590 711 835 610 747 711 b 346 471 436 711 346 613 m 610 1004 l 360 1219 l 624 1219 l 740 1004 "},"Ô":{"ha":1182,"x_min":0,"x_max":0,"o":"m 1124 471 b 590 -12 1124 213 946 -12 b 57 471 222 -12 57 228 b 590 953 57 714 222 953 b 1124 471 949 953 1124 725 m 346 471 b 590 229 346 329 436 229 b 835 471 747 229 835 331 b 590 711 835 610 747 711 b 346 471 436 711 346 613 m 714 1004 l 592 1129 l 468 1004 l 322 1004 l 446 1239 l 736 1239 l 860 1004 "},"Ö":{"ha":1182,"x_min":0,"x_max":0,"o":"m 1124 471 b 590 -12 1124 213 946 -12 b 57 471 222 -12 57 228 b 590 953 57 714 222 953 b 1124 471 949 953 1124 725 m 346 471 b 590 229 346 329 436 229 b 835 471 747 229 835 331 b 590 711 835 610 747 711 b 346 471 436 711 346 613 m 325 1097 b 418 1190 325 1147 365 1190 b 511 1097 471 1190 511 1147 b 418 1004 511 1046 471 1004 b 325 1097 365 1004 325 1047 m 671 1097 b 764 1190 671 1147 710 1190 b 857 1097 817 1190 857 1147 b 764 1004 857 1046 817 1004 b 671 1097 710 1004 671 1047 "},"Õ":{"ha":1182,"x_min":0,"x_max":0,"o":"m 1124 471 b 590 -12 1124 213 946 -12 b 57 471 222 -12 57 228 b 590 953 57 714 222 953 b 1124 471 949 953 1124 725 m 346 471 b 590 229 346 329 436 229 b 835 471 747 229 835 331 b 590 711 835 610 747 711 b 346 471 436 711 346 613 m 860 1221 b 700 1004 860 1081 796 1004 b 486 1063 631 1004 531 1063 b 431 1004 446 1063 433 1029 l 322 1004 b 481 1221 322 1161 415 1221 b 599 1192 514 1221 557 1206 b 697 1161 639 1176 678 1161 b 750 1221 735 1161 750 1196 "},"Š":{"ha":850,"x_min":0,"x_max":0,"o":"m 735 653 b 454 760 681 690 575 760 b 354 689 376 760 354 722 b 463 592 354 650 383 629 b 775 274 650 503 775 438 b 419 -12 775 94 626 -12 b 89 63 393 -12 261 -12 l 89 293 b 376 190 142 260 251 190 b 492 260 489 190 492 250 b 349 378 492 315 425 346 b 81 681 217 433 81 513 b 419 953 81 826 188 953 b 735 874 596 953 715 886 m 303 1239 l 426 1113 l 549 1239 l 694 1239 l 571 1004 l 281 1004 l 157 1239 "},"Ú":{"ha":1201,"x_min":0,"x_max":0,"o":"m 388 940 l 388 494 b 601 224 388 300 478 224 b 814 493 722 224 814 299 l 814 940 l 1097 940 l 1097 421 b 601 -12 1097 82 811 -12 b 104 421 392 -12 104 82 l 104 940 m 599 1219 l 863 1219 l 613 1004 l 482 1004 "},"Ù":{"ha":1201,"x_min":0,"x_max":0,"o":"m 388 940 l 388 494 b 601 224 388 300 478 224 b 814 493 722 224 814 299 l 814 940 l 1097 940 l 1097 421 b 601 -12 1097 82 811 -12 b 104 421 392 -12 104 82 l 104 940 m 619 1004 l 369 1219 l 633 1219 l 750 1004 "},"Û":{"ha":1201,"x_min":0,"x_max":0,"o":"m 388 940 l 388 494 b 601 224 388 300 478 224 b 814 493 722 224 814 299 l 814 940 l 1097 940 l 1097 421 b 601 -12 1097 82 811 -12 b 104 421 392 -12 104 82 l 104 940 m 724 1004 l 601 1129 l 478 1004 l 332 1004 l 456 1239 l 746 1239 l 869 1004 "},"Ü":{"ha":1201,"x_min":0,"x_max":0,"o":"m 388 940 l 388 494 b 601 224 388 300 478 224 b 814 493 722 224 814 299 l 814 940 l 1097 940 l 1097 421 b 601 -12 1097 82 811 -12 b 104 421 392 -12 104 82 l 104 940 m 335 1097 b 428 1190 335 1147 375 1190 b 521 1097 481 1190 521 1147 b 428 1004 521 1046 481 1004 b 335 1097 375 1004 335 1047 m 681 1097 b 774 1190 681 1147 719 1190 b 867 1097 826 1190 867 1147 b 774 1004 867 1046 826 1004 b 681 1097 719 1004 681 1047 "},"Ý":{"ha":1043,"x_min":0,"x_max":0,"o":"m 303 940 l 518 644 l 735 940 l 1035 940 l 667 431 l 667 0 l 383 0 l 383 425 l 8 940 m 519 1219 l 783 1219 l 533 1004 l 403 1004 "},"Ÿ":{"ha":1043,"x_min":0,"x_max":0,"o":"m 303 940 l 518 644 l 735 940 l 1035 940 l 667 431 l 667 0 l 383 0 l 383 425 l 8 940 m 256 1097 b 349 1190 256 1147 296 1190 b 442 1097 401 1190 442 1147 b 349 1004 442 1046 401 1004 b 256 1097 296 1004 256 1047 m 601 1097 b 694 1190 601 1147 640 1190 b 788 1097 747 1190 788 1147 b 694 1004 788 1046 747 1004 b 601 1097 640 1004 601 1047 "},"Ž":{"ha":1013,"x_min":0,"x_max":0,"o":"m 26 0 l 513 715 l 67 715 l 67 940 l 981 940 l 496 225 l 981 225 l 981 0 m 383 1239 l 507 1113 l 629 1239 l 775 1239 l 651 1004 l 361 1004 l 238 1239 "},"á":{"ha":793,"x_min":0,"x_max":0,"o":"m 72 608 b 397 703 164 674 279 703 b 699 485 603 703 699 617 l 699 218 b 732 143 699 169 706 143 b 794 163 756 143 782 157 l 794 35 b 586 -12 746 15 682 -12 b 468 61 493 -12 476 36 b 254 -12 431 31 374 -12 b 49 161 92 -12 49 86 b 311 390 49 296 161 343 b 454 440 417 424 428 426 b 346 547 454 492 446 547 b 72 421 228 547 133 482 m 454 331 b 288 190 358 290 288 261 b 354 119 288 140 322 119 b 454 167 393 119 436 153 m 394 997 l 658 997 l 408 782 l 278 782 "},"à":{"ha":793,"x_min":0,"x_max":0,"o":"m 72 608 b 397 703 164 674 279 703 b 699 485 603 703 699 617 l 699 218 b 732 143 699 169 706 143 b 794 163 756 143 782 157 l 794 35 b 586 -12 746 15 682 -12 b 468 61 493 -12 476 36 b 254 -12 431 31 374 -12 b 49 161 92 -12 49 86 b 311 390 49 296 161 343 b 454 440 417 424 428 426 b 346 547 454 492 446 547 b 72 421 228 547 133 482 m 454 331 b 288 190 358 290 288 261 b 354 119 288 140 322 119 b 454 167 393 119 436 153 m 415 782 l 165 997 l 429 997 l 546 782 "},"â":{"ha":793,"x_min":0,"x_max":0,"o":"m 72 608 b 397 703 164 674 279 703 b 699 485 603 703 699 617 l 699 218 b 732 143 699 169 706 143 b 794 163 756 143 782 157 l 794 35 b 586 -12 746 15 682 -12 b 468 61 493 -12 476 36 b 254 -12 431 31 374 -12 b 49 161 92 -12 49 86 b 311 390 49 296 161 343 b 454 440 417 424 428 426 b 346 547 454 492 446 547 b 72 421 228 547 133 482 m 454 331 b 288 190 358 290 288 261 b 354 119 288 140 322 119 b 454 167 393 119 436 153 m 506 782 l 383 907 l 260 782 l 114 782 l 238 1017 l 528 1017 l 651 782 "},"ä":{"ha":793,"x_min":0,"x_max":0,"o":"m 72 608 b 397 703 164 674 279 703 b 699 485 603 703 699 617 l 699 218 b 732 143 699 169 706 143 b 794 163 756 143 782 157 l 794 35 b 586 -12 746 15 682 -12 b 468 61 493 -12 476 36 b 254 -12 431 31 374 -12 b 49 161 92 -12 49 86 b 311 390 49 296 161 343 b 454 440 417 424 428 426 b 346 547 454 492 446 547 b 72 421 228 547 133 482 m 454 331 b 288 190 358 290 288 261 b 354 119 288 140 322 119 b 454 167 393 119 436 153 m 131 875 b 224 968 131 925 171 968 b 317 875 276 968 317 925 b 224 782 317 824 276 782 b 131 875 171 782 131 825 m 476 875 b 569 968 476 925 515 968 b 663 875 622 968 663 925 b 569 782 663 824 622 782 b 476 875 515 782 476 825 "},"ã":{"ha":793,"x_min":0,"x_max":0,"o":"m 72 608 b 397 703 164 674 279 703 b 699 485 603 703 699 617 l 699 218 b 732 143 699 169 706 143 b 794 163 756 143 782 157 l 794 35 b 586 -12 746 15 682 -12 b 468 61 493 -12 476 36 b 254 -12 431 31 374 -12 b 49 161 92 -12 49 86 b 311 390 49 296 161 343 b 454 440 417 424 428 426 b 346 547 454 492 446 547 b 72 421 228 547 133 482 m 454 331 b 288 190 358 290 288 261 b 354 119 288 140 322 119 b 454 167 393 119 436 153 m 665 999 b 506 782 665 858 601 782 b 292 840 436 782 336 840 b 236 782 251 840 239 807 l 128 782 b 286 999 128 939 221 999 b 404 969 319 999 363 983 b 503 939 444 954 483 939 b 556 999 540 939 556 974 "},"å":{"ha":793,"x_min":0,"x_max":0,"o":"m 72 608 b 397 703 164 674 279 703 b 699 485 603 703 699 617 l 699 218 b 732 143 699 169 706 143 b 794 163 756 143 782 157 l 794 35 b 586 -12 746 15 682 -12 b 468 61 493 -12 476 36 b 254 -12 431 31 374 -12 b 49 161 92 -12 49 86 b 311 390 49 296 161 343 b 454 440 417 424 428 426 b 346 547 454 492 446 547 b 72 421 228 547 133 482 m 454 331 b 288 190 358 290 288 261 b 354 119 288 140 322 119 b 454 167 393 119 436 153 m 396 1060 b 536 921 474 1060 536 999 b 396 781 536 843 474 781 b 257 921 318 781 257 843 b 396 1060 257 999 318 1060 m 396 993 b 324 921 356 993 324 961 b 396 847 324 881 356 847 b 469 921 436 847 469 881 b 396 993 469 961 436 993 "},"ç":{"ha":710,"x_min":0,"x_max":0,"o":"m 460 -40 b 575 -157 558 -60 575 -128 b 360 -292 575 -237 501 -292 l 218 -292 l 218 -199 b 353 -144 281 -199 353 -197 b 288 -101 353 -106 310 -104 l 357 -7 b 49 347 106 28 49 242 b 436 703 49 453 107 703 b 658 663 546 703 604 682 l 658 471 b 472 508 614 485 529 508 b 306 347 399 508 306 467 b 472 182 306 229 399 182 b 669 224 529 182 611 206 l 669 32 b 474 -11 614 13 576 -3 "},"é":{"ha":828,"x_min":0,"x_max":0,"o":"m 786 286 l 300 286 b 496 143 318 200 403 143 b 768 213 589 143 682 172 l 768 61 b 444 -12 732 42 628 -12 b 49 349 181 -12 49 149 b 444 703 49 549 181 703 b 786 335 599 703 786 613 m 557 407 b 429 553 557 494 511 553 b 293 407 350 553 293 494 m 413 997 l 676 997 l 426 782 l 296 782 "},"è":{"ha":828,"x_min":0,"x_max":0,"o":"m 786 286 l 300 286 b 496 143 318 200 403 143 b 768 213 589 143 682 172 l 768 61 b 444 -12 732 42 628 -12 b 49 349 181 -12 49 149 b 444 703 49 549 181 703 b 786 335 599 703 786 613 m 557 407 b 429 553 557 494 511 553 b 293 407 350 553 293 494 m 433 782 l 183 997 l 447 997 l 564 782 "},"ê":{"ha":828,"x_min":0,"x_max":0,"o":"m 786 286 l 300 286 b 496 143 318 200 403 143 b 768 213 589 143 682 172 l 768 61 b 444 -12 732 42 628 -12 b 49 349 181 -12 49 149 b 444 703 49 549 181 703 b 786 335 599 703 786 613 m 557 407 b 429 553 557 494 511 553 b 293 407 350 553 293 494 m 538 782 l 415 907 l 292 782 l 146 782 l 269 1017 l 560 1017 l 683 782 "},"ë":{"ha":828,"x_min":0,"x_max":0,"o":"m 786 286 l 300 286 b 496 143 318 200 403 143 b 768 213 589 143 682 172 l 768 61 b 444 -12 732 42 628 -12 b 49 349 181 -12 49 149 b 444 703 49 549 181 703 b 786 335 599 703 786 613 m 557 407 b 429 553 557 494 511 553 b 293 407 350 553 293 494 m 149 875 b 242 968 149 925 189 968 b 335 875 294 968 335 925 b 242 782 335 824 294 782 b 149 875 189 782 149 825 m 494 875 b 588 968 494 925 533 968 b 681 875 640 968 681 925 b 588 782 681 824 640 782 b 494 875 533 782 494 825 "},"í":{"ha":425,"x_min":0,"x_max":0,"o":"m 335 690 l 335 0 l 90 0 l 90 690 m 197 997 l 461 997 l 211 782 l 81 782 "},"ì":{"ha":425,"x_min":0,"x_max":0,"o":"m 335 690 l 335 0 l 90 0 l 90 690 m 232 782 l -18 997 l 246 997 l 363 782 "},"î":{"ha":425,"x_min":0,"x_max":0,"o":"m 335 690 l 335 0 l 90 0 l 90 690 m 336 782 l 214 907 l 90 782 l -56 782 l 68 1017 l 358 1017 l 482 782 "},"ï":{"ha":425,"x_min":0,"x_max":0,"o":"m 335 690 l 335 0 l 90 0 l 90 690 m -53 875 b 40 968 -53 925 -12 968 b 133 875 93 968 133 925 b 40 782 133 824 93 782 b -53 875 -12 782 -53 825 m 293 875 b 386 968 293 925 332 968 b 479 875 439 968 479 925 b 386 782 479 824 439 782 b 293 875 332 782 293 825 "},"ñ":{"ha":883,"x_min":0,"x_max":0,"o":"m 322 690 l 322 592 b 567 703 400 675 476 703 b 815 406 824 703 815 468 l 815 0 l 571 0 l 571 358 b 471 514 571 403 576 514 b 322 406 389 514 344 435 l 322 0 l 78 0 l 78 690 m 711 999 b 551 782 711 858 647 782 b 338 840 482 782 382 840 b 282 782 297 840 285 807 l 174 782 b 332 999 174 939 267 999 b 450 969 365 999 408 983 b 549 939 490 954 529 939 b 601 999 586 939 601 974 "},"ó":{"ha":889,"x_min":0,"x_max":0,"o":"m 444 703 b 840 346 708 703 840 547 b 444 -12 840 144 708 -12 b 49 346 181 -12 49 144 b 444 703 49 547 181 703 m 444 521 b 306 346 353 521 306 451 b 444 169 306 240 353 169 b 583 346 536 169 583 240 b 444 521 583 451 536 521 m 443 997 l 707 997 l 457 782 l 326 782 "},"ò":{"ha":889,"x_min":0,"x_max":0,"o":"m 444 703 b 840 346 708 703 840 547 b 444 -12 840 144 708 -12 b 49 346 181 -12 49 144 b 444 703 49 547 181 703 m 444 521 b 306 346 353 521 306 451 b 444 169 306 240 353 169 b 583 346 536 169 583 240 b 444 521 583 451 536 521 m 464 782 l 214 997 l 478 997 l 594 782 "},"ô":{"ha":889,"x_min":0,"x_max":0,"o":"m 444 703 b 840 346 708 703 840 547 b 444 -12 840 144 708 -12 b 49 346 181 -12 49 144 b 444 703 49 547 181 703 m 444 521 b 306 346 353 521 306 451 b 444 169 306 240 353 169 b 583 346 536 169 583 240 b 444 521 583 451 536 521 m 568 782 l 446 907 l 322 782 l 176 782 l 300 1017 l 590 1017 l 714 782 "},"ö":{"ha":889,"x_min":0,"x_max":0,"o":"m 444 703 b 840 346 708 703 840 547 b 444 -12 840 144 708 -12 b 49 346 181 -12 49 144 b 444 703 49 547 181 703 m 444 521 b 306 346 353 521 306 451 b 444 169 306 240 353 169 b 583 346 536 169 583 240 b 444 521 583 451 536 521 m 179 875 b 272 968 179 925 219 968 b 365 875 325 968 365 925 b 272 782 365 824 325 782 b 179 875 219 782 179 825 m 525 875 b 618 968 525 925 564 968 b 711 875 671 968 711 925 b 618 782 711 824 671 782 b 525 875 564 782 525 825 "},"õ":{"ha":889,"x_min":0,"x_max":0,"o":"m 444 703 b 840 346 708 703 840 547 b 444 -12 840 144 708 -12 b 49 346 181 -12 49 144 b 444 703 49 547 181 703 m 444 521 b 306 346 353 521 306 451 b 444 169 306 240 353 169 b 583 346 536 169 583 240 b 444 521 583 451 536 521 m 714 999 b 554 782 714 858 650 782 b 340 840 485 782 385 840 b 285 782 300 840 288 807 l 176 782 b 335 999 176 939 269 999 b 453 969 368 999 411 983 b 551 939 493 954 532 939 b 604 999 589 939 604 974 "},"š":{"ha":672,"x_min":0,"x_max":0,"o":"m 582 478 b 382 547 554 493 479 547 b 308 499 318 547 308 511 b 397 431 308 479 314 463 b 618 201 563 367 618 307 b 342 -12 618 83 533 -12 b 75 42 228 -12 146 15 l 75 215 b 282 143 125 186 197 143 b 374 193 326 143 374 154 b 226 293 374 228 336 246 b 64 496 153 325 64 389 b 344 703 64 593 153 703 b 582 647 361 703 474 703 m 214 1017 l 338 890 l 460 1017 l 606 1017 l 482 782 l 192 782 l 68 1017 "},"ú":{"ha":883,"x_min":0,"x_max":0,"o":"m 561 0 l 561 99 b 317 -12 497 29 426 -12 b 68 285 60 -12 68 222 l 68 690 l 313 690 l 313 332 b 413 176 313 288 307 176 b 561 285 496 176 543 258 l 561 690 l 806 690 l 806 0 m 454 997 l 718 997 l 468 782 l 338 782 "},"ù":{"ha":883,"x_min":0,"x_max":0,"o":"m 561 0 l 561 99 b 317 -12 497 29 426 -12 b 68 285 60 -12 68 222 l 68 690 l 313 690 l 313 332 b 413 176 313 288 307 176 b 561 285 496 176 543 258 l 561 690 l 806 690 l 806 0 m 461 782 l 211 997 l 475 997 l 592 782 "},"û":{"ha":883,"x_min":0,"x_max":0,"o":"m 561 0 l 561 99 b 317 -12 497 29 426 -12 b 68 285 60 -12 68 222 l 68 690 l 313 690 l 313 332 b 413 176 313 288 307 176 b 561 285 496 176 543 258 l 561 690 l 806 690 l 806 0 m 565 782 l 443 907 l 319 782 l 174 782 l 297 1017 l 588 1017 l 711 782 "},"ü":{"ha":883,"x_min":0,"x_max":0,"o":"m 561 0 l 561 99 b 317 -12 497 29 426 -12 b 68 285 60 -12 68 222 l 68 690 l 313 690 l 313 332 b 413 176 313 288 307 176 b 561 285 496 176 543 258 l 561 690 l 806 690 l 806 0 m 176 875 b 269 968 176 925 217 968 b 363 875 322 968 363 925 b 269 782 363 824 322 782 b 176 875 217 782 176 825 m 522 875 b 615 968 522 925 561 968 b 708 875 668 968 708 925 b 615 782 708 824 668 782 b 522 875 561 782 522 825 "},"ý":{"ha":810,"x_min":0,"x_max":0,"o":"m 281 690 l 421 347 l 581 690 l 818 690 l 349 -314 l 101 -314 l 292 90 l 18 690 m 403 997 l 667 997 l 417 782 l 286 782 "},"ÿ":{"ha":810,"x_min":0,"x_max":0,"o":"m 281 690 l 421 347 l 581 690 l 818 690 l 349 -314 l 101 -314 l 292 90 l 18 690 m 139 875 b 232 968 139 925 179 968 b 325 875 285 968 325 925 b 232 782 325 824 285 782 b 139 875 179 782 139 825 m 485 875 b 578 968 485 925 524 968 b 671 875 631 968 671 925 b 578 782 671 824 631 782 b 485 875 524 782 485 825 "},"ž":{"ha":767,"x_min":0,"x_max":0,"o":"m 47 690 l 735 690 l 735 668 l 404 181 l 728 181 l 728 0 l 19 0 l 19 22 l 350 510 l 47 510 m 261 1017 l 385 890 l 507 1017 l 653 1017 l 529 782 l 239 782 l 115 1017 "},"€":{"ha":864,"x_min":0,"x_max":0,"o":"m 707 314 l 383 314 b 558 188 415 240 474 188 b 815 275 681 188 771 240 l 815 57 b 515 -12 715 -7 615 -12 b 104 314 300 -12 153 114 l 3 314 l 19 431 l 88 431 b 86 471 86 444 86 457 b 86 507 86 483 86 496 l 3 507 l 19 624 l 103 624 b 519 953 156 849 329 953 b 813 896 647 953 751 922 l 813 667 b 571 754 769 699 685 754 b 386 624 488 754 422 704 l 743 624 l 726 507 l 357 507 b 356 467 356 494 356 481 b 357 431 356 454 356 443 l 724 431 "},"⅛":{"ha":1128,"x_min":0,"x_max":0,"o":"m 161 463 l 161 940 l 331 940 l 331 463 m 922 953 l 279 -33 l 139 -33 l 782 953 m 743 247 b 667 353 697 271 667 300 b 881 490 667 413 722 490 b 1096 353 1042 490 1096 414 b 1018 247 1096 300 1065 271 b 1111 132 1076 228 1111 185 b 881 -7 1111 85 1075 -7 b 650 132 689 -7 650 82 b 743 247 650 185 685 228 m 881 289 b 931 342 908 289 931 310 b 881 394 931 365 917 394 b 832 342 844 394 832 368 b 881 289 832 310 854 289 m 881 88 b 940 146 911 88 940 110 b 881 206 940 186 913 206 b 821 146 850 206 821 186 b 881 88 821 107 851 88 "},"⅜":{"ha":1128,"x_min":0,"x_max":0,"o":"m 922 953 l 279 -33 l 139 -33 l 782 953 m 743 247 b 667 353 697 271 667 300 b 881 490 667 413 722 490 b 1096 353 1042 490 1096 414 b 1018 247 1096 300 1065 271 b 1111 132 1076 228 1111 185 b 881 -7 1111 85 1075 -7 b 650 132 689 -7 650 82 b 743 247 650 185 685 228 m 881 289 b 931 342 908 289 931 310 b 881 394 931 365 917 394 b 832 342 844 394 832 368 b 881 289 832 310 854 289 m 881 88 b 940 146 911 88 940 110 b 881 206 940 186 913 206 b 821 146 850 206 821 186 b 881 88 821 107 851 88 m 53 621 b 189 567 99 586 138 567 b 261 611 225 567 261 582 b 149 664 261 657 200 664 l 149 758 b 251 803 194 758 251 758 b 186 847 251 822 231 847 b 68 808 171 847 129 844 l 68 921 b 228 953 92 929 164 953 b 421 819 361 953 421 878 b 358 715 421 782 403 747 b 431 600 408 686 431 647 b 232 456 431 507 340 456 b 53 492 165 456 90 476 "},"⅝":{"ha":1128,"x_min":0,"x_max":0,"o":"m 922 953 l 279 -33 l 139 -33 l 782 953 m 743 247 b 667 353 697 271 667 300 b 881 490 667 413 722 490 b 1096 353 1042 490 1096 414 b 1018 247 1096 300 1065 271 b 1111 132 1076 228 1111 185 b 881 -7 1111 85 1075 -7 b 650 132 689 -7 650 82 b 743 247 650 185 685 228 m 881 289 b 931 342 908 289 931 310 b 881 394 931 365 917 394 b 832 342 844 394 832 368 b 881 289 832 310 854 289 m 881 88 b 940 146 911 88 940 110 b 881 206 940 186 913 206 b 821 146 850 206 821 186 b 881 88 821 107 851 88 m 444 822 l 254 822 l 246 753 b 292 751 261 753 275 753 b 449 613 393 743 449 681 b 238 456 449 525 376 456 b 57 493 174 456 113 468 l 57 606 b 193 571 88 592 146 571 b 274 621 247 571 274 590 b 169 678 274 651 246 678 b 90 665 132 678 108 671 l 119 940 l 444 940 "},"⅞":{"ha":1128,"x_min":0,"x_max":0,"o":"m 922 953 l 279 -33 l 139 -33 l 782 953 m 743 247 b 667 353 697 271 667 300 b 881 490 667 413 722 490 b 1096 353 1042 490 1096 414 b 1018 247 1096 300 1065 271 b 1111 132 1076 228 1111 185 b 881 -7 1111 85 1075 -7 b 650 132 689 -7 650 82 b 743 247 650 185 685 228 m 881 289 b 931 342 908 289 931 310 b 881 394 931 365 917 394 b 832 342 844 394 832 368 b 881 289 832 310 854 289 m 881 88 b 940 146 911 88 940 110 b 881 206 940 186 913 206 b 821 146 850 206 821 186 b 881 88 821 107 851 88 m 63 488 l 228 808 l 33 808 l 33 940 l 474 940 l 474 928 l 226 458 "},"⅓":{"ha":1128,"x_min":0,"x_max":0,"o":"m 161 463 l 161 940 l 331 940 l 331 463 m 922 953 l 279 -33 l 139 -33 l 782 953 m 688 158 b 824 104 733 124 772 104 b 896 149 860 104 896 119 b 783 201 896 194 835 201 l 783 296 b 886 340 829 296 886 296 b 821 385 886 360 865 385 b 703 346 806 385 764 382 l 703 458 b 863 490 726 467 799 490 b 1056 357 996 490 1056 415 b 993 253 1056 319 1038 285 b 1065 138 1043 224 1065 185 b 867 -7 1065 44 975 -7 b 688 29 800 -7 725 14 "},"⅔":{"ha":1128,"x_min":0,"x_max":0,"o":"m 922 953 l 279 -33 l 139 -33 l 782 953 m 688 158 b 824 104 733 124 772 104 b 896 149 860 104 896 119 b 783 201 896 194 835 201 l 783 296 b 886 340 829 296 886 296 b 821 385 886 360 865 385 b 703 346 806 385 764 382 l 703 458 b 863 490 726 467 799 490 b 1056 357 996 490 1056 415 b 993 253 1056 319 1038 285 b 1065 138 1043 224 1065 185 b 867 -7 1065 44 975 -7 b 688 29 800 -7 725 14 m 465 463 l 28 463 l 28 486 b 154 603 72 522 114 563 b 260 768 213 661 260 713 b 189 829 260 804 233 829 b 46 761 122 829 63 776 l 46 897 b 233 953 92 922 150 953 b 424 800 367 953 424 876 b 300 588 424 721 374 667 l 465 588 "},"":{"ha":793,"x_min":0,"x_max":0,"o":"m 804 0 l 539 0 l 494 49 b 294 -10 443 24 386 -10 b 43 194 97 -10 43 110 b 190 386 43 265 74 331 b 115 544 154 429 115 465 b 374 749 115 613 181 749 b 606 561 543 749 606 647 b 447 378 606 457 475 394 l 531 290 b 599 399 565 314 588 360 l 815 399 b 647 169 771 310 736 244 m 368 463 b 431 549 436 501 431 532 b 371 597 431 572 413 597 b 313 544 331 597 313 574 b 368 463 313 513 339 489 m 288 275 b 238 208 247 247 238 229 b 310 153 238 179 256 153 b 382 172 338 153 356 157 "},"":{"ha":796,"x_min":0,"x_max":0,"o":"m 36 353 b 401 724 36 576 204 724 b 760 357 607 724 760 583 b 400 -12 760 107 579 -12 b 36 353 207 -12 36 121 m 399 499 b 281 357 314 499 281 433 b 397 213 281 285 313 213 b 515 360 474 213 515 271 b 399 499 515 435 479 499 "},"":{"ha":651,"x_min":0,"x_max":0,"o":"m 276 0 l 276 404 l 85 233 l 85 506 l 322 724 l 521 724 l 521 0 "},"":{"ha":796,"x_min":0,"x_max":0,"o":"m 732 208 l 732 0 l 49 0 l 49 49 l 243 189 b 458 433 372 282 458 356 b 343 513 458 468 444 513 b 72 406 258 513 167 464 l 72 636 b 426 724 204 693 297 724 b 706 493 640 724 706 614 b 549 208 706 400 674 332 "},"":{"ha":722,"x_min":0,"x_max":0,"o":"m 701 711 l 496 278 b 689 11 633 240 689 106 b 296 -325 689 -175 522 -325 b 42 -268 185 -325 106 -293 l 42 -32 b 278 -114 111 -79 176 -114 b 444 13 365 -114 444 -82 b 271 151 444 88 386 151 b 169 139 221 151 186 143 l 346 503 l 47 503 l 47 711 "},"":{"ha":821,"x_min":0,"x_max":0,"o":"m 697 0 l 697 -325 l 467 -325 l 467 0 l 7 0 l 7 161 l 525 724 l 697 724 l 697 161 l 813 161 l 813 0 m 467 161 l 467 406 l 244 161 "},"":{"ha":708,"x_min":0,"x_max":0,"o":"m 694 503 l 376 503 l 342 324 b 667 19 663 292 667 58 b 271 -325 667 -126 582 -325 b 21 -275 164 -325 92 -299 l 21 -40 b 278 -114 110 -83 185 -114 b 422 -11 368 -114 422 -78 b 208 121 422 26 399 121 b 78 113 190 121 128 121 l 174 711 l 694 711 "},"":{"ha":790,"x_min":0,"x_max":0,"o":"m 636 879 b 394 624 519 776 421 679 b 464 631 414 628 438 631 b 763 325 608 631 763 517 b 400 -12 763 151 621 -12 b 28 360 196 -12 28 128 b 408 960 28 608 218 819 m 518 331 b 397 457 518 381 492 457 b 272 329 331 457 272 400 b 392 199 272 260 319 199 b 518 331 460 199 518 246 "},"":{"ha":767,"x_min":0,"x_max":0,"o":"m 136 -174 l 425 503 l 44 503 l 44 711 l 757 711 l 757 682 l 356 -243 "},"":{"ha":789,"x_min":0,"x_max":0,"o":"m 179 485 b 60 686 131 507 60 583 b 396 953 60 785 126 953 b 731 686 644 953 731 797 b 611 485 731 575 660 510 b 761 253 733 424 761 318 b 394 -12 761 133 679 -12 b 28 253 97 -12 28 149 b 179 485 28 328 61 419 m 394 550 b 493 668 456 550 493 603 b 397 786 493 717 469 786 b 297 668 319 786 297 719 b 394 550 297 621 322 550 m 394 175 b 517 293 463 175 517 225 b 394 411 517 361 463 411 b 272 293 326 411 272 361 b 394 175 272 225 326 175 "},"":{"ha":790,"x_min":0,"x_max":0,"o":"m 154 -168 b 396 88 254 -81 324 -19 b 333 81 376 85 360 81 b 28 386 172 81 28 204 b 390 724 28 560 169 724 b 763 351 639 724 763 540 b 382 -249 763 135 607 -89 m 272 381 b 393 254 272 331 299 254 b 518 382 474 254 518 325 b 399 513 518 451 471 513 b 272 381 331 513 272 465 "},"ﬀ":{"ha":960,"x_min":0,"x_max":0,"o":"m 814 489 l 814 0 l 569 0 l 569 489 l 367 489 l 367 0 l 122 0 l 122 489 l 10 489 l 10 654 l 122 654 l 122 667 b 418 953 122 797 189 953 b 540 940 468 953 511 946 l 540 765 b 450 778 514 771 479 778 b 367 679 399 778 367 743 l 367 654 l 569 654 l 569 667 b 865 953 569 797 636 953 b 988 940 915 953 958 946 l 988 765 b 897 778 961 771 926 778 b 814 679 846 778 814 743 l 814 654 l 938 654 l 938 489 "},"ﬃ":{"ha":1351,"x_min":0,"x_max":0,"o":"m 814 489 l 814 0 l 569 0 l 569 489 l 367 489 l 367 0 l 122 0 l 122 489 l 10 489 l 10 654 l 122 654 l 122 667 b 418 953 122 797 189 953 b 540 940 468 953 511 946 l 540 765 b 450 778 514 771 479 778 b 367 679 399 778 367 743 l 367 654 l 569 654 l 569 667 b 865 953 569 792 629 953 b 967 942 915 953 938 947 l 967 771 b 897 778 950 774 926 778 b 814 679 846 778 814 743 l 814 654 l 938 654 l 938 489 m 1261 690 l 1261 0 l 1017 0 l 1017 690 m 1139 953 b 1242 850 1196 953 1242 907 b 1139 747 1242 793 1196 747 b 1036 850 1082 747 1036 793 b 1139 953 1036 907 1082 953 "},"ﬄ":{"ha":1351,"x_min":0,"x_max":0,"o":"m 814 489 l 814 0 l 569 0 l 569 489 l 367 489 l 367 0 l 122 0 l 122 489 l 10 489 l 10 654 l 122 654 l 122 667 b 418 953 122 797 189 953 b 540 940 468 953 511 946 l 540 765 b 450 778 514 771 479 778 b 367 679 399 778 367 743 l 367 654 l 569 654 l 569 667 b 865 953 569 825 657 953 b 967 942 915 953 942 947 l 967 771 b 897 778 950 774 926 778 b 814 679 846 778 814 743 l 814 654 l 938 654 l 938 489 m 1261 940 l 1261 0 l 1017 0 l 1017 940 "},"":{"ha":876,"x_min":0,"x_max":0,"o":"m 596 0 l 558 101 l 286 101 l 258 0 l 3 0 l 281 739 l 550 739 l 874 0 m 406 493 l 329 251 l 504 251 "},"":{"ha":825,"x_min":0,"x_max":0,"o":"m 81 739 l 454 739 b 736 551 700 739 736 639 b 647 404 736 457 676 422 b 778 224 717 382 778 335 b 486 0 778 107 708 0 l 81 0 m 322 158 l 418 158 b 533 226 469 158 533 158 b 439 303 533 293 479 303 l 322 303 m 318 581 l 318 449 l 403 449 b 492 515 444 449 492 454 b 401 581 492 581 443 581 "},"":{"ha":825,"x_min":0,"x_max":0,"o":"m 756 469 b 500 561 715 503 644 561 b 299 369 372 561 299 474 b 493 178 299 246 393 178 b 764 269 592 178 678 224 l 764 71 b 478 -10 696 31 615 -10 b 47 368 190 -10 47 178 b 506 749 47 575 201 749 b 756 690 642 749 718 711 "},"":{"ha":863,"x_min":0,"x_max":0,"o":"m 81 739 l 394 739 b 815 368 753 739 815 482 b 393 0 815 243 749 0 l 81 0 m 322 188 l 400 188 b 564 368 510 188 564 274 b 400 551 564 490 494 551 l 322 551 "},"":{"ha":713,"x_min":0,"x_max":0,"o":"m 649 569 l 322 569 l 322 458 l 633 458 l 633 299 l 322 299 l 322 169 l 657 169 l 657 0 l 81 0 l 81 739 l 649 739 "},"":{"ha":678,"x_min":0,"x_max":0,"o":"m 622 569 l 322 569 l 322 426 l 622 426 l 622 257 l 322 257 l 322 0 l 81 0 l 81 739 l 622 739 "},"":{"ha":874,"x_min":0,"x_max":0,"o":"m 786 501 b 506 561 719 526 621 561 b 299 365 378 561 299 485 b 488 178 299 239 378 178 b 563 188 515 178 532 179 l 563 271 l 471 271 l 471 410 l 804 410 l 804 89 b 482 -10 753 47 642 -10 b 47 368 228 -10 47 143 b 508 749 47 569 193 749 b 786 697 617 749 689 728 "},"":{"ha":911,"x_min":0,"x_max":0,"o":"m 322 739 l 322 468 l 589 468 l 589 739 l 831 739 l 831 0 l 589 0 l 589 271 l 322 271 l 322 0 l 81 0 l 81 739 "},"":{"ha":403,"x_min":0,"x_max":0,"o":"m 322 0 l 81 0 l 81 739 l 322 739 "},"":{"ha":422,"x_min":0,"x_max":0,"o":"m 100 739 l 342 739 l 342 111 b 63 -246 342 -76 301 -246 b -35 -236 24 -246 -1 -242 l -61 -46 l -19 -46 b 100 129 103 -46 100 -7 "},"":{"ha":863,"x_min":0,"x_max":0,"o":"m 322 739 l 322 469 l 528 739 l 788 739 l 539 404 l 863 0 l 560 0 l 322 296 l 322 0 l 81 0 l 81 739 "},"":{"ha":700,"x_min":0,"x_max":0,"o":"m 322 739 l 322 197 l 675 197 l 675 0 l 81 0 l 81 739 "},"":{"ha":1014,"x_min":0,"x_max":0,"o":"m 760 739 l 933 739 l 933 0 l 692 0 l 692 364 l 518 163 l 494 163 l 317 364 l 317 0 l 81 0 l 81 739 l 253 739 l 507 461 "},"":{"ha":904,"x_min":0,"x_max":0,"o":"m 294 739 l 582 400 l 582 739 l 824 739 l 824 0 l 625 0 l 322 363 l 322 0 l 81 0 l 81 739 "},"":{"ha":926,"x_min":0,"x_max":0,"o":"m 47 368 b 461 749 47 561 217 749 b 879 371 669 749 879 600 b 463 -10 879 164 704 -10 b 47 368 238 -10 47 146 m 463 533 b 299 369 372 533 299 460 b 463 206 299 279 372 206 b 628 369 553 206 628 279 b 463 533 628 460 553 533 "},"":{"ha":774,"x_min":0,"x_max":0,"o":"m 81 739 l 482 739 b 738 501 654 739 738 604 b 482 254 738 382 654 254 l 322 254 l 322 0 l 81 0 m 322 421 l 400 421 b 496 500 432 421 496 421 b 400 572 496 572 432 572 l 322 572 "},"":{"ha":926,"x_min":0,"x_max":0,"o":"m 732 -190 b 319 14 483 -132 415 -71 b 47 365 169 61 47 190 b 461 749 47 553 207 749 b 879 371 669 749 879 600 b 661 35 879 222 797 101 b 896 -50 701 -1 846 -36 m 463 533 b 299 369 372 533 299 460 b 463 206 299 279 372 206 b 628 369 553 206 628 279 b 463 533 628 460 553 533 "},"":{"ha":813,"x_min":0,"x_max":0,"o":"m 81 739 l 432 739 b 750 508 696 739 750 622 b 653 318 750 446 722 364 b 742 163 683 296 703 261 b 807 0 767 99 774 79 l 547 0 b 476 210 529 65 493 179 b 403 258 456 249 436 258 l 322 258 l 322 0 l 81 0 m 322 404 l 394 404 b 499 489 460 404 499 438 b 396 572 499 540 460 572 l 322 572 "},"":{"ha":681,"x_min":0,"x_max":0,"o":"m 610 504 b 356 582 557 531 471 582 b 283 526 300 582 283 551 b 451 432 283 490 328 481 b 640 217 615 368 640 285 b 346 -10 640 83 517 -10 b 58 51 246 -10 149 11 l 58 258 b 350 163 213 172 282 163 b 399 200 381 163 399 178 b 240 304 399 226 400 246 b 44 528 68 367 44 463 b 340 749 44 625 122 749 b 610 693 460 749 535 722 "},"":{"ha":794,"x_min":0,"x_max":0,"o":"m 761 533 l 518 533 l 518 0 l 276 0 l 276 533 l 33 533 l 33 739 l 761 739 "},"":{"ha":897,"x_min":0,"x_max":0,"o":"m 315 739 l 315 368 b 454 206 315 269 365 206 b 582 361 538 206 582 256 l 582 739 l 825 739 l 825 332 b 444 -10 825 79 669 -10 b 72 325 225 -10 72 92 l 72 739 "},"":{"ha":822,"x_min":0,"x_max":0,"o":"m 3 739 l 251 739 l 410 365 l 571 739 l 819 739 l 468 -10 l 353 -10 "},"":{"ha":1293,"x_min":0,"x_max":0,"o":"m 879 369 l 1043 739 l 1293 739 l 938 -10 l 836 -10 l 646 424 l 457 -10 l 354 -10 l 0 739 l 249 739 l 413 369 l 576 739 l 715 739 "},"":{"ha":931,"x_min":0,"x_max":0,"o":"m 317 385 l 26 739 l 324 739 l 465 526 l 607 739 l 903 739 l 613 385 l 928 0 l 632 0 l 465 242 l 299 0 l 3 0 "},"":{"ha":818,"x_min":0,"x_max":0,"o":"m 261 739 l 408 472 l 557 739 l 818 739 l 531 290 l 531 0 l 289 0 l 289 290 l 0 739 "},"":{"ha":776,"x_min":0,"x_max":0,"o":"m 19 0 l 369 539 l 43 539 l 43 739 l 740 739 l 396 200 l 751 200 l 751 0 "},"":{"ha":700,"x_min":0,"x_max":0,"o":"m 468 660 l 468 485 l 322 368 l 322 197 l 675 197 l 675 0 l 81 0 l 81 176 l 6 117 l 6 294 l 81 354 l 81 739 l 322 739 l 322 543 "},"":{"ha":681,"x_min":0,"x_max":0,"o":"m 610 504 b 356 582 557 531 471 582 b 283 526 300 582 283 551 b 451 432 283 490 328 481 b 640 217 615 368 640 285 b 346 -10 640 83 517 -10 b 58 51 246 -10 149 11 l 58 258 b 350 163 213 172 282 163 b 399 200 381 163 399 178 b 240 304 399 226 400 246 b 44 528 68 367 44 463 b 340 749 44 625 122 749 b 610 693 460 749 535 722 m 218 1075 l 342 949 l 464 1075 l 610 1075 l 486 840 l 196 840 l 72 1075 "},"":{"ha":776,"x_min":0,"x_max":0,"o":"m 19 0 l 369 539 l 43 539 l 43 739 l 740 739 l 396 200 l 751 200 l 751 0 m 265 1075 l 389 949 l 511 1075 l 657 1075 l 533 840 l 243 840 l 119 1075 "},"":{"ha":876,"x_min":0,"x_max":0,"o":"m 596 0 l 558 101 l 286 101 l 258 0 l 3 0 l 281 739 l 550 739 l 874 0 m 406 493 l 329 251 l 504 251 m 457 840 l 207 1056 l 471 1056 l 588 840 "},"":{"ha":876,"x_min":0,"x_max":0,"o":"m 596 0 l 558 101 l 286 101 l 258 0 l 3 0 l 281 739 l 550 739 l 874 0 m 406 493 l 329 251 l 504 251 m 414 1056 l 678 1056 l 428 840 l 297 840 "},"":{"ha":876,"x_min":0,"x_max":0,"o":"m 596 0 l 558 101 l 286 101 l 258 0 l 3 0 l 281 739 l 550 739 l 874 0 m 406 493 l 329 251 l 504 251 m 539 840 l 417 965 l 293 840 l 147 840 l 271 1075 l 561 1075 l 685 840 "},"":{"ha":876,"x_min":0,"x_max":0,"o":"m 596 0 l 558 101 l 286 101 l 258 0 l 3 0 l 281 739 l 550 739 l 874 0 m 406 493 l 329 251 l 504 251 m 707 1057 b 547 840 707 917 643 840 b 333 899 478 840 378 899 b 278 840 293 899 281 865 l 169 840 b 328 1057 169 997 263 1057 b 446 1028 361 1057 404 1042 b 544 997 486 1013 525 997 b 597 1057 582 997 597 1032 "},"":{"ha":876,"x_min":0,"x_max":0,"o":"m 596 0 l 558 101 l 286 101 l 258 0 l 3 0 l 281 739 l 550 739 l 874 0 m 406 493 l 329 251 l 504 251 m 150 933 b 243 1026 150 983 190 1026 b 336 933 296 1026 336 983 b 243 840 336 882 296 840 b 150 933 190 840 150 883 m 496 933 b 589 1026 496 983 535 1026 b 682 933 642 1026 682 983 b 589 840 682 882 642 840 b 496 933 535 840 496 883 "},"":{"ha":876,"x_min":0,"x_max":0,"o":"m 596 0 l 558 101 l 286 101 l 258 0 l 3 0 l 281 739 l 550 739 l 874 0 m 406 493 l 329 251 l 504 251 m 415 1118 b 556 979 493 1118 556 1057 b 415 839 556 901 493 839 b 276 979 338 839 276 901 b 415 1118 276 1057 338 1118 m 415 1051 b 343 979 375 1051 343 1019 b 415 906 343 939 375 906 b 489 979 456 906 489 939 b 415 1051 489 1019 456 1051 "},"":{"ha":1174,"x_min":0,"x_max":0,"o":"m 551 113 l 318 113 l 253 0 l 0 0 l 456 739 l 1110 739 l 1110 569 l 793 569 l 793 451 l 1093 451 l 1093 292 l 793 292 l 793 169 l 1118 169 l 1118 0 l 551 0 m 551 282 l 551 526 l 404 282 "},"":{"ha":825,"x_min":0,"x_max":0,"o":"m 510 -40 b 625 -157 583 -58 625 -100 b 401 -292 625 -228 564 -292 l 268 -292 l 268 -199 b 403 -144 336 -199 403 -192 b 338 -101 403 -117 378 -100 l 408 -6 b 47 368 179 19 47 178 b 506 749 47 575 201 749 b 756 690 642 749 718 711 l 756 469 b 500 561 715 503 644 561 b 299 369 372 561 299 474 b 493 178 299 246 393 178 b 764 269 592 178 678 224 l 764 71 b 525 -7 696 31 646 3 "},"":{"ha":713,"x_min":0,"x_max":0,"o":"m 649 569 l 322 569 l 322 458 l 633 458 l 633 299 l 322 299 l 322 169 l 657 169 l 657 0 l 81 0 l 81 739 l 649 739 m 375 840 l 125 1056 l 389 1056 l 506 840 "},"":{"ha":713,"x_min":0,"x_max":0,"o":"m 649 569 l 322 569 l 322 458 l 633 458 l 633 299 l 322 299 l 322 169 l 657 169 l 657 0 l 81 0 l 81 739 l 649 739 m 354 1056 l 618 1056 l 368 840 l 238 840 "},"":{"ha":713,"x_min":0,"x_max":0,"o":"m 649 569 l 322 569 l 322 458 l 633 458 l 633 299 l 322 299 l 322 169 l 657 169 l 657 0 l 81 0 l 81 739 l 649 739 m 479 840 l 357 965 l 233 840 l 88 840 l 211 1075 l 501 1075 l 625 840 "},"":{"ha":713,"x_min":0,"x_max":0,"o":"m 649 569 l 322 569 l 322 458 l 633 458 l 633 299 l 322 299 l 322 169 l 657 169 l 657 0 l 81 0 l 81 739 l 649 739 m 90 933 b 183 1026 90 983 131 1026 b 276 933 236 1026 276 983 b 183 840 276 882 236 840 b 90 933 131 840 90 883 m 436 933 b 529 1026 436 983 475 1026 b 622 933 582 1026 622 983 b 529 840 622 882 582 840 b 436 933 475 840 436 883 "},"":{"ha":403,"x_min":0,"x_max":0,"o":"m 322 0 l 81 0 l 81 739 l 322 739 m 221 840 l -29 1056 l 235 1056 l 351 840 "},"":{"ha":403,"x_min":0,"x_max":0,"o":"m 322 0 l 81 0 l 81 739 l 322 739 m 178 1056 l 442 1056 l 192 840 l 61 840 "},"":{"ha":403,"x_min":0,"x_max":0,"o":"m 322 0 l 81 0 l 81 739 l 322 739 m 325 840 l 203 965 l 79 840 l -67 840 l 57 1075 l 347 1075 l 471 840 "},"":{"ha":403,"x_min":0,"x_max":0,"o":"m 322 0 l 81 0 l 81 739 l 322 739 m -64 933 b 29 1026 -64 983 -24 1026 b 122 933 82 1026 122 983 b 29 840 122 882 82 840 b -64 933 -24 840 -64 883 m 282 933 b 375 1026 282 983 321 1026 b 468 933 428 1026 468 983 b 375 840 468 882 428 840 b 282 933 321 840 282 883 "},"":{"ha":863,"x_min":0,"x_max":0,"o":"m 7 319 l 7 421 l 81 421 l 81 739 l 394 739 b 815 368 753 739 815 482 b 393 0 815 243 749 0 l 81 0 l 81 319 m 321 188 l 400 188 b 564 368 526 188 564 292 b 400 551 564 450 526 551 l 321 551 l 321 421 l 439 421 l 439 319 l 321 319 "},"":{"ha":904,"x_min":0,"x_max":0,"o":"m 294 739 l 582 400 l 582 739 l 824 739 l 824 0 l 625 0 l 322 363 l 322 0 l 81 0 l 81 739 m 721 1057 b 561 840 721 917 657 840 b 347 899 492 840 392 899 b 292 840 307 899 294 865 l 183 840 b 342 1057 183 997 276 1057 b 460 1028 375 1057 418 1042 b 558 997 500 1013 539 997 b 611 1057 596 997 611 1032 "},"":{"ha":926,"x_min":0,"x_max":0,"o":"m 47 368 b 461 749 47 561 217 749 b 879 371 669 749 879 600 b 463 -10 879 164 704 -10 b 47 368 238 -10 47 146 m 463 533 b 299 369 372 533 299 460 b 463 206 299 279 372 206 b 628 369 553 206 628 279 b 463 533 628 460 553 533 m 482 840 l 232 1056 l 496 1056 l 613 840 "},"":{"ha":926,"x_min":0,"x_max":0,"o":"m 47 368 b 461 749 47 561 217 749 b 879 371 669 749 879 600 b 463 -10 879 164 704 -10 b 47 368 238 -10 47 146 m 463 533 b 299 369 372 533 299 460 b 463 206 299 279 372 206 b 628 369 553 206 628 279 b 463 533 628 460 553 533 m 461 1056 l 725 1056 l 475 840 l 344 840 "},"":{"ha":926,"x_min":0,"x_max":0,"o":"m 47 368 b 461 749 47 561 217 749 b 879 371 669 749 879 600 b 463 -10 879 164 704 -10 b 47 368 238 -10 47 146 m 463 533 b 299 369 372 533 299 460 b 463 206 299 279 372 206 b 628 369 553 206 628 279 b 463 533 628 460 553 533 m 586 840 l 464 965 l 340 840 l 194 840 l 318 1075 l 608 1075 l 732 840 "},"":{"ha":926,"x_min":0,"x_max":0,"o":"m 47 368 b 461 749 47 561 217 749 b 879 371 669 749 879 600 b 463 -10 879 164 704 -10 b 47 368 238 -10 47 146 m 463 533 b 299 369 372 533 299 460 b 463 206 299 279 372 206 b 628 369 553 206 628 279 b 463 533 628 460 553 533 m 732 1057 b 572 840 732 917 668 840 b 358 899 503 840 403 899 b 303 840 318 899 306 865 l 194 840 b 353 1057 194 997 288 1057 b 471 1028 386 1057 429 1042 b 569 997 511 1013 550 997 b 622 1057 607 997 622 1032 "},"":{"ha":926,"x_min":0,"x_max":0,"o":"m 47 368 b 461 749 47 561 217 749 b 879 371 669 749 879 600 b 463 -10 879 164 704 -10 b 47 368 238 -10 47 146 m 463 533 b 299 369 372 533 299 460 b 463 206 299 279 372 206 b 628 369 553 206 628 279 b 463 533 628 460 553 533 m 197 933 b 290 1026 197 983 238 1026 b 383 933 343 1026 383 983 b 290 840 383 882 343 840 b 197 933 238 840 197 883 m 543 933 b 636 1026 543 983 582 1026 b 729 933 689 1026 729 983 b 636 840 729 882 689 840 b 543 933 582 840 543 883 "},"":{"ha":1178,"x_min":0,"x_max":0,"o":"m 1115 569 l 799 569 l 799 460 l 1099 460 l 1099 300 l 799 300 l 799 169 l 1122 169 l 1122 0 l 467 0 b 47 374 225 0 47 124 b 467 739 47 619 219 739 l 1115 739 m 557 569 l 508 569 b 299 368 367 569 299 493 b 508 169 299 253 367 169 l 557 169 "},"":{"ha":926,"x_min":0,"x_max":0,"o":"m 540 514 b 463 533 528 521 504 533 b 318 292 325 533 267 382 m 144 119 b 47 368 103 167 47 249 b 461 749 47 536 189 749 b 706 678 583 749 656 711 l 785 757 l 847 694 l 775 622 b 879 371 843 563 879 485 b 463 -10 879 157 703 -10 b 211 64 354 -10 282 19 l 128 -19 l 67 42 l 144 119 m 376 231 b 467 206 396 217 432 206 b 603 456 561 206 681 319 l 376 231 "},"":{"ha":897,"x_min":0,"x_max":0,"o":"m 315 739 l 315 368 b 454 206 315 269 365 206 b 582 361 538 206 582 256 l 582 739 l 825 739 l 825 332 b 444 -10 825 79 669 -10 b 72 325 225 -10 72 92 l 72 739 m 468 840 l 218 1056 l 482 1056 l 599 840 "},"":{"ha":897,"x_min":0,"x_max":0,"o":"m 315 739 l 315 368 b 454 206 315 269 365 206 b 582 361 538 206 582 256 l 582 739 l 825 739 l 825 332 b 444 -10 825 79 669 -10 b 72 325 225 -10 72 92 l 72 739 m 447 1056 l 711 1056 l 461 840 l 331 840 "},"":{"ha":897,"x_min":0,"x_max":0,"o":"m 315 739 l 315 368 b 454 206 315 269 365 206 b 582 361 538 206 582 256 l 582 739 l 825 739 l 825 332 b 444 -10 825 79 669 -10 b 72 325 225 -10 72 92 l 72 739 m 572 840 l 450 965 l 326 840 l 181 840 l 304 1075 l 594 1075 l 718 840 "},"":{"ha":897,"x_min":0,"x_max":0,"o":"m 315 739 l 315 368 b 454 206 315 269 365 206 b 582 361 538 206 582 256 l 582 739 l 825 739 l 825 332 b 444 -10 825 79 669 -10 b 72 325 225 -10 72 92 l 72 739 m 183 933 b 276 1026 183 983 224 1026 b 369 933 329 1026 369 983 b 276 840 369 882 329 840 b 183 933 224 840 183 883 m 529 933 b 622 1026 529 983 568 1026 b 715 933 675 1026 715 983 b 622 840 715 882 675 840 b 529 933 568 840 529 883 "},"":{"ha":818,"x_min":0,"x_max":0,"o":"m 261 739 l 408 472 l 557 739 l 818 739 l 531 290 l 531 0 l 289 0 l 289 290 l 0 739 m 407 1056 l 671 1056 l 421 840 l 290 840 "},"":{"ha":774,"x_min":0,"x_max":0,"o":"m 81 739 l 322 739 l 322 613 l 482 613 b 738 375 650 613 738 478 b 482 128 738 256 654 128 l 322 128 l 322 0 l 81 0 m 322 294 l 400 294 b 496 374 432 294 496 294 b 400 446 496 446 432 446 l 322 446 "},"":{"ha":818,"x_min":0,"x_max":0,"o":"m 261 739 l 408 472 l 557 739 l 818 739 l 531 290 l 531 0 l 289 0 l 289 290 l 0 739 m 143 933 b 236 1026 143 983 183 1026 b 329 933 289 1026 329 983 b 236 840 329 882 289 840 b 143 933 183 840 143 883 m 489 933 b 582 1026 489 983 528 1026 b 675 933 635 1026 675 983 b 582 840 675 882 635 840 b 489 933 528 840 489 883 "},"Ă":{"ha":1157,"x_min":0,"x_max":0,"o":"m 375 190 l 297 0 l 7 0 l 422 940 l 736 940 l 1150 0 l 860 0 l 783 190 m 718 354 l 581 697 l 442 354 m 443 1239 b 579 1143 451 1221 482 1143 b 714 1239 679 1143 703 1213 l 835 1239 b 578 1004 819 1124 719 1004 b 322 1239 447 1004 333 1107 "},"Ā":{"ha":1157,"x_min":0,"x_max":0,"o":"m 375 190 l 297 0 l 7 0 l 422 940 l 736 940 l 1150 0 l 860 0 l 783 190 m 718 354 l 581 697 l 442 354 m 317 1019 l 317 1186 l 840 1186 l 840 1019 "},"Ą":{"ha":1157,"x_min":0,"x_max":0,"o":"m 860 0 l 783 190 l 375 190 l 297 0 l 7 0 l 422 940 l 736 940 l 1150 0 l 1056 0 b 1047 -57 1050 -24 1047 -36 b 1160 -153 1047 -122 1106 -153 b 1203 -149 1182 -153 1200 -149 l 1203 -274 b 1069 -290 1157 -292 1107 -290 b 908 -136 979 -290 908 -222 b 929 0 908 -62 925 -11 m 718 354 l 581 697 l 442 354 "},"Ǽ":{"ha":1546,"x_min":0,"x_max":0,"o":"m 1464 940 l 1464 751 l 1054 751 l 1054 579 l 1440 579 l 1440 390 l 1054 390 l 1054 189 l 1474 189 l 1474 0 l 771 0 l 771 350 l 500 350 l 294 0 l 7 0 l 601 940 m 771 808 l 597 513 l 771 513 m 976 1219 l 1240 1219 l 990 1004 l 860 1004 "},"Ć":{"ha":1032,"x_min":0,"x_max":0,"o":"m 960 71 b 589 -12 836 7 713 -12 b 57 471 257 -12 57 183 b 593 953 57 803 310 953 b 956 882 751 953 881 908 l 956 632 b 657 733 903 664 797 733 b 346 467 496 733 346 632 b 642 207 346 324 468 207 b 960 308 793 207 904 274 m 581 1219 l 844 1219 l 594 1004 l 464 1004 "},"Č":{"ha":1032,"x_min":0,"x_max":0,"o":"m 960 71 b 589 -12 836 7 713 -12 b 57 471 257 -12 57 183 b 593 953 57 803 310 953 b 956 882 751 953 881 908 l 956 632 b 657 733 903 664 797 733 b 346 467 496 733 346 632 b 642 207 346 324 468 207 b 960 308 793 207 904 274 m 476 1239 l 600 1113 l 722 1239 l 868 1239 l 744 1004 l 454 1004 l 331 1239 "},"Ĉ":{"ha":1032,"x_min":0,"x_max":0,"o":"m 960 71 b 589 -12 836 7 713 -12 b 57 471 257 -12 57 183 b 593 953 57 803 310 953 b 956 882 751 953 881 908 l 956 632 b 657 733 903 664 797 733 b 346 467 496 733 346 632 b 642 207 346 324 468 207 b 960 308 793 207 904 274 m 710 1004 l 588 1129 l 464 1004 l 318 1004 l 442 1239 l 732 1239 l 856 1004 "},"Ċ":{"ha":1032,"x_min":0,"x_max":0,"o":"m 960 71 b 589 -12 836 7 713 -12 b 57 471 257 -12 57 183 b 593 953 57 803 310 953 b 956 882 751 953 881 908 l 956 632 b 657 733 903 664 797 733 b 346 467 496 733 346 632 b 642 207 346 324 468 207 b 960 308 793 207 904 274 m 506 1097 b 599 1190 506 1147 546 1190 b 692 1097 651 1190 692 1147 b 599 1004 692 1046 651 1004 b 506 1097 546 1004 506 1047 "},"Ď":{"ha":1142,"x_min":0,"x_max":0,"o":"m 508 940 b 921 824 744 940 851 881 b 1085 453 1010 751 1085 625 b 908 79 1085 232 971 128 b 611 0 800 -6 638 0 l 118 0 l 118 940 m 401 194 l 522 194 b 796 465 624 194 796 215 b 522 751 796 715 624 751 l 401 751 m 433 1239 l 557 1113 l 679 1239 l 825 1239 l 701 1004 l 411 1004 l 288 1239 "},"Đ":{"ha":1142,"x_min":0,"x_max":0,"o":"m 508 940 b 921 824 744 940 851 881 b 1085 453 1010 751 1085 625 b 908 79 1085 232 971 128 b 611 0 800 -6 638 0 l 118 0 l 118 397 l 14 397 l 14 543 l 118 543 l 118 940 m 401 543 l 594 543 l 594 397 l 401 397 l 401 194 l 522 194 b 796 465 624 194 796 215 b 522 751 796 715 624 751 l 401 751 "},"Ĕ":{"ha":899,"x_min":0,"x_max":0,"o":"m 826 189 l 826 0 l 118 0 l 118 940 l 815 940 l 815 751 l 401 751 l 401 579 l 796 579 l 796 390 l 401 390 l 401 189 m 328 1239 b 464 1143 336 1221 367 1143 b 599 1239 564 1143 588 1213 l 719 1239 b 463 1004 704 1124 604 1004 b 207 1239 332 1004 218 1107 "},"Ě":{"ha":899,"x_min":0,"x_max":0,"o":"m 826 189 l 826 0 l 118 0 l 118 940 l 815 940 l 815 751 l 401 751 l 401 579 l 796 579 l 796 390 l 401 390 l 401 189 m 340 1239 l 464 1113 l 586 1239 l 732 1239 l 608 1004 l 318 1004 l 194 1239 "},"Ė":{"ha":899,"x_min":0,"x_max":0,"o":"m 826 189 l 826 0 l 118 0 l 118 940 l 815 940 l 815 751 l 401 751 l 401 579 l 796 579 l 796 390 l 401 390 l 401 189 m 369 1097 b 463 1190 369 1147 410 1190 b 556 1097 515 1190 556 1147 b 463 1004 556 1046 515 1004 b 369 1097 410 1004 369 1047 "},"Ē":{"ha":899,"x_min":0,"x_max":0,"o":"m 826 189 l 826 0 l 118 0 l 118 940 l 815 940 l 815 751 l 401 751 l 401 579 l 796 579 l 796 390 l 401 390 l 401 189 m 201 1019 l 201 1186 l 725 1186 l 725 1019 "},"Ŋ":{"ha":1229,"x_min":0,"x_max":0,"o":"m 1125 382 b 754 -11 1125 143 1026 -11 b 671 -6 726 -11 700 -8 l 683 200 b 721 196 700 196 710 196 b 842 368 758 196 842 232 l 842 489 b 629 731 842 621 799 731 b 401 576 479 731 428 640 l 401 0 l 118 0 l 118 940 l 401 940 l 401 817 b 718 953 453 868 531 953 b 1125 483 1017 953 1125 757 "},"Ę":{"ha":899,"x_min":0,"x_max":0,"o":"m 118 0 l 118 940 l 815 940 l 815 751 l 401 751 l 401 579 l 796 579 l 796 390 l 401 390 l 401 189 l 826 189 l 826 0 l 679 0 b 671 -57 674 -24 671 -36 b 783 -153 671 -122 729 -153 b 826 -149 806 -153 824 -149 l 826 -274 b 693 -290 781 -292 731 -290 b 532 -136 603 -290 532 -222 b 553 0 532 -62 549 -11 "},"Ğ":{"ha":1110,"x_min":0,"x_max":0,"o":"m 986 663 b 674 750 931 694 833 750 b 346 468 407 750 346 567 b 642 204 346 329 444 204 b 757 218 690 204 725 211 l 757 329 l 629 329 l 629 518 l 1004 518 l 1004 67 b 853 18 949 46 910 32 b 589 -12 782 1 690 -12 b 57 472 313 -12 57 133 b 210 833 57 597 100 747 b 604 953 344 939 478 953 b 986 885 793 953 922 906 m 475 1239 b 611 1143 483 1221 514 1143 b 746 1239 711 1143 735 1213 l 867 1239 b 610 1004 851 1124 751 1004 b 354 1239 479 1004 365 1107 "},"Ĝ":{"ha":1110,"x_min":0,"x_max":0,"o":"m 986 663 b 674 750 931 694 833 750 b 346 468 407 750 346 567 b 642 204 346 329 444 204 b 757 218 690 204 725 211 l 757 329 l 629 329 l 629 518 l 1004 518 l 1004 67 b 853 18 949 46 910 32 b 589 -12 782 1 690 -12 b 57 472 313 -12 57 133 b 210 833 57 597 100 747 b 604 953 344 939 478 953 b 986 885 793 953 922 906 m 719 1004 l 597 1129 l 474 1004 l 328 1004 l 451 1239 l 742 1239 l 865 1004 "},"Ģ":{"ha":1110,"x_min":0,"x_max":0,"o":"m 986 663 b 674 750 931 694 833 750 b 346 468 407 750 346 567 b 642 204 346 329 444 204 b 757 218 690 204 725 211 l 757 329 l 629 329 l 629 518 l 1004 518 l 1004 67 b 853 18 949 46 910 32 b 589 -12 782 1 690 -12 b 57 472 313 -12 57 133 b 210 833 57 597 100 747 b 604 953 344 939 478 953 b 986 885 793 953 922 906 m 429 -235 b 465 -236 442 -236 450 -236 b 571 -192 547 -236 571 -224 b 453 -154 571 -157 513 -154 l 460 -78 l 543 -78 b 792 -210 700 -78 792 -103 b 569 -335 792 -292 701 -335 b 429 -314 521 -335 475 -326 "},"Ġ":{"ha":1110,"x_min":0,"x_max":0,"o":"m 986 663 b 674 750 931 694 833 750 b 346 468 407 750 346 567 b 642 204 346 329 444 204 b 757 218 690 204 725 211 l 757 329 l 629 329 l 629 518 l 1004 518 l 1004 67 b 853 18 949 46 910 32 b 589 -12 782 1 690 -12 b 57 472 313 -12 57 133 b 210 833 57 597 100 747 b 604 953 344 939 478 953 b 986 885 793 953 922 906 m 500 1097 b 593 1190 500 1147 540 1190 b 686 1097 646 1190 686 1147 b 593 1004 686 1046 646 1004 b 500 1097 540 1004 500 1047 "},"Ħ":{"ha":1229,"x_min":0,"x_max":0,"o":"m 118 850 l 118 940 l 401 940 l 401 850 l 828 850 l 828 940 l 1111 940 l 1111 850 l 1211 850 l 1211 704 l 1111 704 l 1111 0 l 828 0 l 828 367 l 401 367 l 401 0 l 118 0 l 118 704 l 18 704 l 18 850 m 828 594 l 828 704 l 401 704 l 401 594 "},"Ĥ":{"ha":1229,"x_min":0,"x_max":0,"o":"m 401 367 l 401 0 l 118 0 l 118 940 l 401 940 l 401 594 l 828 594 l 828 940 l 1111 940 l 1111 0 l 828 0 l 828 367 m 738 1004 l 615 1129 l 492 1004 l 346 1004 l 469 1239 l 760 1239 l 883 1004 "},"Ĭ":{"ha":522,"x_min":0,"x_max":0,"o":"m 403 940 l 403 0 l 119 0 l 119 940 m 125 1239 b 261 1143 133 1221 164 1143 b 396 1239 361 1143 385 1213 l 517 1239 b 260 1004 501 1124 401 1004 b 4 1239 129 1004 15 1107 "},"Ĳ":{"ha":1072,"x_min":0,"x_max":0,"o":"m 403 940 l 403 0 l 119 0 l 119 940 m 953 940 l 953 117 b 635 -301 953 -82 933 -301 b 533 -292 586 -301 563 -297 l 490 -65 b 663 14 588 -62 644 -60 b 669 213 671 46 669 172 l 669 940 "},"Ī":{"ha":522,"x_min":0,"x_max":0,"o":"m 403 940 l 403 0 l 119 0 l 119 940 m -1 1019 l -1 1186 l 522 1186 l 522 1019 "},"Į":{"ha":522,"x_min":0,"x_max":0,"o":"m 119 0 l 119 940 l 403 940 l 403 0 l 304 0 b 296 -57 299 -24 296 -36 b 408 -153 296 -122 354 -153 b 451 -149 431 -153 449 -149 l 451 -274 b 318 -290 406 -292 356 -290 b 157 -136 228 -290 157 -222 b 178 0 157 -62 174 -11 "},"Ĩ":{"ha":522,"x_min":0,"x_max":0,"o":"m 403 940 l 403 0 l 119 0 l 119 940 m 529 1221 b 369 1004 529 1081 465 1004 b 156 1063 300 1004 200 1063 b 100 1004 115 1063 103 1029 l -8 1004 b 150 1221 -8 1161 85 1221 b 268 1192 183 1221 226 1206 b 367 1161 308 1176 347 1161 b 419 1221 404 1161 419 1196 "},"Ĵ":{"ha":550,"x_min":0,"x_max":0,"o":"m 431 940 l 431 117 b 113 -301 431 -82 411 -301 b 11 -292 64 -301 40 -297 l -32 -65 b 140 14 65 -62 122 -60 b 147 213 149 46 147 172 l 147 940 m 397 1004 l 275 1129 l 151 1004 l 6 1004 l 129 1239 l 419 1239 l 543 1004 "},"Ķ":{"ha":1113,"x_min":0,"x_max":0,"o":"m 401 940 l 401 519 l 742 940 l 1050 940 l 700 500 l 1107 0 l 761 0 l 401 440 l 401 0 l 118 0 l 118 940 m 389 -235 b 425 -236 401 -236 410 -236 b 531 -192 507 -236 531 -224 b 413 -154 531 -157 472 -154 l 419 -78 l 503 -78 b 751 -210 660 -78 751 -103 b 529 -335 751 -292 661 -335 b 389 -314 481 -335 435 -326 "},"Ĺ":{"ha":879,"x_min":0,"x_max":0,"o":"m 401 940 l 401 225 l 832 225 l 832 0 l 118 0 l 118 940 m 282 1219 l 546 1219 l 296 1004 l 165 1004 "},"Ľ":{"ha":879,"x_min":0,"x_max":0,"o":"m 533 526 b 631 703 618 558 633 638 b 533 824 564 722 533 765 b 665 953 533 890 589 953 b 824 758 775 953 824 847 b 533 488 824 653 747 517 m 401 940 l 401 225 l 832 225 l 832 0 l 118 0 l 118 940 "},"Ļ":{"ha":879,"x_min":0,"x_max":0,"o":"m 401 940 l 401 225 l 832 225 l 832 0 l 118 0 l 118 940 m 286 -235 b 322 -236 299 -236 307 -236 b 428 -192 404 -236 428 -224 b 310 -154 428 -157 369 -154 l 317 -78 l 400 -78 b 649 -210 557 -78 649 -103 b 426 -335 649 -292 558 -335 b 286 -314 378 -335 332 -326 "},"Ŀ":{"ha":879,"x_min":0,"x_max":0,"o":"m 647 654 b 774 528 717 654 774 600 b 647 399 774 457 718 399 b 521 528 578 399 521 456 b 647 654 521 600 578 654 m 401 940 l 401 225 l 832 225 l 832 0 l 118 0 l 118 940 "},"Ń":{"ha":1257,"x_min":0,"x_max":0,"o":"m 369 940 l 856 419 l 856 940 l 1139 940 l 1139 0 l 886 0 l 399 524 l 399 0 l 118 0 l 118 940 m 638 1219 l 901 1219 l 651 1004 l 521 1004 "},"Ň":{"ha":1257,"x_min":0,"x_max":0,"o":"m 369 940 l 856 419 l 856 940 l 1139 940 l 1139 0 l 886 0 l 399 524 l 399 0 l 118 0 l 118 940 m 506 1239 l 629 1113 l 751 1239 l 897 1239 l 774 1004 l 483 1004 l 360 1239 "},"Ņ":{"ha":1257,"x_min":0,"x_max":0,"o":"m 369 940 l 856 419 l 856 940 l 1139 940 l 1139 0 l 886 0 l 399 524 l 399 0 l 118 0 l 118 940 m 461 -235 b 497 -236 474 -236 482 -236 b 603 -192 579 -236 603 -224 b 485 -154 603 -157 544 -154 l 492 -78 l 575 -78 b 824 -210 732 -78 824 -103 b 601 -335 824 -292 733 -335 b 461 -314 553 -335 507 -326 "},"Ŏ":{"ha":1182,"x_min":0,"x_max":0,"o":"m 1124 471 b 590 -12 1124 213 946 -12 b 57 471 222 -12 57 228 b 590 953 57 714 222 953 b 1124 471 949 953 1124 725 m 346 471 b 590 229 346 329 436 229 b 835 471 747 229 835 331 b 590 711 835 610 747 711 b 346 471 436 711 346 613 m 456 1239 b 592 1143 464 1221 494 1143 b 726 1239 692 1143 715 1213 l 847 1239 b 590 1004 832 1124 732 1004 b 335 1239 460 1004 346 1107 "},"Ő":{"ha":1182,"x_min":0,"x_max":0,"o":"m 1124 471 b 590 -12 1124 213 946 -12 b 57 471 222 -12 57 228 b 590 953 57 714 222 953 b 1124 471 949 953 1124 725 m 346 471 b 590 229 346 329 436 229 b 835 471 747 229 835 331 b 590 711 835 610 747 711 b 346 471 436 711 346 613 m 756 1219 l 1019 1219 l 769 1004 l 639 1004 m 428 1219 l 692 1219 l 442 1004 l 313 1004 "},"Ō":{"ha":1182,"x_min":0,"x_max":0,"o":"m 1124 471 b 590 -12 1124 213 946 -12 b 57 471 222 -12 57 228 b 590 953 57 714 222 953 b 1124 471 949 953 1124 725 m 346 471 b 590 229 346 329 436 229 b 835 471 747 229 835 331 b 590 711 835 610 747 711 b 346 471 436 711 346 613 m 329 1019 l 329 1186 l 853 1186 l 853 1019 "},"Ǿ":{"ha":1182,"x_min":0,"x_max":0,"o":"m 143 -54 l 64 28 l 183 142 b 57 471 103 229 57 332 b 590 953 57 714 222 953 b 928 860 790 953 889 886 l 1039 965 l 1118 885 l 1013 783 b 1124 471 1103 683 1124 561 b 590 -12 1124 228 958 -12 b 271 69 501 -12 376 1 m 465 257 b 592 229 508 235 563 229 b 835 469 747 229 835 333 b 810 589 835 517 825 558 m 735 674 b 590 711 692 701 642 711 b 346 472 429 711 346 603 b 382 333 346 458 347 390 m 589 1219 l 853 1219 l 603 1004 l 472 1004 "},"Ŕ":{"ha":1039,"x_min":0,"x_max":0,"o":"m 600 940 b 932 649 853 940 932 756 b 778 414 932 489 817 433 b 933 204 831 382 860 364 l 1028 0 l 724 0 l 650 167 b 433 367 567 356 518 367 l 401 367 l 401 0 l 118 0 l 118 940 m 401 760 l 401 533 l 463 533 b 643 643 597 533 643 556 b 461 760 643 731 588 760 m 469 1219 l 733 1219 l 483 1004 l 353 1004 "},"Ř":{"ha":1039,"x_min":0,"x_max":0,"o":"m 600 940 b 932 649 853 940 932 756 b 778 414 932 489 817 433 b 933 204 831 382 860 364 l 1028 0 l 724 0 l 650 167 b 433 367 567 356 518 367 l 401 367 l 401 0 l 118 0 l 118 940 m 401 760 l 401 533 l 463 533 b 643 643 597 533 643 556 b 461 760 643 731 588 760 m 347 1239 l 471 1113 l 593 1239 l 739 1239 l 615 1004 l 325 1004 l 201 1239 "},"Ŗ":{"ha":1039,"x_min":0,"x_max":0,"o":"m 600 940 b 932 649 853 940 932 756 b 778 414 932 489 817 433 b 933 204 831 382 860 364 l 1028 0 l 724 0 l 650 167 b 433 367 567 356 518 367 l 401 367 l 401 0 l 118 0 l 118 940 m 401 760 l 401 533 l 463 533 b 643 643 597 533 643 556 b 461 760 643 731 588 760 m 379 -235 b 415 -236 392 -236 400 -236 b 521 -192 497 -236 521 -224 b 403 -154 521 -157 463 -154 l 410 -78 l 493 -78 b 742 -210 650 -78 742 -103 b 519 -335 742 -292 651 -335 b 379 -314 471 -335 425 -326 "},"Ś":{"ha":850,"x_min":0,"x_max":0,"o":"m 735 653 b 454 760 681 690 575 760 b 354 689 376 760 354 722 b 463 592 354 650 383 629 b 775 274 650 503 775 438 b 419 -12 775 94 626 -12 b 89 63 393 -12 261 -12 l 89 293 b 376 190 142 260 251 190 b 492 260 489 190 492 250 b 349 378 492 315 425 346 b 81 681 217 433 81 513 b 419 953 81 826 188 953 b 735 874 596 953 715 886 m 393 1219 l 657 1219 l 407 1004 l 276 1004 "},"Ş":{"ha":850,"x_min":0,"x_max":0,"o":"m 735 653 b 454 760 681 690 575 760 b 354 689 376 760 354 722 b 463 592 354 650 383 629 b 775 274 650 503 775 438 b 497 -7 775 118 663 17 l 482 -40 b 597 -157 556 -58 597 -100 b 374 -292 597 -228 536 -292 l 240 -292 l 240 -199 b 375 -144 308 -199 375 -192 b 310 -101 375 -117 357 -104 l 375 -11 b 89 63 318 -7 214 7 l 89 293 b 376 190 142 260 251 190 b 492 260 489 190 492 250 b 349 378 492 315 425 346 b 81 681 217 433 81 513 b 419 953 81 826 188 953 b 735 874 596 953 715 886 "},"Ŝ":{"ha":850,"x_min":0,"x_max":0,"o":"m 735 653 b 454 760 681 690 575 760 b 354 689 376 760 354 722 b 463 592 354 650 383 629 b 775 274 650 503 775 438 b 419 -12 775 94 626 -12 b 89 63 393 -12 261 -12 l 89 293 b 376 190 142 260 251 190 b 492 260 489 190 492 250 b 349 378 492 315 425 346 b 81 681 217 433 81 513 b 419 953 81 826 188 953 b 735 874 596 953 715 886 m 547 1004 l 425 1129 l 301 1004 l 156 1004 l 279 1239 l 569 1239 l 693 1004 "},"Ș":{"ha":850,"x_min":0,"x_max":0,"o":"m 735 653 b 454 760 681 690 575 760 b 354 689 376 760 354 722 b 463 592 354 650 383 629 b 775 274 650 503 775 438 b 419 -12 775 94 626 -12 b 89 63 393 -12 261 -12 l 89 293 b 376 190 142 260 251 190 b 492 260 489 190 492 250 b 349 378 492 315 425 346 b 81 681 217 433 81 513 b 419 953 81 826 188 953 b 735 874 596 953 715 886 m 243 -235 b 279 -236 256 -236 264 -236 b 385 -192 361 -236 385 -224 b 267 -154 385 -157 326 -154 l 274 -78 l 357 -78 b 606 -210 514 -78 606 -103 b 383 -335 606 -292 515 -335 b 243 -314 335 -335 289 -326 "},"Ŧ":{"ha":1067,"x_min":0,"x_max":0,"o":"m 1019 940 l 1019 711 l 675 711 l 675 421 l 914 421 l 914 275 l 675 275 l 675 0 l 392 0 l 392 275 l 139 275 l 139 421 l 392 421 l 392 711 l 47 711 l 47 940 "},"Ť":{"ha":1067,"x_min":0,"x_max":0,"o":"m 1019 940 l 1019 711 l 675 711 l 675 0 l 392 0 l 392 711 l 47 711 l 47 940 m 410 1239 l 533 1113 l 656 1239 l 801 1239 l 678 1004 l 388 1004 l 264 1239 "},"Ţ":{"ha":1067,"x_min":0,"x_max":0,"o":"m 1019 940 l 1019 711 l 675 711 l 675 0 l 392 0 l 392 711 l 47 711 l 47 940 m 344 -235 b 381 -236 357 -236 365 -236 b 486 -192 463 -236 486 -224 b 368 -154 486 -157 428 -154 l 375 -78 l 458 -78 b 707 -210 615 -78 707 -103 b 485 -335 707 -292 617 -335 b 344 -314 436 -335 390 -326 "},"Ț":{"ha":1067,"x_min":0,"x_max":0,"o":"m 47 940 l 47 711 l 392 711 l 392 0 l 675 0 l 675 711 l 1019 711 l 1019 940 m 344 -314 b 485 -335 390 -326 436 -335 b 707 -210 617 -335 707 -292 b 458 -78 707 -103 615 -78 l 375 -78 l 368 -154 b 486 -192 428 -154 486 -157 b 381 -236 486 -224 463 -236 b 344 -235 365 -236 357 -236 "},"Ŭ":{"ha":1201,"x_min":0,"x_max":0,"o":"m 388 940 l 388 494 b 601 224 388 300 478 224 b 814 493 722 224 814 299 l 814 940 l 1097 940 l 1097 421 b 601 -12 1097 82 811 -12 b 104 421 392 -12 104 82 l 104 940 m 465 1239 b 601 1143 474 1221 504 1143 b 736 1239 701 1143 725 1213 l 857 1239 b 600 1004 842 1124 742 1004 b 344 1239 469 1004 356 1107 "},"Ű":{"ha":1201,"x_min":0,"x_max":0,"o":"m 388 940 l 388 494 b 601 224 388 300 478 224 b 814 493 722 224 814 299 l 814 940 l 1097 940 l 1097 421 b 601 -12 1097 82 811 -12 b 104 421 392 -12 104 82 l 104 940 m 774 1219 l 1038 1219 l 788 1004 l 657 1004 m 446 1219 l 710 1219 l 460 1004 l 331 1004 "},"Ū":{"ha":1201,"x_min":0,"x_max":0,"o":"m 388 940 l 388 494 b 601 224 388 300 478 224 b 814 493 722 224 814 299 l 814 940 l 1097 940 l 1097 421 b 601 -12 1097 82 811 -12 b 104 421 392 -12 104 82 l 104 940 m 339 1019 l 339 1186 l 863 1186 l 863 1019 "},"Ų":{"ha":1201,"x_min":0,"x_max":0,"o":"m 388 940 l 388 494 b 601 224 388 300 478 224 b 814 493 722 224 814 299 l 814 940 l 1097 940 l 1097 421 b 658 -10 1097 111 858 6 b 653 -57 654 -28 653 -39 b 765 -153 653 -122 711 -153 b 808 -149 788 -153 806 -149 l 808 -274 b 675 -290 763 -290 713 -290 b 514 -136 585 -290 514 -222 b 531 -8 514 -74 525 -29 b 104 421 333 10 104 118 l 104 940 "},"Ů":{"ha":1201,"x_min":0,"x_max":0,"o":"m 388 940 l 388 494 b 601 224 388 300 478 224 b 814 493 722 224 814 299 l 814 940 l 1097 940 l 1097 421 b 601 -12 1097 82 811 -12 b 104 421 392 -12 104 82 l 104 940 m 600 1282 b 740 1143 678 1282 740 1221 b 600 1003 740 1065 678 1003 b 461 1143 522 1003 461 1065 b 600 1282 461 1221 522 1282 m 600 1215 b 528 1143 560 1215 528 1183 b 600 1069 528 1103 560 1069 b 674 1143 640 1069 674 1103 b 600 1215 674 1183 640 1215 "},"Ũ":{"ha":1201,"x_min":0,"x_max":0,"o":"m 388 940 l 388 494 b 601 224 388 300 478 224 b 814 493 722 224 814 299 l 814 940 l 1097 940 l 1097 421 b 601 -12 1097 82 811 -12 b 104 421 392 -12 104 82 l 104 940 m 869 1221 b 710 1004 869 1081 806 1004 b 496 1063 640 1004 540 1063 b 440 1004 456 1063 443 1029 l 332 1004 b 490 1221 332 1161 425 1221 b 608 1192 524 1221 567 1206 b 707 1161 649 1176 688 1161 b 760 1221 744 1161 760 1196 "},"Ẃ":{"ha":1653,"x_min":0,"x_max":0,"o":"m 304 940 l 500 419 l 724 940 l 926 940 l 1146 419 l 1350 940 l 1640 940 l 1233 -12 l 1069 -12 l 825 542 l 575 -12 l 410 -12 l 11 940 m 794 1219 l 1058 1219 l 808 1004 l 678 1004 "},"Ŵ":{"ha":1653,"x_min":0,"x_max":0,"o":"m 304 940 l 500 419 l 724 940 l 926 940 l 1146 419 l 1350 940 l 1640 940 l 1233 -12 l 1069 -12 l 825 542 l 575 -12 l 410 -12 l 11 940 m 949 1004 l 826 1129 l 703 1004 l 557 1004 l 681 1239 l 971 1239 l 1094 1004 "},"Ẅ":{"ha":1653,"x_min":0,"x_max":0,"o":"m 304 940 l 500 419 l 724 940 l 926 940 l 1146 419 l 1350 940 l 1640 940 l 1233 -12 l 1069 -12 l 825 542 l 575 -12 l 410 -12 l 11 940 m 560 1097 b 653 1190 560 1147 600 1190 b 746 1097 706 1190 746 1147 b 653 1004 746 1046 706 1004 b 560 1097 600 1004 560 1047 m 906 1097 b 999 1190 906 1147 944 1190 b 1092 1097 1051 1190 1092 1147 b 999 1004 1092 1046 1051 1004 b 906 1097 944 1004 906 1047 "},"Ẁ":{"ha":1653,"x_min":0,"x_max":0,"o":"m 304 940 l 500 419 l 724 940 l 926 940 l 1146 419 l 1350 940 l 1640 940 l 1233 -12 l 1069 -12 l 825 542 l 575 -12 l 410 -12 l 11 940 m 844 1004 l 594 1219 l 858 1219 l 975 1004 "},"Ŷ":{"ha":1043,"x_min":0,"x_max":0,"o":"m 303 940 l 518 644 l 735 940 l 1035 940 l 667 431 l 667 0 l 383 0 l 383 425 l 8 940 m 644 1004 l 522 1129 l 399 1004 l 253 1004 l 376 1239 l 667 1239 l 790 1004 "},"Ỳ":{"ha":1043,"x_min":0,"x_max":0,"o":"m 303 940 l 518 644 l 735 940 l 1035 940 l 667 431 l 667 0 l 383 0 l 383 425 l 8 940 m 539 1004 l 289 1219 l 553 1219 l 669 1004 "},"Ź":{"ha":1013,"x_min":0,"x_max":0,"o":"m 26 0 l 513 715 l 67 715 l 67 940 l 981 940 l 496 225 l 981 225 l 981 0 m 474 1219 l 738 1219 l 488 1004 l 357 1004 "},"Ż":{"ha":1013,"x_min":0,"x_max":0,"o":"m 26 0 l 513 715 l 67 715 l 67 940 l 981 940 l 496 225 l 981 225 l 981 0 m 413 1097 b 506 1190 413 1147 453 1190 b 599 1097 558 1190 599 1147 b 506 1004 599 1046 558 1004 b 413 1097 453 1004 413 1047 "},"İ":{"ha":522,"x_min":0,"x_max":0,"o":"m 403 940 l 403 0 l 119 0 l 119 940 m 168 1097 b 261 1190 168 1147 208 1190 b 354 1097 314 1190 354 1147 b 261 1004 354 1046 314 1004 b 168 1097 208 1004 168 1047 "},"ă":{"ha":793,"x_min":0,"x_max":0,"o":"m 72 608 b 397 703 164 674 279 703 b 699 485 603 703 699 617 l 699 218 b 732 143 699 169 706 143 b 794 163 756 143 782 157 l 794 35 b 586 -12 746 15 682 -12 b 468 61 493 -12 476 36 b 254 -12 431 31 374 -12 b 49 161 92 -12 49 86 b 311 390 49 296 161 343 b 454 440 417 424 428 426 b 346 547 454 492 446 547 b 72 421 228 547 133 482 m 454 331 b 288 190 358 290 288 261 b 354 119 288 140 322 119 b 454 167 393 119 436 153 m 261 1017 b 397 921 269 999 300 921 b 532 1017 497 921 521 990 l 653 1017 b 396 782 638 901 538 782 b 140 1017 265 782 151 885 "},"ā":{"ha":793,"x_min":0,"x_max":0,"o":"m 72 608 b 397 703 164 674 279 703 b 699 485 603 703 699 617 l 699 218 b 732 143 699 169 706 143 b 794 163 756 143 782 157 l 794 35 b 586 -12 746 15 682 -12 b 468 61 493 -12 476 36 b 254 -12 431 31 374 -12 b 49 161 92 -12 49 86 b 311 390 49 296 161 343 b 454 440 417 424 428 426 b 346 547 454 492 446 547 b 72 421 228 547 133 482 m 454 331 b 288 190 358 290 288 261 b 354 119 288 140 322 119 b 454 167 393 119 436 153 m 135 797 l 135 964 l 658 964 l 658 797 "},"ą":{"ha":793,"x_min":0,"x_max":0,"o":"m 72 608 b 397 703 164 674 279 703 b 699 485 603 703 699 617 l 699 218 b 732 143 699 169 706 143 b 794 163 756 143 782 157 l 794 35 b 644 -8 757 19 708 0 b 633 -69 638 -28 633 -49 b 714 -136 633 -100 667 -136 b 774 -126 747 -136 754 -133 l 774 -243 b 653 -271 736 -261 700 -271 b 506 -111 571 -271 506 -214 b 531 -4 506 -76 513 -40 b 468 61 485 10 474 42 b 254 -12 431 31 374 -12 b 49 161 92 -12 49 86 b 311 390 49 296 161 343 b 454 440 417 424 428 426 b 346 547 454 492 446 547 b 72 421 228 547 133 482 m 454 331 b 288 190 358 290 288 261 b 354 119 288 140 322 119 b 454 167 393 119 436 153 "},"ǽ":{"ha":1158,"x_min":0,"x_max":0,"o":"m 72 608 b 369 703 133 644 232 703 b 588 642 481 703 544 667 b 781 703 617 663 672 703 b 1117 335 946 703 1117 593 l 1117 286 l 672 286 b 864 143 681 160 825 143 b 1101 214 917 143 992 158 l 1101 58 b 797 -12 1006 17 903 -12 b 514 75 696 -12 596 17 b 243 -12 418 10 329 -12 b 49 163 115 -12 49 75 b 307 389 49 313 224 364 b 446 435 400 417 410 419 b 346 547 446 515 436 547 b 72 425 226 547 144 488 m 446 329 b 289 193 343 281 289 256 b 351 119 289 168 301 119 b 446 161 399 119 428 144 m 889 407 b 779 553 886 460 871 553 b 668 407 715 553 669 507 m 547 997 l 811 997 l 561 782 l 431 782 "},"ć":{"ha":710,"x_min":0,"x_max":0,"o":"m 658 471 b 472 508 614 485 529 508 b 306 347 399 508 306 467 b 472 182 306 229 399 182 b 669 224 529 182 611 206 l 669 32 b 436 -12 614 13 546 -12 b 49 347 107 -12 49 242 b 436 703 49 453 107 703 b 658 663 546 703 604 682 m 392 997 l 656 997 l 406 782 l 275 782 "},"č":{"ha":710,"x_min":0,"x_max":0,"o":"m 658 471 b 472 508 614 485 529 508 b 306 347 399 508 306 467 b 472 182 306 229 399 182 b 669 224 529 182 611 206 l 669 32 b 436 -12 614 13 546 -12 b 49 347 107 -12 49 242 b 436 703 49 453 107 703 b 658 663 546 703 604 682 m 288 1017 l 411 890 l 533 1017 l 679 1017 l 556 782 l 265 782 l 142 1017 "},"ĉ":{"ha":710,"x_min":0,"x_max":0,"o":"m 658 471 b 472 508 614 485 529 508 b 306 347 399 508 306 467 b 472 182 306 229 399 182 b 669 224 529 182 611 206 l 669 32 b 436 -12 614 13 546 -12 b 49 347 107 -12 49 242 b 436 703 49 453 107 703 b 658 663 546 703 604 682 m 533 782 l 411 907 l 288 782 l 142 782 l 265 1017 l 556 1017 l 679 782 "},"ċ":{"ha":710,"x_min":0,"x_max":0,"o":"m 658 471 b 472 508 614 485 529 508 b 306 347 399 508 306 467 b 472 182 306 229 399 182 b 669 224 529 182 611 206 l 669 32 b 436 -12 614 13 546 -12 b 49 347 107 -12 49 242 b 436 703 49 453 107 703 b 658 663 546 703 604 682 m 318 875 b 411 968 318 925 358 968 b 504 875 464 968 504 925 b 411 782 504 824 464 782 b 318 875 358 782 318 825 "},"ď":{"ha":1163,"x_min":0,"x_max":0,"o":"m 564 0 l 564 63 b 363 -12 536 39 481 -12 b 49 340 224 -12 49 86 b 379 703 49 519 147 703 b 564 650 485 703 532 671 l 564 940 l 808 940 l 808 0 m 564 483 b 440 528 526 504 492 528 b 306 346 365 528 306 461 b 440 171 306 213 379 171 b 564 219 510 171 547 206 l 564 483 m 874 526 b 971 703 958 558 974 638 b 874 824 904 722 874 765 b 1006 953 874 890 929 953 b 1164 758 1115 953 1164 847 b 874 488 1164 653 1088 517 "},"đ":{"ha":885,"x_min":0,"x_max":0,"o":"m 414 882 l 564 882 l 564 940 l 808 940 l 808 882 l 903 882 l 903 767 l 808 767 l 808 0 l 564 0 l 564 63 b 363 -12 536 39 481 -12 b 49 340 224 -12 49 86 b 379 703 49 519 147 703 b 564 650 485 703 532 671 l 564 767 l 414 767 m 564 483 b 440 528 526 504 492 528 b 306 346 365 528 306 461 b 440 171 306 213 379 171 b 564 219 510 171 547 206 l 564 483 "},"ĕ":{"ha":828,"x_min":0,"x_max":0,"o":"m 786 286 l 300 286 b 496 143 318 200 403 143 b 768 213 589 143 682 172 l 768 61 b 444 -12 732 42 628 -12 b 49 349 181 -12 49 149 b 444 703 49 549 181 703 b 786 335 599 703 786 613 m 557 407 b 429 553 557 494 511 553 b 293 407 350 553 293 494 m 285 1017 b 421 921 293 999 324 921 b 556 1017 521 921 544 990 l 676 1017 b 419 782 661 901 561 782 b 164 1017 289 782 175 885 "},"ě":{"ha":828,"x_min":0,"x_max":0,"o":"m 786 286 l 300 286 b 496 143 318 200 403 143 b 768 213 589 143 682 172 l 768 61 b 444 -12 732 42 628 -12 b 49 349 181 -12 49 149 b 444 703 49 549 181 703 b 786 335 599 703 786 613 m 557 407 b 429 553 557 494 511 553 b 293 407 350 553 293 494 m 297 1017 l 421 890 l 543 1017 l 689 1017 l 565 782 l 275 782 l 151 1017 "},"ė":{"ha":828,"x_min":0,"x_max":0,"o":"m 786 286 l 300 286 b 496 143 318 200 403 143 b 768 213 589 143 682 172 l 768 61 b 444 -12 732 42 628 -12 b 49 349 181 -12 49 149 b 444 703 49 549 181 703 b 786 335 599 703 786 613 m 557 407 b 429 553 557 494 511 553 b 293 407 350 553 293 494 m 328 875 b 421 968 328 925 368 968 b 514 875 474 968 514 925 b 421 782 514 824 474 782 b 328 875 368 782 328 825 "},"ē":{"ha":828,"x_min":0,"x_max":0,"o":"m 786 286 l 300 286 b 496 143 318 200 403 143 b 768 213 589 143 682 172 l 768 61 b 444 -12 732 42 628 -12 b 49 349 181 -12 49 149 b 444 703 49 549 181 703 b 786 335 599 703 786 613 m 557 407 b 429 553 557 494 511 553 b 293 407 350 553 293 494 m 158 797 l 158 964 l 682 964 l 682 797 "},"ŋ":{"ha":883,"x_min":0,"x_max":0,"o":"m 815 -40 b 550 -326 815 -258 647 -326 l 468 -140 b 571 74 560 -111 571 -64 l 571 358 b 471 514 571 403 576 514 b 322 406 389 514 344 435 l 322 0 l 78 0 l 78 690 l 322 690 l 322 592 b 567 703 400 675 476 703 b 815 406 824 703 815 468 "},"ę":{"ha":828,"x_min":0,"x_max":0,"o":"m 786 286 l 300 286 b 496 143 318 200 403 143 b 768 213 589 143 682 172 l 768 61 b 597 1 743 47 688 18 b 582 -69 588 -19 582 -44 b 663 -136 582 -100 615 -136 b 722 -126 696 -136 703 -133 l 722 -243 b 601 -271 685 -261 649 -271 b 454 -111 519 -271 454 -214 b 476 -11 454 -78 460 -44 b 444 -12 465 -12 456 -12 b 49 349 181 -12 49 149 b 444 703 49 549 181 703 b 786 335 599 703 786 613 m 557 407 b 429 553 557 494 511 553 b 293 407 350 553 293 494 "},"ğ":{"ha":782,"x_min":0,"x_max":0,"o":"m 772 543 l 651 543 b 715 407 678 521 715 478 b 442 182 715 293 619 192 b 357 136 410 181 357 174 b 481 93 357 103 388 101 b 746 -107 550 88 746 72 b 392 -326 746 -232 656 -326 b 35 -144 132 -326 35 -247 b 199 0 35 -117 47 -19 b 139 88 165 13 139 50 b 244 204 139 124 161 189 b 54 426 156 226 54 297 b 393 690 54 613 206 690 l 772 690 m 267 424 b 381 314 267 365 310 314 b 503 426 451 314 503 365 b 388 542 503 499 442 542 b 267 424 306 542 267 474 m 403 -57 b 243 -132 290 -57 243 -79 b 399 -210 243 -210 369 -210 b 551 -129 486 -210 551 -185 b 403 -57 551 -60 436 -57 m 258 1017 b 394 921 267 999 297 921 b 529 1017 494 921 518 990 l 650 1017 b 393 782 635 901 535 782 b 138 1017 263 782 149 885 "},"ĝ":{"ha":782,"x_min":0,"x_max":0,"o":"m 772 543 l 651 543 b 715 407 678 521 715 478 b 442 182 715 293 619 192 b 357 136 410 181 357 174 b 481 93 357 103 388 101 b 746 -107 550 88 746 72 b 392 -326 746 -232 656 -326 b 35 -144 132 -326 35 -247 b 199 0 35 -117 47 -19 b 139 88 165 13 139 50 b 244 204 139 124 161 189 b 54 426 156 226 54 297 b 393 690 54 613 206 690 l 772 690 m 267 424 b 381 314 267 365 310 314 b 503 426 451 314 503 365 b 388 542 503 499 442 542 b 267 424 306 542 267 474 m 403 -57 b 243 -132 290 -57 243 -79 b 399 -210 243 -210 369 -210 b 551 -129 486 -210 551 -185 b 403 -57 551 -60 436 -57 m 514 782 l 392 907 l 268 782 l 122 782 l 246 1017 l 536 1017 l 660 782 "},"ģ":{"ha":782,"x_min":0,"x_max":0,"o":"m 772 543 l 651 543 b 715 407 678 521 715 478 b 442 182 715 293 619 192 b 357 136 410 181 357 174 b 481 93 357 103 388 101 b 746 -107 550 88 746 72 b 392 -326 746 -232 656 -326 b 35 -144 132 -326 35 -247 b 199 0 35 -117 47 -19 b 139 88 165 13 139 50 b 244 204 139 124 161 189 b 54 426 156 226 54 297 b 393 690 54 613 206 690 l 772 690 m 267 424 b 381 314 267 365 310 314 b 503 426 451 314 503 365 b 388 542 503 499 442 542 b 267 424 306 542 267 474 m 403 -57 b 243 -132 290 -57 243 -79 b 399 -210 243 -210 369 -210 b 551 -129 486 -210 551 -185 b 403 -57 551 -60 436 -57 m 501 1039 b 449 908 483 1022 443 978 b 507 832 504 888 507 843 b 413 753 507 783 458 753 b 297 869 363 753 297 788 b 501 1069 297 967 386 1061 "},"ġ":{"ha":782,"x_min":0,"x_max":0,"o":"m 772 543 l 651 543 b 715 407 678 521 715 478 b 442 182 715 293 619 192 b 357 136 410 181 357 174 b 481 93 357 103 388 101 b 746 -107 550 88 746 72 b 392 -326 746 -232 656 -326 b 35 -144 132 -326 35 -247 b 199 0 35 -117 47 -19 b 139 88 165 13 139 50 b 244 204 139 124 161 189 b 54 426 156 226 54 297 b 393 690 54 613 206 690 l 772 690 m 267 424 b 381 314 267 365 310 314 b 503 426 451 314 503 365 b 388 542 503 499 442 542 b 267 424 306 542 267 474 m 403 -57 b 243 -132 290 -57 243 -79 b 399 -210 243 -210 369 -210 b 551 -129 486 -210 551 -185 b 403 -57 551 -60 436 -57 m 297 875 b 390 968 297 925 338 968 b 483 875 443 968 483 925 b 390 782 483 824 443 782 b 297 875 338 782 297 825 "},"ħ":{"ha":883,"x_min":0,"x_max":0,"o":"m 322 767 l 322 592 b 567 703 408 683 489 703 b 815 424 717 703 815 624 l 815 0 l 571 0 l 571 358 b 471 514 571 364 589 514 b 322 406 399 514 350 447 l 322 0 l 78 0 l 78 767 l -17 767 l -17 882 l 78 882 l 78 940 l 322 940 l 322 882 l 594 882 l 594 767 "},"ĥ":{"ha":883,"x_min":0,"x_max":0,"o":"m 322 940 l 322 592 b 567 703 408 683 489 703 b 815 424 717 703 815 624 l 815 0 l 571 0 l 571 358 b 471 514 571 364 589 514 b 322 406 399 514 350 447 l 322 0 l 78 0 l 78 940 m 564 1004 l 442 1129 l 318 1004 l 172 1004 l 296 1239 l 586 1239 l 710 1004 "},"ĭ":{"ha":425,"x_min":0,"x_max":0,"o":"m 335 690 l 335 0 l 90 0 l 90 690 m 78 1017 b 214 921 86 999 117 921 b 349 1017 314 921 338 990 l 469 1017 b 213 782 454 901 354 782 b -43 1017 82 782 -32 885 "},"ĳ":{"ha":850,"x_min":0,"x_max":0,"o":"m 335 690 l 335 0 l 90 0 l 90 690 m 213 953 b 315 850 269 953 315 907 b 213 747 315 793 269 747 b 110 850 156 747 110 793 b 213 953 110 907 156 953 m 760 690 l 760 -40 b 494 -326 760 -258 592 -326 l 413 -140 b 515 74 504 -111 515 -64 l 515 690 m 638 953 b 740 850 694 953 740 907 b 638 747 740 793 694 747 b 535 850 581 747 535 793 b 638 953 535 907 581 953 "},"ī":{"ha":425,"x_min":0,"x_max":0,"o":"m 335 690 l 335 0 l 90 0 l 90 690 m -49 797 l -49 964 l 475 964 l 475 797 "},"į":{"ha":425,"x_min":0,"x_max":0,"o":"m 335 690 l 335 0 l 257 0 b 242 -69 247 -21 242 -44 b 322 -136 242 -100 275 -136 b 382 -126 356 -136 363 -133 l 382 -243 b 261 -271 344 -261 308 -271 b 114 -111 179 -271 114 -214 b 142 0 114 -74 121 -37 l 90 0 l 90 690 m 213 953 b 315 850 269 953 315 907 b 213 747 315 793 269 747 b 110 850 156 747 110 793 b 213 953 110 907 156 953 "},"ĩ":{"ha":425,"x_min":0,"x_max":0,"o":"m 335 690 l 335 0 l 90 0 l 90 690 m 482 999 b 322 782 482 858 418 782 b 108 840 253 782 153 840 b 53 782 68 840 56 807 l -56 782 b 103 999 -56 939 38 999 b 221 969 136 999 179 983 b 319 939 261 954 300 939 b 372 999 357 939 372 974 "},"ĵ":{"ha":425,"x_min":0,"x_max":0,"o":"m 335 690 l 335 -40 b 69 -326 335 -258 167 -326 l -12 -140 b 90 74 79 -111 90 -64 l 90 690 m 335 782 l 213 907 l 89 782 l -57 782 l 67 1017 l 357 1017 l 481 782 "},"ķ":{"ha":899,"x_min":0,"x_max":0,"o":"m 324 940 l 324 389 l 565 690 l 858 690 l 589 368 l 899 0 l 589 0 l 324 328 l 324 0 l 76 0 l 76 940 m 335 -165 b 446 -139 439 -171 446 -158 b 386 -110 446 -126 429 -110 l 386 -42 b 607 -144 574 -42 607 -85 b 447 -258 607 -204 547 -258 b 335 -244 403 -258 364 -251 "},"ĺ":{"ha":425,"x_min":0,"x_max":0,"o":"m 335 940 l 335 0 l 90 0 l 90 940 m 208 1219 l 472 1219 l 222 1004 l 92 1004 "},"ľ":{"ha":693,"x_min":0,"x_max":0,"o":"m 335 940 l 335 0 l 90 0 l 90 940 m 404 526 b 501 703 489 558 504 638 b 404 824 435 722 404 765 b 536 953 404 890 460 953 b 694 758 646 953 694 847 b 404 488 694 653 618 517 "},"ļ":{"ha":425,"x_min":0,"x_max":0,"o":"m 335 940 l 335 0 l 90 0 l 90 940 m 76 -165 b 188 -139 181 -171 188 -158 b 128 -110 188 -126 171 -110 l 128 -42 b 349 -144 315 -42 349 -85 b 189 -258 349 -204 289 -258 b 76 -244 144 -258 106 -251 "},"ŀ":{"ha":525,"x_min":0,"x_max":0,"o":"m 335 940 l 335 0 l 90 0 l 90 940 m 383 482 b 476 575 383 532 424 575 b 569 482 529 575 569 532 b 476 389 569 431 529 389 b 383 482 424 389 383 432 "},"ń":{"ha":883,"x_min":0,"x_max":0,"o":"m 322 690 l 322 592 b 567 703 400 675 476 703 b 815 406 824 703 815 468 l 815 0 l 571 0 l 571 358 b 471 514 571 403 576 514 b 322 406 389 514 344 435 l 322 0 l 78 0 l 78 690 m 438 997 l 701 997 l 451 782 l 321 782 "},"ň":{"ha":883,"x_min":0,"x_max":0,"o":"m 322 690 l 322 592 b 567 703 400 675 476 703 b 815 406 824 703 815 468 l 815 0 l 571 0 l 571 358 b 471 514 571 403 576 514 b 322 406 389 514 344 435 l 322 0 l 78 0 l 78 690 m 318 1017 l 442 890 l 564 1017 l 710 1017 l 586 782 l 296 782 l 172 1017 "},"ņ":{"ha":883,"x_min":0,"x_max":0,"o":"m 322 690 l 322 592 b 567 703 400 675 476 703 b 815 406 824 703 815 468 l 815 0 l 571 0 l 571 358 b 471 514 571 403 576 514 b 322 406 389 514 344 435 l 322 0 l 78 0 l 78 690 m 324 -165 b 435 -139 428 -171 435 -158 b 375 -110 435 -126 418 -110 l 375 -42 b 596 -144 563 -42 596 -85 b 436 -258 596 -204 536 -258 b 324 -244 392 -258 353 -251 "},"ŏ":{"ha":889,"x_min":0,"x_max":0,"o":"m 444 703 b 840 346 708 703 840 547 b 444 -12 840 144 708 -12 b 49 346 181 -12 49 144 b 444 703 49 547 181 703 m 444 521 b 306 346 353 521 306 451 b 444 169 306 240 353 169 b 583 346 536 169 583 240 b 444 521 583 451 536 521 m 308 1017 b 444 921 317 999 347 921 b 579 1017 544 921 568 990 l 700 1017 b 443 782 685 901 585 782 b 188 1017 313 782 199 885 "},"ő":{"ha":889,"x_min":0,"x_max":0,"o":"m 444 703 b 840 346 708 703 840 547 b 444 -12 840 144 708 -12 b 49 346 181 -12 49 144 b 444 703 49 547 181 703 m 444 521 b 306 346 353 521 306 451 b 444 169 306 240 353 169 b 583 346 536 169 583 240 b 444 521 583 451 536 521 m 617 997 l 881 997 l 631 782 l 500 782 m 289 997 l 553 997 l 303 782 l 174 782 "},"ō":{"ha":889,"x_min":0,"x_max":0,"o":"m 444 703 b 840 346 708 703 840 547 b 444 -12 840 144 708 -12 b 49 346 181 -12 49 144 b 444 703 49 547 181 703 m 444 521 b 306 346 353 521 306 451 b 444 169 306 240 353 169 b 583 346 536 169 583 240 b 444 521 583 451 536 521 m 182 797 l 182 964 l 706 964 l 706 797 "},"ǿ":{"ha":889,"x_min":0,"x_max":0,"o":"m 765 758 l 824 706 l 735 606 b 840 346 807 538 840 444 b 449 -12 840 194 747 -12 b 219 39 313 -12 250 22 l 124 -68 l 65 -17 l 156 85 b 117 126 147 93 135 104 b 49 342 72 182 49 261 b 443 703 49 524 167 703 b 669 653 522 703 601 690 m 528 496 b 447 524 494 524 461 524 b 306 344 343 524 306 438 b 318 263 306 325 308 292 m 363 196 b 446 167 386 178 415 167 b 583 351 503 167 583 201 b 572 428 583 397 576 417 m 443 997 l 707 997 l 457 782 l 326 782 "},"ŕ":{"ha":685,"x_min":0,"x_max":0,"o":"m 321 690 l 321 524 b 539 703 343 585 421 703 b 685 653 603 703 642 679 l 594 408 b 482 461 557 444 525 461 b 321 297 419 461 369 431 l 321 0 l 76 0 l 76 690 m 351 997 l 615 997 l 365 782 l 235 782 "},"ř":{"ha":685,"x_min":0,"x_max":0,"o":"m 321 690 l 321 524 b 539 703 343 585 421 703 b 685 653 603 703 642 679 l 594 408 b 482 461 557 444 525 461 b 321 297 419 461 369 431 l 321 0 l 76 0 l 76 690 m 219 1017 l 343 890 l 465 1017 l 611 1017 l 488 782 l 197 782 l 74 1017 "},"ŗ":{"ha":685,"x_min":0,"x_max":0,"o":"m 321 690 l 321 524 b 539 703 343 585 421 703 b 685 653 603 703 642 679 l 594 408 b 482 461 557 444 525 461 b 321 297 419 461 369 431 l 321 0 l 76 0 l 76 690 m 89 -165 b 200 -139 193 -171 200 -158 b 140 -110 200 -126 183 -110 l 140 -42 b 361 -144 328 -42 361 -85 b 201 -258 361 -204 301 -258 b 89 -244 157 -258 118 -251 "},"ś":{"ha":672,"x_min":0,"x_max":0,"o":"m 582 478 b 382 547 554 493 479 547 b 308 499 318 547 308 511 b 397 431 308 479 314 463 b 618 201 563 367 618 307 b 342 -12 618 83 533 -12 b 75 42 228 -12 146 15 l 75 215 b 282 143 125 186 197 143 b 374 193 326 143 374 154 b 226 293 374 228 336 246 b 64 496 153 325 64 389 b 344 703 64 593 153 703 b 582 647 361 703 474 703 m 332 997 l 596 997 l 346 782 l 215 782 "},"ş":{"ha":672,"x_min":0,"x_max":0,"o":"m 582 478 b 382 547 554 493 479 547 b 308 499 318 547 308 511 b 397 431 308 479 314 463 b 618 201 563 367 618 307 b 385 -11 618 92 546 1 l 371 -40 b 486 -157 444 -58 486 -100 b 263 -292 486 -228 425 -292 l 129 -292 l 129 -199 b 264 -144 197 -199 264 -192 b 199 -101 264 -117 246 -104 l 267 -8 b 75 42 190 0 129 21 l 75 215 b 282 143 125 186 197 143 b 374 193 326 143 374 154 b 226 293 374 228 336 246 b 64 496 153 325 64 389 b 344 703 64 593 153 703 b 582 647 361 703 474 703 "},"ŝ":{"ha":672,"x_min":0,"x_max":0,"o":"m 582 478 b 382 547 554 493 479 547 b 308 499 318 547 308 511 b 397 431 308 479 314 463 b 618 201 563 367 618 307 b 342 -12 618 83 533 -12 b 75 42 228 -12 146 15 l 75 215 b 282 143 125 186 197 143 b 374 193 326 143 374 154 b 226 293 374 228 336 246 b 64 496 153 325 64 389 b 344 703 64 593 153 703 b 582 647 361 703 474 703 m 458 782 l 336 907 l 213 782 l 67 782 l 190 1017 l 481 1017 l 604 782 "},"ș":{"ha":672,"x_min":0,"x_max":0,"o":"m 582 478 b 382 547 554 493 479 547 b 308 499 318 547 308 511 b 397 431 308 479 314 463 b 618 201 563 367 618 307 b 342 -12 618 83 533 -12 b 75 42 228 -12 146 15 l 75 215 b 282 143 125 186 197 143 b 374 193 326 143 374 154 b 226 293 374 228 336 246 b 64 496 153 325 64 389 b 344 703 64 593 153 703 b 582 647 361 703 474 703 m 208 -165 b 319 -139 313 -171 319 -158 b 260 -110 319 -126 303 -110 l 260 -42 b 481 -144 447 -42 481 -85 b 321 -258 481 -204 421 -258 b 208 -244 276 -258 238 -251 "},"ŧ":{"ha":651,"x_min":0,"x_max":0,"o":"m 371 304 l 371 300 b 469 182 371 242 371 182 b 622 231 522 182 568 203 l 622 40 b 390 -12 578 18 479 -12 b 126 246 208 -12 126 81 l 126 304 l 15 304 l 15 419 l 126 419 l 126 521 l 15 521 l 15 564 l 343 897 l 371 897 l 371 690 l 604 690 l 604 521 l 371 521 l 371 419 l 604 419 l 604 304 "},"ť":{"ha":935,"x_min":0,"x_max":0,"o":"m 604 521 l 371 521 l 371 300 b 469 182 371 242 371 182 b 622 231 522 182 568 203 l 622 40 b 390 -12 578 18 479 -12 b 126 246 208 -12 126 81 l 126 521 l 15 521 l 15 564 l 343 897 l 371 897 l 371 690 l 604 690 m 646 526 b 743 703 731 558 746 638 b 646 824 676 722 646 765 b 778 953 646 890 701 953 b 936 758 888 953 936 847 b 646 488 936 653 860 517 "},"ţ":{"ha":651,"x_min":0,"x_max":0,"o":"m 604 521 l 371 521 l 371 300 b 469 182 371 242 371 182 b 622 231 522 182 568 203 l 622 40 b 390 -12 578 18 479 -12 b 126 246 208 -12 126 81 l 126 521 l 15 521 l 15 564 l 343 897 l 371 897 l 371 690 l 604 690 m 263 -165 b 374 -139 367 -171 374 -158 b 314 -110 374 -126 357 -110 l 314 -42 b 535 -144 501 -42 535 -85 b 375 -258 535 -204 475 -258 b 263 -244 331 -258 292 -251 "},"ț":{"ha":651,"x_min":0,"x_max":0,"o":"m 604 690 l 371 690 l 371 897 l 343 897 l 15 564 l 15 521 l 126 521 l 126 246 b 390 -12 126 81 208 -12 b 622 40 479 -12 578 18 l 622 231 b 469 182 568 203 522 182 b 371 300 371 182 371 242 l 371 521 l 604 521 m 263 -244 b 375 -258 292 -251 331 -258 b 535 -144 475 -258 535 -204 b 314 -42 535 -85 501 -42 l 314 -110 b 374 -139 357 -110 374 -126 b 263 -165 374 -158 367 -171 "},"ŭ":{"ha":883,"x_min":0,"x_max":0,"o":"m 561 0 l 561 99 b 317 -12 497 29 426 -12 b 68 285 60 -12 68 222 l 68 690 l 313 690 l 313 332 b 413 176 313 288 307 176 b 561 285 496 176 543 258 l 561 690 l 806 690 l 806 0 m 306 1017 b 442 921 314 999 344 921 b 576 1017 542 921 565 990 l 697 1017 b 440 782 682 901 582 782 b 185 1017 310 782 196 885 "},"ű":{"ha":883,"x_min":0,"x_max":0,"o":"m 561 0 l 561 99 b 317 -12 497 29 426 -12 b 68 285 60 -12 68 222 l 68 690 l 313 690 l 313 332 b 413 176 313 288 307 176 b 561 285 496 176 543 258 l 561 690 l 806 690 l 806 0 m 614 997 l 878 997 l 628 782 l 497 782 m 286 997 l 550 997 l 300 782 l 171 782 "},"ū":{"ha":883,"x_min":0,"x_max":0,"o":"m 561 0 l 561 99 b 317 -12 497 29 426 -12 b 68 285 60 -12 68 222 l 68 690 l 313 690 l 313 332 b 413 176 313 288 307 176 b 561 285 496 176 543 258 l 561 690 l 806 690 l 806 0 m 179 797 l 179 964 l 703 964 l 703 797 "},"ų":{"ha":883,"x_min":0,"x_max":0,"o":"m 736 0 b 721 -69 726 -21 721 -44 b 801 -136 721 -100 754 -136 b 861 -126 835 -136 842 -133 l 861 -243 b 740 -271 824 -261 788 -271 b 593 -111 658 -271 593 -214 b 621 0 593 -74 600 -37 l 561 0 l 561 99 b 317 -12 497 29 426 -12 b 68 285 60 -12 68 222 l 68 690 l 313 690 l 313 332 b 413 176 313 288 307 176 b 561 285 496 176 543 258 l 561 690 l 806 690 l 806 0 "},"ů":{"ha":883,"x_min":0,"x_max":0,"o":"m 561 0 l 561 99 b 317 -12 497 29 426 -12 b 68 285 60 -12 68 222 l 68 690 l 313 690 l 313 332 b 413 176 313 288 307 176 b 561 285 496 176 543 258 l 561 690 l 806 690 l 806 0 m 440 1060 b 581 921 518 1060 581 999 b 440 781 581 843 518 781 b 301 921 363 781 301 843 b 440 1060 301 999 363 1060 m 440 993 b 368 921 400 993 368 961 b 440 847 368 881 400 847 b 514 921 481 847 514 881 b 440 993 514 961 481 993 "},"ũ":{"ha":883,"x_min":0,"x_max":0,"o":"m 561 0 l 561 99 b 317 -12 497 29 426 -12 b 68 285 60 -12 68 222 l 68 690 l 313 690 l 313 332 b 413 176 313 288 307 176 b 561 285 496 176 543 258 l 561 690 l 806 690 l 806 0 m 710 999 b 550 782 710 858 646 782 b 336 840 481 782 381 840 b 281 782 296 840 283 807 l 172 782 b 331 999 172 939 265 999 b 449 969 364 999 407 983 b 547 939 489 954 528 939 b 600 999 585 939 600 974 "},"ẃ":{"ha":1186,"x_min":0,"x_max":0,"o":"m 257 690 l 383 342 l 518 690 l 674 690 l 810 342 l 932 690 l 1176 690 l 904 0 l 750 0 l 596 376 l 443 0 l 289 0 l 10 690 m 575 997 l 839 997 l 589 782 l 458 782 "},"ŵ":{"ha":1186,"x_min":0,"x_max":0,"o":"m 257 690 l 383 342 l 518 690 l 674 690 l 810 342 l 932 690 l 1176 690 l 904 0 l 750 0 l 596 376 l 443 0 l 289 0 l 10 690 m 715 782 l 593 907 l 469 782 l 324 782 l 447 1017 l 738 1017 l 861 782 "},"ẅ":{"ha":1186,"x_min":0,"x_max":0,"o":"m 257 690 l 383 342 l 518 690 l 674 690 l 810 342 l 932 690 l 1176 690 l 904 0 l 750 0 l 596 376 l 443 0 l 289 0 l 10 690 m 326 875 b 419 968 326 925 367 968 b 513 875 472 968 513 925 b 419 782 513 824 472 782 b 326 875 367 782 326 825 m 672 875 b 765 968 672 925 711 968 b 858 875 818 968 858 925 b 765 782 858 824 818 782 b 672 875 711 782 672 825 "},"ẁ":{"ha":1186,"x_min":0,"x_max":0,"o":"m 257 690 l 383 342 l 518 690 l 674 690 l 810 342 l 932 690 l 1176 690 l 904 0 l 750 0 l 596 376 l 443 0 l 289 0 l 10 690 m 597 782 l 347 997 l 611 997 l 728 782 "},"ŷ":{"ha":810,"x_min":0,"x_max":0,"o":"m 281 690 l 421 347 l 581 690 l 818 690 l 349 -314 l 101 -314 l 292 90 l 18 690 m 528 782 l 406 907 l 282 782 l 136 782 l 260 1017 l 550 1017 l 674 782 "},"ỳ":{"ha":810,"x_min":0,"x_max":0,"o":"m 281 690 l 421 347 l 581 690 l 818 690 l 349 -314 l 101 -314 l 292 90 l 18 690 m 422 782 l 172 997 l 436 997 l 553 782 "},"ź":{"ha":767,"x_min":0,"x_max":0,"o":"m 47 690 l 735 690 l 735 668 l 404 181 l 728 181 l 728 0 l 19 0 l 19 22 l 350 510 l 47 510 m 351 997 l 615 997 l 365 782 l 235 782 "},"ż":{"ha":767,"x_min":0,"x_max":0,"o":"m 47 690 l 735 690 l 735 668 l 404 181 l 728 181 l 728 0 l 19 0 l 19 22 l 350 510 l 47 510 m 290 875 b 383 968 290 925 331 968 b 476 875 436 968 476 925 b 383 782 476 824 436 782 b 290 875 331 782 290 825 "},"ĸ":{"ha":899,"x_min":0,"x_max":0,"o":"m 324 690 l 324 389 l 565 690 l 858 690 l 589 368 l 899 0 l 589 0 l 324 328 l 324 0 l 76 0 l 76 690 "},"ŉ":{"ha":1176,"x_min":0,"x_max":0,"o":"m 57 565 b 119 743 78 590 128 650 b 49 850 50 774 49 839 b 165 960 49 918 108 960 b 301 800 225 960 301 913 b 57 524 301 672 204 539 m 615 690 l 615 592 b 860 703 693 675 769 703 b 1108 406 1117 703 1108 468 l 1108 0 l 864 0 l 864 358 b 764 514 864 403 869 514 b 615 406 682 514 638 435 l 615 0 l 371 0 l 371 690 "},"Δ":{"ha":1004,"x_min":0,"x_max":0,"o":"m 28 0 l 28 106 l 325 972 l 686 972 l 976 106 l 976 0 m 506 701 b 497 731 501 710 500 721 b 494 742 496 735 494 738 b 483 704 492 729 488 717 l 326 201 l 663 201 "},"∆":{"ha":1004,"x_min":0,"x_max":0,"o":"m 976 0 l 976 106 l 686 972 l 325 972 l 28 106 l 28 0 m 663 201 l 326 201 l 483 704 b 494 742 488 717 492 729 b 497 731 494 738 496 735 b 506 701 500 721 501 710 "},"Ω":{"ha":1029,"x_min":0,"x_max":0,"o":"m 564 0 l 564 192 b 697 513 631 258 697 356 b 519 772 697 668 635 772 b 331 507 399 772 331 668 b 465 192 331 350 400 253 l 465 0 l 53 0 l 53 200 l 232 200 b 49 558 144 268 49 372 b 524 989 49 807 240 989 b 981 564 825 989 981 803 b 796 200 981 390 900 281 l 978 200 l 978 0 "},"Ω":{"ha":1029,"x_min":0,"x_max":0,"o":"m 978 0 l 978 200 l 796 200 b 981 564 900 281 981 390 b 524 989 981 803 825 989 b 49 558 240 989 49 807 b 232 200 49 372 144 268 l 53 200 l 53 0 l 465 0 l 465 192 b 331 507 400 253 331 350 b 519 772 331 668 399 772 b 697 513 635 772 697 668 b 564 192 697 356 631 258 l 564 0 "},"μ":{"ha":883,"x_min":0,"x_max":0,"o":"m 313 -314 l 68 -314 l 68 690 l 313 690 l 313 329 b 413 176 313 278 311 176 b 561 282 486 176 531 239 l 561 690 l 806 690 l 806 0 l 561 0 l 561 38 b 429 -12 540 17 508 -12 b 313 21 368 -12 342 3 "},"π":{"ha":942,"x_min":0,"x_max":0,"o":"m 922 29 b 768 -12 896 8 833 -12 b 554 226 594 -12 554 117 l 554 524 l 415 524 l 415 217 b 392 0 415 117 407 57 l 149 0 b 176 229 168 72 176 146 l 176 522 b 81 485 149 518 110 503 l 14 639 b 258 703 75 681 176 703 l 904 703 l 904 524 l 794 524 l 794 258 b 833 165 794 204 803 165 b 878 182 850 165 861 171 "},"ℓ":{"ha":685,"x_min":0,"x_max":0,"o":"m 597 53 b 392 -24 549 15 474 -24 b 167 231 236 -24 167 83 l 167 293 l 96 228 l 40 321 l 167 436 l 167 707 b 408 1011 167 908 265 1011 b 590 829 544 1011 590 910 b 374 429 590 672 489 546 l 374 260 b 451 126 374 158 407 126 b 543 171 488 126 521 149 m 476 803 b 432 861 476 833 464 861 b 374 749 394 861 374 826 l 374 581 b 476 803 431 640 476 738 "},"℮":{"ha":918,"x_min":0,"x_max":0,"o":"m 219 383 l 219 119 b 431 35 276 64 347 35 b 711 208 557 35 646 97 b 761 178 728 199 744 188 b 431 -17 679 58 586 -17 b 56 383 199 -17 56 161 b 429 783 56 606 197 783 b 811 383 668 783 803 607 m 642 644 b 428 733 583 703 510 733 b 219 646 346 733 276 704 l 219 435 l 642 435 "},"∂":{"ha":800,"x_min":0,"x_max":0,"o":"m 779 625 b 749 368 779 536 769 449 b 351 -15 690 149 550 -15 b 43 278 168 -15 43 108 b 396 689 43 564 232 689 b 543 638 463 689 513 669 b 544 674 544 650 544 658 b 403 833 544 776 489 833 b 269 793 361 833 310 815 b 221 957 256 839 235 910 b 435 1017 272 992 350 1017 b 779 625 644 1017 779 874 m 351 171 b 519 458 440 171 501 322 b 438 518 503 494 478 518 b 286 264 360 518 286 408 b 351 171 286 210 308 171 "},"∏":{"ha":999,"x_min":0,"x_max":0,"o":"m 643 -317 l 643 722 l 354 722 l 354 -317 l 88 -317 l 88 958 l 911 958 l 911 -317 "},"∑":{"ha":876,"x_min":0,"x_max":0,"o":"m 28 -317 l 28 -169 l 356 329 l 46 804 l 46 958 l 761 958 l 761 738 l 367 738 l 632 333 l 354 -94 l 782 -94 l 782 -317 "},"∙":{"ha":390,"x_min":0,"x_max":0,"o":"m 197 617 b 342 471 278 617 342 551 b 197 325 342 390 278 325 b 50 471 118 325 50 390 b 197 617 50 553 118 617 "},"√":{"ha":713,"x_min":0,"x_max":0,"o":"m 507 -17 l 314 -17 l 168 363 l 97 314 l 17 436 l 269 611 l 404 250 l 568 1011 l 733 1011 "},"∞":{"ha":1065,"x_min":0,"x_max":0,"o":"m 1032 411 b 771 142 1032 253 917 142 b 531 265 682 142 594 185 b 294 142 475 196 393 142 b 33 408 171 142 33 226 b 294 669 33 581 171 669 b 533 546 397 669 476 618 b 769 669 576 603 661 669 b 1032 411 919 669 1032 558 m 847 410 b 754 503 847 461 815 503 b 625 407 701 503 664 467 b 756 310 660 349 701 310 b 847 410 815 310 847 358 m 311 310 b 439 407 364 310 407 357 b 310 503 404 461 364 503 b 218 407 253 503 218 458 b 311 310 218 354 254 310 "},"∫":{"ha":682,"x_min":0,"x_max":0,"o":"m 550 844 b 503 853 538 849 519 853 b 435 760 461 853 435 825 l 435 -14 b 161 -319 435 -186 360 -319 b 18 -293 117 -319 50 -308 l 32 -233 b 61 -119 40 -200 53 -151 b 122 -132 82 -126 104 -132 b 192 -39 168 -132 192 -100 l 192 732 b 467 1042 192 910 271 1042 b 613 1010 518 1042 585 1025 b 588 921 606 985 594 947 b 568 851 581 899 575 875 "},"≈":{"ha":810,"x_min":0,"x_max":0,"o":"m 769 579 b 547 442 708 486 647 442 b 389 485 501 442 440 450 b 272 526 353 508 314 526 b 157 432 228 526 188 488 l 35 579 b 263 728 93 663 154 728 b 421 686 324 728 374 714 b 540 643 471 657 503 643 b 657 731 588 643 632 690 m 769 249 b 547 111 708 156 647 111 b 389 154 501 111 440 119 b 272 196 353 178 314 196 b 157 101 228 196 188 157 l 35 249 b 263 397 93 332 154 397 b 421 356 324 397 374 383 b 540 313 471 326 503 313 b 657 400 588 313 632 360 "},"≠":{"ha":810,"x_min":0,"x_max":0,"o":"m 404 156 l 349 28 l 128 28 l 182 156 l 92 156 l 92 357 l 268 357 l 326 488 l 92 488 l 92 689 l 413 689 l 479 847 l 704 847 l 635 689 l 719 689 l 719 488 l 547 488 l 489 357 l 719 357 l 719 156 "},"≤":{"ha":810,"x_min":0,"x_max":0,"o":"m 719 207 l 92 444 l 92 632 l 719 868 l 719 663 l 356 538 l 719 413 m 92 0 l 92 182 l 719 182 l 719 0 "},"≥":{"ha":810,"x_min":0,"x_max":0,"o":"m 92 413 l 456 538 l 92 663 l 92 868 l 719 632 l 719 444 l 92 207 m 92 0 l 92 182 l 719 182 l 719 0 "},"◊":{"ha":776,"x_min":0,"x_max":0,"o":"m 685 486 l 414 0 l 301 0 l 32 485 l 301 972 l 414 972 m 358 756 l 214 486 l 358 218 l 503 486 "}," ":{"ha":413,"x_min":0,"x_max":0,"o":""},"­":{"ha":681,"x_min":0,"x_max":0,"o":"m 563 463 l 563 236 l 118 236 l 118 463 "},"ˉ":{"ha":463,"x_min":0,"x_max":0,"o":"m -31 797 l -31 964 l 493 964 l 493 797 "},"":{"ha":825,"x_min":0,"x_max":0,"o":"m 46 469 b 413 953 46 808 221 953 b 779 469 604 953 779 807 b 413 -12 779 131 604 -12 b 46 469 221 -12 46 131 m 314 469 b 413 188 314 343 314 188 b 511 469 511 188 511 343 b 413 754 511 576 511 754 b 314 469 314 754 314 576 "},"":{"ha":451,"x_min":0,"x_max":0,"o":"m 97 0 l 97 940 l 354 940 l 354 0 "},"":{"ha":451,"x_min":0,"x_max":0,"o":"m 354 0 l 354 940 l 97 940 l 97 0 "},"":{"ha":803,"x_min":0,"x_max":0,"o":"m 756 0 l 42 0 l 42 18 b 260 261 110 83 189 178 b 435 596 343 358 435 467 b 301 742 435 685 378 742 b 72 622 208 742 131 683 l 72 844 b 376 953 133 883 229 953 b 685 663 550 953 685 844 b 576 376 685 529 608 425 b 451 211 539 321 496 264 l 756 211 "},"":{"ha":724,"x_min":0,"x_max":0,"o":"m 44 267 b 260 174 90 228 172 174 b 394 283 350 174 394 232 b 238 408 394 353 336 407 l 207 408 l 207 560 l 243 560 b 379 669 347 560 379 632 b 261 778 379 724 333 778 b 69 713 194 778 124 749 l 69 893 b 326 953 133 919 217 953 b 642 701 557 953 642 793 b 514 492 642 615 579 528 b 657 261 565 464 657 407 b 346 -12 657 54 468 -12 b 44 56 246 -12 118 19 "},"":{"ha":825,"x_min":0,"x_max":0,"o":"m 414 0 l 414 203 l 32 203 l 32 382 l 463 940 l 664 940 l 664 364 l 775 364 l 775 203 l 664 203 l 664 0 m 414 364 l 414 665 l 181 364 "},"":{"ha":772,"x_min":0,"x_max":0,"o":"m 675 742 l 339 742 l 339 581 b 399 585 356 582 375 585 b 714 294 594 585 714 447 b 379 -12 714 136 606 -12 b 67 78 268 -12 158 15 l 67 281 b 326 182 114 246 239 182 b 451 293 431 182 451 257 b 272 419 451 350 415 419 b 131 392 199 419 154 401 l 131 940 l 675 940 "},"":{"ha":825,"x_min":0,"x_max":0,"o":"m 653 878 b 414 624 561 800 474 714 b 476 631 429 628 450 631 b 781 325 640 631 781 511 b 418 -12 781 151 639 -12 b 46 360 171 -12 46 171 b 421 954 46 576 196 794 m 536 329 b 415 456 536 422 471 456 b 290 329 318 456 290 374 b 411 199 290 257 340 199 b 536 329 504 199 536 281 "},"":{"ha":793,"x_min":0,"x_max":0,"o":"m 140 57 l 428 732 l 47 732 l 47 940 l 760 940 l 760 913 l 358 -12 "},"":{"ha":825,"x_min":0,"x_max":0,"o":"m 197 485 b 78 686 131 526 78 581 b 413 953 78 785 153 953 b 747 686 679 953 747 785 b 628 485 747 581 697 529 b 779 253 718 439 779 349 b 413 -12 779 185 736 -12 b 46 253 82 -12 46 185 b 197 485 46 349 104 439 m 413 543 b 510 668 461 543 510 592 b 415 794 510 711 490 794 b 315 668 338 794 315 718 b 413 543 315 592 364 543 m 414 138 b 538 278 476 138 538 189 b 413 417 538 369 468 417 b 288 278 354 417 288 368 b 414 138 288 179 357 138 "},"":{"ha":825,"x_min":0,"x_max":0,"o":"m 172 63 b 411 317 264 140 351 226 b 349 310 396 313 375 310 b 44 615 185 310 44 429 b 407 953 44 789 186 953 b 779 581 654 953 779 769 b 404 -14 779 364 629 146 m 289 611 b 410 485 289 518 354 485 b 535 611 507 485 535 567 b 414 742 535 683 485 742 b 289 611 321 742 289 660 "},"":{"ha":796,"x_min":0,"x_max":0,"o":"m 36 353 b 401 724 36 576 204 724 b 760 357 607 724 760 583 b 400 -12 760 107 579 -12 b 36 353 207 -12 36 121 m 399 499 b 281 357 314 499 281 433 b 397 213 281 285 313 213 b 515 360 474 213 515 271 b 399 499 515 435 479 499 "},"":{"ha":796,"x_min":0,"x_max":0,"o":"m 343 0 l 343 404 l 151 233 l 151 506 l 389 724 l 588 724 l 588 0 "},"":{"ha":796,"x_min":0,"x_max":0,"o":"m 728 208 l 728 0 l 44 0 l 44 49 l 239 189 b 454 433 368 282 454 356 b 339 513 454 468 440 513 b 68 406 254 513 163 464 l 68 636 b 422 724 200 693 293 724 b 701 493 636 724 701 614 b 544 208 701 400 669 332 "},"":{"ha":796,"x_min":0,"x_max":0,"o":"m 728 711 l 522 278 b 715 11 660 240 715 106 b 322 -325 715 -175 549 -325 b 68 -268 211 -325 132 -293 l 68 -32 b 304 -114 138 -79 203 -114 b 471 13 392 -114 471 -82 b 297 151 471 88 413 151 b 196 139 247 151 213 143 l 372 503 l 74 503 l 74 711 "},"":{"ha":796,"x_min":0,"x_max":0,"o":"m 686 0 l 686 -325 l 456 -325 l 456 0 l -4 0 l -4 161 l 514 724 l 686 724 l 686 161 l 801 161 l 801 0 m 456 161 l 456 406 l 233 161 "},"":{"ha":796,"x_min":0,"x_max":0,"o":"m 746 503 l 428 503 l 393 324 b 718 19 714 292 718 58 b 322 -325 718 -126 633 -325 b 72 -275 215 -325 143 -299 l 72 -40 b 329 -114 161 -83 236 -114 b 474 -11 419 -114 474 -78 b 260 121 474 26 450 121 b 129 113 242 121 179 121 l 225 711 l 746 711 "},"":{"ha":796,"x_min":0,"x_max":0,"o":"m 639 879 b 397 624 522 776 424 679 b 467 631 417 628 440 631 b 765 325 611 631 765 517 b 403 -12 765 151 624 -12 b 31 360 199 -12 31 128 b 411 960 31 608 221 819 m 521 331 b 400 457 521 381 494 457 b 275 329 333 457 275 400 b 394 199 275 260 322 199 b 521 331 463 199 521 246 "},"":{"ha":796,"x_min":0,"x_max":0,"o":"m 147 -174 l 436 503 l 56 503 l 56 711 l 768 711 l 768 682 l 367 -243 "},"":{"ha":796,"x_min":0,"x_max":0,"o":"m 182 485 b 63 686 133 507 63 583 b 399 953 63 785 129 953 b 733 686 647 953 733 797 b 614 485 733 575 663 510 b 764 253 736 424 764 318 b 397 -12 764 133 682 -12 b 31 253 100 -12 31 149 b 182 485 31 328 64 419 m 397 550 b 496 668 458 550 496 603 b 400 786 496 717 472 786 b 300 668 322 786 300 719 b 397 550 300 621 325 550 m 397 175 b 519 293 465 175 519 225 b 397 411 519 361 465 411 b 275 293 329 411 275 361 b 397 175 275 225 329 175 "},"":{"ha":796,"x_min":0,"x_max":0,"o":"m 157 -168 b 399 88 257 -81 326 -19 b 336 81 379 85 363 81 b 31 386 175 81 31 204 b 393 724 31 560 172 724 b 765 351 642 724 765 540 b 385 -249 765 135 610 -89 m 275 381 b 396 254 275 331 301 254 b 521 382 476 254 521 325 b 401 513 521 451 474 513 b 275 381 333 513 275 465 "},"":{"ha":492,"x_min":0,"x_max":0,"o":"m 17 242 b 244 490 17 406 118 490 b 474 242 372 490 474 406 b 244 -7 474 78 372 -7 b 17 242 118 -7 17 78 m 186 242 b 244 104 186 178 192 104 b 304 242 294 104 304 169 b 244 381 304 306 296 381 b 186 242 193 381 186 306 "},"":{"ha":492,"x_min":0,"x_max":0,"o":"m 161 0 l 161 478 l 331 478 l 331 0 "},"":{"ha":492,"x_min":0,"x_max":0,"o":"m 465 0 l 28 0 l 28 24 b 154 140 72 60 114 100 b 260 306 213 199 260 250 b 189 367 260 342 233 367 b 46 299 122 367 63 314 l 46 435 b 233 490 92 460 150 490 b 424 338 367 490 424 414 b 300 125 424 258 374 204 l 465 125 "},"":{"ha":492,"x_min":0,"x_max":0,"o":"m 53 158 b 189 104 99 124 138 104 b 261 149 225 104 261 119 b 149 201 261 194 200 201 l 149 296 b 251 340 194 296 251 296 b 186 385 251 360 231 385 b 68 346 171 385 129 382 l 68 458 b 228 490 92 467 164 490 b 421 357 361 490 421 415 b 358 253 421 319 403 285 b 431 138 408 224 431 185 b 232 -7 431 44 340 -7 b 53 29 165 -7 90 14 "},"":{"ha":492,"x_min":0,"x_max":0,"o":"m 251 0 l 251 100 l 14 100 l 14 203 l 275 483 l 403 483 l 403 199 l 468 199 l 468 100 l 403 100 l 403 0 m 251 199 l 251 328 l 131 199 "},"":{"ha":492,"x_min":0,"x_max":0,"o":"m 444 360 l 254 360 l 246 290 b 292 289 261 290 275 290 b 449 150 393 281 449 218 b 238 -7 449 63 376 -7 b 57 31 174 -7 113 6 l 57 143 b 193 108 88 129 146 108 b 274 158 247 108 274 128 b 169 215 274 189 246 215 b 90 203 132 215 108 208 l 119 478 l 444 478 "},"":{"ha":492,"x_min":0,"x_max":0,"o":"m 410 435 b 265 325 351 403 301 367 b 463 169 363 332 463 274 b 250 -7 463 86 390 -7 b 28 190 100 -7 28 89 b 274 490 28 313 129 429 m 310 171 b 247 239 310 217 279 239 b 181 171 200 239 181 201 b 244 104 181 132 207 104 b 310 171 288 104 310 140 "},"":{"ha":492,"x_min":0,"x_max":0,"o":"m 63 25 l 228 346 l 33 346 l 33 478 l 474 478 l 474 465 l 226 -4 "},"":{"ha":492,"x_min":0,"x_max":0,"o":"m 108 247 b 32 353 63 271 32 300 b 246 490 32 413 88 490 b 461 353 407 490 461 414 b 383 247 461 300 431 271 b 476 132 442 228 476 185 b 246 -7 476 85 440 -7 b 15 132 54 -7 15 82 b 108 247 15 185 50 228 m 246 289 b 296 342 274 289 296 310 b 246 394 296 365 282 394 b 197 342 210 394 197 368 b 246 289 197 310 219 289 m 246 88 b 306 146 276 88 306 110 b 246 206 306 186 278 206 b 186 146 215 206 186 186 b 246 88 186 107 217 88 "},"":{"ha":492,"x_min":0,"x_max":0,"o":"m 79 49 b 224 158 138 81 188 117 b 26 314 126 151 26 210 b 239 490 26 397 99 490 b 461 293 389 490 461 394 b 215 -7 461 171 360 54 m 179 313 b 242 244 179 267 210 244 b 308 313 289 244 308 282 b 244 379 308 351 282 379 b 179 313 201 379 179 343 "},"":{"ha":492,"x_min":0,"x_max":0,"o":"m 17 704 b 244 953 17 868 118 953 b 474 704 372 953 474 868 b 244 456 474 540 372 456 b 17 704 118 456 17 540 m 186 704 b 244 567 186 640 192 567 b 304 704 294 567 304 632 b 244 843 304 768 296 843 b 186 704 193 843 186 768 "},"":{"ha":492,"x_min":0,"x_max":0,"o":"m 161 463 l 161 940 l 331 940 l 331 463 "},"":{"ha":492,"x_min":0,"x_max":0,"o":"m 465 463 l 28 463 l 28 486 b 154 603 72 522 114 563 b 260 768 213 661 260 713 b 189 829 260 804 233 829 b 46 761 122 829 63 776 l 46 897 b 233 953 92 922 150 953 b 424 800 367 953 424 876 b 300 588 424 721 374 667 l 465 588 "},"":{"ha":492,"x_min":0,"x_max":0,"o":"m 53 621 b 189 567 99 586 138 567 b 261 611 225 567 261 582 b 149 664 261 657 200 664 l 149 758 b 251 803 194 758 251 758 b 186 847 251 822 231 847 b 68 808 171 847 129 844 l 68 921 b 228 953 92 929 164 953 b 421 819 361 953 421 878 b 358 715 421 782 403 747 b 431 600 408 686 431 647 b 232 456 431 507 340 456 b 53 492 165 456 90 476 "},"":{"ha":492,"x_min":0,"x_max":0,"o":"m 251 463 l 251 563 l 14 563 l 14 665 l 275 946 l 403 946 l 403 661 l 468 661 l 468 563 l 403 563 l 403 463 m 251 661 l 251 790 l 131 661 "},"":{"ha":492,"x_min":0,"x_max":0,"o":"m 444 822 l 254 822 l 246 753 b 292 751 261 753 275 753 b 449 613 393 743 449 681 b 238 456 449 525 376 456 b 57 493 174 456 113 468 l 57 606 b 193 571 88 592 146 571 b 274 621 247 571 274 590 b 169 678 274 651 246 678 b 90 665 132 678 108 671 l 119 940 l 444 940 "},"":{"ha":492,"x_min":0,"x_max":0,"o":"m 410 897 b 265 788 351 865 301 829 b 463 632 363 794 463 736 b 250 456 463 549 390 456 b 28 653 100 456 28 551 b 274 953 28 775 129 892 m 310 633 b 247 701 310 679 279 701 b 181 633 200 701 181 664 b 244 567 181 594 207 567 b 310 633 288 567 310 603 "},"":{"ha":492,"x_min":0,"x_max":0,"o":"m 63 488 l 228 808 l 33 808 l 33 940 l 474 940 l 474 928 l 226 458 "},"":{"ha":492,"x_min":0,"x_max":0,"o":"m 108 710 b 32 815 63 733 32 763 b 246 953 32 875 88 953 b 461 815 407 953 461 876 b 383 710 461 763 431 733 b 476 594 442 690 476 647 b 246 456 476 547 440 456 b 15 594 54 456 15 544 b 108 710 15 647 50 690 m 246 751 b 296 804 274 751 296 772 b 246 857 296 828 282 857 b 197 804 210 857 197 831 b 246 751 197 772 219 751 m 246 550 b 306 608 276 550 306 572 b 246 668 306 649 278 668 b 186 608 215 668 186 649 b 246 550 186 569 217 550 "},"":{"ha":492,"x_min":0,"x_max":0,"o":"m 79 511 b 224 621 138 543 188 579 b 26 776 126 614 26 672 b 239 953 26 860 99 953 b 461 756 389 953 461 857 b 215 456 461 633 360 517 m 179 775 b 242 707 179 729 210 707 b 308 775 289 707 308 744 b 244 842 308 814 282 842 b 179 775 201 842 179 806 "},"":{"ha":876,"x_min":0,"x_max":0,"o":"m 596 0 l 558 101 l 286 101 l 258 0 l 3 0 l 281 739 l 550 739 l 874 0 m 406 493 l 329 251 l 504 251 m 303 1075 b 439 979 311 1057 342 979 b 574 1075 539 979 563 1049 l 694 1075 b 438 840 679 960 579 840 b 182 1075 307 840 193 943 "},"":{"ha":876,"x_min":0,"x_max":0,"o":"m 596 0 l 558 101 l 286 101 l 258 0 l 3 0 l 281 739 l 550 739 l 874 0 m 406 493 l 329 251 l 504 251 m 176 856 l 176 1022 l 700 1022 l 700 856 "},"":{"ha":876,"x_min":0,"x_max":0,"o":"m 789 0 b 774 -69 779 -21 774 -44 b 854 -136 774 -100 807 -136 b 914 -126 888 -136 894 -133 l 914 -243 b 793 -271 876 -261 840 -271 b 646 -111 711 -271 646 -214 b 674 0 646 -74 653 -37 l 596 0 l 558 101 l 286 101 l 258 0 l 3 0 l 281 739 l 550 739 l 874 0 m 406 493 l 329 251 l 504 251 "},"":{"ha":1174,"x_min":0,"x_max":0,"o":"m 551 113 l 318 113 l 253 0 l 0 0 l 456 739 l 1110 739 l 1110 569 l 793 569 l 793 451 l 1093 451 l 1093 292 l 793 292 l 793 169 l 1118 169 l 1118 0 l 551 0 m 551 282 l 551 526 l 404 282 m 771 1056 l 1035 1056 l 785 840 l 654 840 "},"":{"ha":825,"x_min":0,"x_max":0,"o":"m 756 469 b 500 561 715 503 644 561 b 299 369 372 561 299 474 b 493 178 299 246 393 178 b 764 269 592 178 678 224 l 764 71 b 478 -10 696 31 615 -10 b 47 368 190 -10 47 178 b 506 749 47 575 201 749 b 756 690 642 749 718 711 m 464 1056 l 728 1056 l 478 840 l 347 840 "},"":{"ha":825,"x_min":0,"x_max":0,"o":"m 756 469 b 500 561 715 503 644 561 b 299 369 372 561 299 474 b 493 178 299 246 393 178 b 764 269 592 178 678 224 l 764 71 b 478 -10 696 31 615 -10 b 47 368 190 -10 47 178 b 506 749 47 575 201 749 b 756 690 642 749 718 711 m 346 1075 l 469 949 l 592 1075 l 738 1075 l 614 840 l 324 840 l 200 1075 "},"":{"ha":825,"x_min":0,"x_max":0,"o":"m 756 469 b 500 561 715 503 644 561 b 299 369 372 561 299 474 b 493 178 299 246 393 178 b 764 269 592 178 678 224 l 764 71 b 478 -10 696 31 615 -10 b 47 368 190 -10 47 178 b 506 749 47 575 201 749 b 756 690 642 749 718 711 m 599 840 l 476 965 l 353 840 l 207 840 l 331 1075 l 621 1075 l 744 840 "},"":{"ha":825,"x_min":0,"x_max":0,"o":"m 756 469 b 500 561 715 503 644 561 b 299 369 372 561 299 474 b 493 178 299 246 393 178 b 764 269 592 178 678 224 l 764 71 b 478 -10 696 31 615 -10 b 47 368 190 -10 47 178 b 506 749 47 575 201 749 b 756 690 642 749 718 711 m 389 933 b 482 1026 389 983 429 1026 b 575 933 535 1026 575 983 b 482 840 575 882 535 840 b 389 933 429 840 389 883 "},"":{"ha":863,"x_min":0,"x_max":0,"o":"m 81 739 l 394 739 b 815 368 753 739 815 482 b 393 0 815 243 749 0 l 81 0 m 322 188 l 400 188 b 564 368 510 188 564 274 b 400 551 564 490 494 551 l 322 551 m 253 1075 l 376 949 l 499 1075 l 644 1075 l 521 840 l 231 840 l 107 1075 "},"":{"ha":863,"x_min":0,"x_max":0,"o":"m 7 319 l 7 421 l 81 421 l 81 739 l 394 739 b 815 368 753 739 815 482 b 393 0 815 243 749 0 l 81 0 l 81 319 m 321 188 l 400 188 b 564 368 526 188 564 292 b 400 551 564 450 526 551 l 321 551 l 321 421 l 439 421 l 439 319 l 321 319 "},"":{"ha":713,"x_min":0,"x_max":0,"o":"m 649 569 l 322 569 l 322 458 l 633 458 l 633 299 l 322 299 l 322 169 l 657 169 l 657 0 l 81 0 l 81 739 l 649 739 m 221 1075 b 357 979 229 1057 260 979 b 492 1075 457 979 481 1049 l 613 1075 b 356 840 597 960 497 840 b 100 1075 225 840 111 943 "},"":{"ha":713,"x_min":0,"x_max":0,"o":"m 649 569 l 322 569 l 322 458 l 633 458 l 633 299 l 322 299 l 322 169 l 657 169 l 657 0 l 81 0 l 81 739 l 649 739 m 233 1075 l 357 949 l 479 1075 l 625 1075 l 501 840 l 211 840 l 88 1075 "},"":{"ha":713,"x_min":0,"x_max":0,"o":"m 649 569 l 322 569 l 322 458 l 633 458 l 633 299 l 322 299 l 322 169 l 657 169 l 657 0 l 81 0 l 81 739 l 649 739 m 274 933 b 367 1026 274 983 314 1026 b 460 933 419 1026 460 983 b 367 840 460 882 419 840 b 274 933 314 840 274 883 "},"":{"ha":713,"x_min":0,"x_max":0,"o":"m 649 569 l 322 569 l 322 458 l 633 458 l 633 299 l 322 299 l 322 169 l 657 169 l 657 0 l 81 0 l 81 739 l 649 739 m 101 856 l 101 1022 l 625 1022 l 625 856 "},"":{"ha":911,"x_min":0,"x_max":0,"o":"m 464 168 b 506 164 478 165 499 164 b 601 324 590 164 601 239 l 601 388 b 493 561 601 506 564 561 b 322 436 422 561 361 511 l 322 0 l 82 0 l 82 739 l 324 739 l 324 633 b 574 750 360 671 433 750 b 842 454 721 750 842 668 l 842 299 b 532 -12 842 110 790 -12 b 453 -6 513 -12 486 -11 "},"":{"ha":713,"x_min":0,"x_max":0,"o":"m 649 569 l 322 569 l 322 458 l 633 458 l 633 299 l 322 299 l 322 169 l 657 169 l 657 0 l 546 0 b 531 -69 536 -21 531 -44 b 611 -136 531 -100 564 -136 b 671 -126 644 -136 651 -133 l 671 -243 b 550 -271 633 -261 597 -271 b 403 -111 468 -271 403 -214 b 431 0 403 -74 410 -37 l 81 0 l 81 739 l 649 739 "},"":{"ha":874,"x_min":0,"x_max":0,"o":"m 786 501 b 506 561 719 526 621 561 b 299 365 378 561 299 485 b 488 178 299 239 378 178 b 563 188 515 178 532 179 l 563 271 l 471 271 l 471 410 l 804 410 l 804 89 b 482 -10 753 47 642 -10 b 47 368 228 -10 47 143 b 508 749 47 569 193 749 b 786 697 617 749 689 728 m 364 1075 b 500 979 372 1057 403 979 b 635 1075 600 979 624 1049 l 756 1075 b 499 840 740 960 640 840 b 243 1075 368 840 254 943 "},"":{"ha":874,"x_min":0,"x_max":0,"o":"m 786 501 b 506 561 719 526 621 561 b 299 365 378 561 299 485 b 488 178 299 239 378 178 b 563 188 515 178 532 179 l 563 271 l 471 271 l 471 410 l 804 410 l 804 89 b 482 -10 753 47 642 -10 b 47 368 228 -10 47 143 b 508 749 47 569 193 749 b 786 697 617 749 689 728 m 621 840 l 499 965 l 375 840 l 229 840 l 353 1075 l 643 1075 l 767 840 "},"":{"ha":874,"x_min":0,"x_max":0,"o":"m 786 501 b 506 561 719 526 621 561 b 299 365 378 561 299 485 b 488 178 299 239 378 178 b 563 188 515 178 532 179 l 563 271 l 471 271 l 471 410 l 804 410 l 804 89 b 482 -10 753 47 642 -10 b 47 368 228 -10 47 143 b 508 749 47 569 193 749 b 786 697 617 749 689 728 m 296 -235 b 332 -236 308 -236 317 -236 b 438 -192 414 -236 438 -224 b 319 -154 438 -157 379 -154 l 326 -78 l 410 -78 b 658 -210 567 -78 658 -103 b 436 -335 658 -292 568 -335 b 296 -314 388 -335 342 -326 "},"":{"ha":874,"x_min":0,"x_max":0,"o":"m 786 501 b 506 561 719 526 621 561 b 299 365 378 561 299 485 b 488 178 299 239 378 178 b 563 188 515 178 532 179 l 563 271 l 471 271 l 471 410 l 804 410 l 804 89 b 482 -10 753 47 642 -10 b 47 368 228 -10 47 143 b 508 749 47 569 193 749 b 786 697 617 749 689 728 m 404 933 b 497 1026 404 983 444 1026 b 590 933 550 1026 590 983 b 497 840 590 882 550 840 b 404 933 444 840 404 883 "},"":{"ha":911,"x_min":0,"x_max":0,"o":"m 15 658 l 81 658 l 81 739 l 322 739 l 322 658 l 589 658 l 589 739 l 831 739 l 831 658 l 896 658 l 896 557 l 831 557 l 831 0 l 589 0 l 589 271 l 322 271 l 322 0 l 81 0 l 81 557 l 15 557 m 589 468 l 589 557 l 322 557 l 322 468 "},"":{"ha":911,"x_min":0,"x_max":0,"o":"m 322 739 l 322 468 l 589 468 l 589 739 l 831 739 l 831 0 l 589 0 l 589 271 l 322 271 l 322 0 l 81 0 l 81 739 m 578 840 l 456 965 l 332 840 l 186 840 l 310 1075 l 600 1075 l 724 840 "},"":{"ha":403,"x_min":0,"x_max":0,"o":"m 322 0 l 81 0 l 81 739 l 322 739 m 67 1075 b 203 979 75 1057 106 979 b 338 1075 303 979 326 1049 l 458 1075 b 201 840 443 960 343 840 b -54 1075 71 840 -43 943 "},"":{"ha":403,"x_min":0,"x_max":0,"o":"m 322 0 l 81 0 l 81 739 l 322 739 m -60 856 l -60 1022 l 464 1022 l 464 856 "},"":{"ha":403,"x_min":0,"x_max":0,"o":"m 322 0 l 250 0 b 235 -69 240 -21 235 -44 b 315 -136 235 -100 268 -136 b 375 -126 349 -136 356 -133 l 375 -243 b 254 -271 338 -261 301 -271 b 107 -111 172 -271 107 -214 b 135 0 107 -74 114 -37 l 81 0 l 81 739 l 322 739 "},"":{"ha":403,"x_min":0,"x_max":0,"o":"m 322 0 l 81 0 l 81 739 l 322 739 m 471 1057 b 311 840 471 917 407 840 b 97 899 242 840 142 899 b 42 840 57 899 44 865 l -67 840 b 92 1057 -67 997 26 1057 b 210 1028 125 1057 168 1042 b 308 997 250 1013 289 997 b 361 1057 346 997 361 1032 "},"":{"ha":422,"x_min":0,"x_max":0,"o":"m 100 739 l 342 739 l 342 111 b 63 -246 342 -76 301 -246 b -35 -236 24 -246 -1 -242 l -61 -46 l -19 -46 b 100 129 103 -46 100 -7 m 344 840 l 222 965 l 99 840 l -47 840 l 76 1075 l 367 1075 l 490 840 "},"":{"ha":863,"x_min":0,"x_max":0,"o":"m 278 -235 b 314 -236 290 -236 299 -236 b 419 -192 396 -236 419 -224 b 301 -154 419 -157 361 -154 l 308 -78 l 392 -78 b 640 -210 549 -78 640 -103 b 418 -335 640 -292 550 -335 b 278 -314 369 -335 324 -326 m 322 739 l 322 469 l 528 739 l 788 739 l 539 404 l 863 0 l 560 0 l 322 296 l 322 0 l 81 0 l 81 739 "},"":{"ha":700,"x_min":0,"x_max":0,"o":"m 322 739 l 322 197 l 675 197 l 675 0 l 81 0 l 81 739 m 276 1056 l 540 1056 l 290 840 l 160 840 "},"":{"ha":700,"x_min":0,"x_max":0,"o":"m 429 375 b 515 532 504 403 518 474 b 429 639 456 549 429 586 b 546 753 429 699 478 753 b 686 581 644 753 686 660 b 429 340 686 488 618 367 m 322 739 l 322 197 l 675 197 l 675 0 l 81 0 l 81 739 "},"":{"ha":700,"x_min":0,"x_max":0,"o":"m 203 -235 b 239 -236 215 -236 224 -236 b 344 -192 321 -236 344 -224 b 226 -154 344 -157 286 -154 l 233 -78 l 317 -78 b 565 -210 474 -78 565 -103 b 343 -335 565 -292 475 -335 b 203 -314 294 -335 249 -326 m 322 739 l 322 197 l 675 197 l 675 0 l 81 0 l 81 739 "},"":{"ha":700,"x_min":0,"x_max":0,"o":"m 322 739 l 322 197 l 675 197 l 675 0 l 81 0 l 81 739 m 524 578 b 639 464 586 578 639 529 b 524 351 639 403 586 351 b 410 464 461 351 410 403 b 524 578 410 529 463 578 "},"":{"ha":904,"x_min":0,"x_max":0,"o":"m 294 739 l 582 400 l 582 739 l 824 739 l 824 0 l 625 0 l 322 363 l 322 0 l 81 0 l 81 739 m 433 1056 l 697 1056 l 447 840 l 317 840 "},"":{"ha":904,"x_min":0,"x_max":0,"o":"m 294 739 l 582 400 l 582 739 l 824 739 l 824 0 l 625 0 l 322 363 l 322 0 l 81 0 l 81 739 m 329 1075 l 453 949 l 575 1075 l 721 1075 l 597 840 l 307 840 l 183 1075 "},"":{"ha":904,"x_min":0,"x_max":0,"o":"m 294 -235 b 331 -236 307 -236 315 -236 b 436 -192 413 -236 436 -224 b 318 -154 436 -157 378 -154 l 325 -78 l 408 -78 b 657 -210 565 -78 657 -103 b 435 -335 657 -292 567 -335 b 294 -314 386 -335 340 -326 m 294 739 l 582 400 l 582 739 l 824 739 l 824 0 l 625 0 l 322 363 l 322 0 l 81 0 l 81 739 "},"":{"ha":926,"x_min":0,"x_max":0,"o":"m 47 368 b 461 749 47 561 217 749 b 879 371 669 749 879 600 b 463 -10 879 164 704 -10 b 47 368 238 -10 47 146 m 463 533 b 299 369 372 533 299 460 b 463 206 299 279 372 206 b 628 369 553 206 628 279 b 463 533 628 460 553 533 m 328 1075 b 464 979 336 1057 367 979 b 599 1075 564 979 588 1049 l 719 1075 b 463 840 704 960 604 840 b 207 1075 332 840 218 943 "},"":{"ha":926,"x_min":0,"x_max":0,"o":"m 47 368 b 461 749 47 561 217 749 b 879 371 669 749 879 600 b 463 -10 879 164 704 -10 b 47 368 238 -10 47 146 m 463 533 b 299 369 372 533 299 460 b 463 206 299 279 372 206 b 628 369 553 206 628 279 b 463 533 628 460 553 533 m 636 1056 l 900 1056 l 650 840 l 519 840 m 308 1056 l 572 1056 l 322 840 l 193 840 "},"":{"ha":926,"x_min":0,"x_max":0,"o":"m 47 368 b 461 749 47 561 217 749 b 879 371 669 749 879 600 b 463 -10 879 164 704 -10 b 47 368 238 -10 47 146 m 463 533 b 299 369 372 533 299 460 b 463 206 299 279 372 206 b 628 369 553 206 628 279 b 463 533 628 460 553 533 m 201 856 l 201 1022 l 725 1022 l 725 856 "},"":{"ha":926,"x_min":0,"x_max":0,"o":"m 540 514 b 463 533 528 521 504 533 b 318 292 325 533 267 382 m 144 119 b 47 368 103 167 47 249 b 461 749 47 536 189 749 b 706 678 583 749 656 711 l 785 757 l 847 694 l 775 622 b 879 371 843 563 879 485 b 463 -10 879 157 703 -10 b 211 64 354 -10 282 19 l 128 -19 l 67 42 l 144 119 m 376 231 b 467 206 396 217 432 206 b 603 456 561 206 681 319 l 376 231 m 461 1056 l 725 1056 l 475 840 l 344 840 "},"":{"ha":813,"x_min":0,"x_max":0,"o":"m 81 739 l 432 739 b 750 508 696 739 750 622 b 653 318 750 446 722 364 b 742 163 683 296 703 261 b 807 0 767 99 774 79 l 547 0 b 476 210 529 65 493 179 b 403 258 456 249 436 258 l 322 258 l 322 0 l 81 0 m 322 404 l 394 404 b 499 489 460 404 499 438 b 396 572 499 540 460 572 l 322 572 m 360 1056 l 624 1056 l 374 840 l 243 840 "},"":{"ha":813,"x_min":0,"x_max":0,"o":"m 81 739 l 432 739 b 750 508 696 739 750 622 b 653 318 750 446 722 364 b 742 163 683 296 703 261 b 807 0 767 99 774 79 l 547 0 b 476 210 529 65 493 179 b 403 258 456 249 436 258 l 322 258 l 322 0 l 81 0 m 322 404 l 394 404 b 499 489 460 404 499 438 b 396 572 499 540 460 572 l 322 572 m 283 1075 l 407 949 l 529 1075 l 675 1075 l 551 840 l 261 840 l 138 1075 "},"":{"ha":813,"x_min":0,"x_max":0,"o":"m 81 739 l 432 739 b 750 508 696 739 750 622 b 653 318 750 446 722 364 b 742 163 683 296 703 261 b 807 0 767 99 774 79 l 547 0 b 476 210 529 65 493 179 b 403 258 456 249 436 258 l 322 258 l 322 0 l 81 0 m 322 404 l 394 404 b 499 489 460 404 499 438 b 396 572 499 540 460 572 l 322 572 m 240 -235 b 276 -236 253 -236 261 -236 b 382 -192 358 -236 382 -224 b 264 -154 382 -157 324 -154 l 271 -78 l 354 -78 b 603 -210 511 -78 603 -103 b 381 -335 603 -292 513 -335 b 240 -314 332 -335 286 -326 "},"":{"ha":681,"x_min":0,"x_max":0,"o":"m 610 504 b 356 582 557 531 471 582 b 283 526 300 582 283 551 b 451 432 283 490 328 481 b 640 217 615 368 640 285 b 346 -10 640 83 517 -10 b 58 51 246 -10 149 11 l 58 258 b 350 163 213 172 282 163 b 399 200 381 163 399 178 b 240 304 399 226 400 246 b 44 528 68 367 44 463 b 340 749 44 625 122 749 b 610 693 460 749 535 722 m 322 1056 l 586 1056 l 336 840 l 206 840 "},"":{"ha":681,"x_min":0,"x_max":0,"o":"m 610 504 b 356 582 557 531 471 582 b 283 526 300 582 283 551 b 451 432 283 490 328 481 b 640 217 615 368 640 285 b 406 -6 640 99 544 13 l 389 -40 b 504 -157 463 -58 504 -100 b 281 -292 504 -228 443 -292 l 147 -292 l 147 -199 b 282 -144 215 -199 282 -192 b 217 -101 282 -117 264 -104 l 286 -7 b 58 51 207 0 131 19 l 58 258 b 350 163 213 172 282 163 b 399 200 381 163 399 178 b 240 304 399 226 400 246 b 44 528 68 367 44 463 b 340 749 44 625 122 749 b 610 693 460 749 535 722 "},"":{"ha":681,"x_min":0,"x_max":0,"o":"m 610 504 b 356 582 557 531 471 582 b 283 526 300 582 283 551 b 451 432 283 490 328 481 b 640 217 615 368 640 285 b 346 -10 640 83 517 -10 b 58 51 246 -10 149 11 l 58 258 b 350 163 213 172 282 163 b 399 200 381 163 399 178 b 240 304 399 226 400 246 b 44 528 68 367 44 463 b 340 749 44 625 122 749 b 610 693 460 749 535 722 m 451 840 l 329 965 l 206 840 l 60 840 l 183 1075 l 474 1075 l 597 840 "},"":{"ha":681,"x_min":0,"x_max":0,"o":"m 610 504 b 356 582 557 531 471 582 b 283 526 300 582 283 551 b 451 432 283 490 328 481 b 640 217 615 368 640 285 b 346 -10 640 83 517 -10 b 58 51 246 -10 149 11 l 58 258 b 350 163 213 172 282 163 b 399 200 381 163 399 178 b 240 304 399 226 400 246 b 44 528 68 367 44 463 b 340 749 44 625 122 749 b 610 693 460 749 535 722 m 171 -235 b 207 -236 183 -236 192 -236 b 313 -192 289 -236 313 -224 b 194 -154 313 -157 254 -154 l 201 -78 l 285 -78 b 533 -210 442 -78 533 -103 b 311 -335 533 -292 443 -335 b 171 -314 263 -335 217 -326 "},"":{"ha":794,"x_min":0,"x_max":0,"o":"m 761 533 l 518 533 l 518 374 l 738 374 l 738 258 l 518 258 l 518 0 l 276 0 l 276 258 l 57 258 l 57 374 l 276 374 l 276 533 l 33 533 l 33 739 l 761 739 "},"":{"ha":794,"x_min":0,"x_max":0,"o":"m 761 533 l 518 533 l 518 0 l 276 0 l 276 533 l 33 533 l 33 739 l 761 739 m 274 1017 l 397 890 l 519 1017 l 665 1017 l 542 782 l 251 782 l 128 1017 "},"":{"ha":794,"x_min":0,"x_max":0,"o":"m 236 -235 b 272 -236 249 -236 257 -236 b 378 -192 354 -236 378 -224 b 260 -154 378 -157 319 -154 l 267 -78 l 350 -78 b 599 -210 507 -78 599 -103 b 376 -335 599 -292 508 -335 b 236 -314 328 -335 282 -326 m 761 533 l 518 533 l 518 0 l 276 0 l 276 533 l 33 533 l 33 739 l 761 739 "},"":{"ha":897,"x_min":0,"x_max":0,"o":"m 315 739 l 315 368 b 454 206 315 269 365 206 b 582 361 538 206 582 256 l 582 739 l 825 739 l 825 332 b 444 -10 825 79 669 -10 b 72 325 225 -10 72 92 l 72 739 m 313 1075 b 449 979 321 1057 351 979 b 583 1075 549 979 572 1049 l 704 1075 b 447 840 689 960 589 840 b 192 1075 317 840 203 943 "},"":{"ha":897,"x_min":0,"x_max":0,"o":"m 315 739 l 315 368 b 454 206 315 269 365 206 b 582 361 538 206 582 256 l 582 739 l 825 739 l 825 332 b 444 -10 825 79 669 -10 b 72 325 225 -10 72 92 l 72 739 m 621 1056 l 885 1056 l 635 840 l 504 840 m 293 1056 l 557 1056 l 307 840 l 178 840 "},"":{"ha":897,"x_min":0,"x_max":0,"o":"m 315 739 l 315 368 b 454 206 315 269 365 206 b 582 361 538 206 582 256 l 582 739 l 825 739 l 825 332 b 444 -10 825 79 669 -10 b 72 325 225 -10 72 92 l 72 739 m 186 856 l 186 1022 l 710 1022 l 710 856 "},"":{"ha":897,"x_min":0,"x_max":0,"o":"m 315 739 l 315 368 b 454 206 315 269 365 206 b 582 361 538 206 582 256 l 582 739 l 825 739 l 825 332 b 494 -8 825 99 692 4 b 483 -69 488 -26 483 -47 b 564 -136 483 -100 517 -136 b 624 -126 597 -136 604 -133 l 624 -243 b 503 -271 586 -261 550 -271 b 356 -111 421 -271 356 -214 b 381 -7 356 -76 363 -42 b 72 325 196 11 72 115 l 72 739 "},"":{"ha":897,"x_min":0,"x_max":0,"o":"m 315 739 l 315 368 b 454 206 315 269 365 206 b 582 361 538 206 582 256 l 582 739 l 825 739 l 825 332 b 444 -10 825 79 669 -10 b 72 325 225 -10 72 92 l 72 739 m 447 1118 b 588 979 525 1118 588 1057 b 447 839 588 901 525 839 b 308 979 369 839 308 901 b 447 1118 308 1057 369 1118 m 447 1051 b 375 979 407 1051 375 1019 b 447 906 375 939 407 906 b 521 979 488 906 521 939 b 447 1051 521 1019 488 1051 "},"":{"ha":897,"x_min":0,"x_max":0,"o":"m 315 739 l 315 368 b 454 206 315 269 365 206 b 582 361 538 206 582 256 l 582 739 l 825 739 l 825 332 b 444 -10 825 79 669 -10 b 72 325 225 -10 72 92 l 72 739 m 717 1057 b 557 840 717 917 653 840 b 343 899 488 840 388 899 b 288 840 303 899 290 865 l 179 840 b 338 1057 179 997 272 1057 b 456 1028 371 1057 414 1042 b 554 997 496 1013 535 997 b 607 1057 592 997 607 1032 "},"":{"ha":1293,"x_min":0,"x_max":0,"o":"m 879 369 l 1043 739 l 1293 739 l 938 -10 l 836 -10 l 646 424 l 457 -10 l 354 -10 l 0 739 l 249 739 l 413 369 l 576 739 l 715 739 m 672 1056 l 936 1056 l 686 840 l 556 840 "},"":{"ha":1293,"x_min":0,"x_max":0,"o":"m 879 369 l 1043 739 l 1293 739 l 938 -10 l 836 -10 l 646 424 l 457 -10 l 354 -10 l 0 739 l 249 739 l 413 369 l 576 739 l 715 739 m 769 840 l 647 965 l 524 840 l 378 840 l 501 1075 l 792 1075 l 915 840 "},"":{"ha":1293,"x_min":0,"x_max":0,"o":"m 879 369 l 1043 739 l 1293 739 l 938 -10 l 836 -10 l 646 424 l 457 -10 l 354 -10 l 0 739 l 249 739 l 413 369 l 576 739 l 715 739 m 381 933 b 474 1026 381 983 421 1026 b 567 933 526 1026 567 983 b 474 840 567 882 526 840 b 381 933 421 840 381 883 m 726 933 b 819 1026 726 983 765 1026 b 913 933 872 1026 913 983 b 819 840 913 882 872 840 b 726 933 765 840 726 883 "},"":{"ha":1293,"x_min":0,"x_max":0,"o":"m 879 369 l 1043 739 l 1293 739 l 938 -10 l 836 -10 l 646 424 l 457 -10 l 354 -10 l 0 739 l 249 739 l 413 369 l 576 739 l 715 739 m 624 840 l 374 1056 l 638 1056 l 754 840 "},"":{"ha":818,"x_min":0,"x_max":0,"o":"m 261 739 l 408 472 l 557 739 l 818 739 l 531 290 l 531 0 l 289 0 l 289 290 l 0 739 m 532 840 l 410 965 l 286 840 l 140 840 l 264 1075 l 554 1075 l 678 840 "},"":{"ha":818,"x_min":0,"x_max":0,"o":"m 261 739 l 408 472 l 557 739 l 818 739 l 531 290 l 531 0 l 289 0 l 289 290 l 0 739 m 400 840 l 150 1056 l 414 1056 l 531 840 "},"":{"ha":776,"x_min":0,"x_max":0,"o":"m 19 0 l 369 539 l 43 539 l 43 739 l 740 739 l 396 200 l 751 200 l 751 0 m 369 1056 l 633 1056 l 383 840 l 253 840 "},"":{"ha":776,"x_min":0,"x_max":0,"o":"m 19 0 l 369 539 l 43 539 l 43 739 l 740 739 l 396 200 l 751 200 l 751 0 m 294 933 b 388 1026 294 983 335 1026 b 481 933 440 1026 481 983 b 388 840 481 882 440 840 b 294 933 335 840 294 883 "},"":{"ha":403,"x_min":0,"x_max":0,"o":"m 322 0 l 81 0 l 81 739 l 322 739 m 108 933 b 201 1026 108 983 149 1026 b 294 933 254 1026 294 983 b 201 840 294 882 254 840 b 108 933 149 840 108 883 "},"":{"ha":825,"x_min":0,"x_max":0,"o":"m 565 953 l 565 0 l 308 0 l 308 613 b 172 551 256 576 217 563 l 172 744 b 379 953 260 790 319 836 "},"":{"ha":825,"x_min":0,"x_max":0,"o":"m 322 0 l 81 0 l 81 739 l 322 739 m 503 739 l 744 739 l 744 111 b 465 -246 744 -76 704 -246 b 368 -236 426 -246 401 -242 l 342 -46 l 383 -46 b 503 129 506 -46 503 -7 "},"Ə":{"ha":1182,"x_min":0,"x_max":0,"o":"m 538 735 b 219 660 386 735 275 694 l 219 869 b 590 953 343 933 467 953 b 1124 471 949 953 1124 725 b 590 -12 1124 213 946 -12 b 57 471 222 -12 57 228 b 72 594 57 513 63 554 l 796 594 b 538 735 744 675 644 735 m 590 229 b 815 367 704 229 782 283 l 364 367 b 590 229 397 282 478 229 "},"ə":{"ha":828,"x_min":0,"x_max":0,"o":"m 49 404 l 549 404 b 353 547 531 490 446 547 b 150 478 274 547 222 522 l 150 629 b 404 703 185 654 264 703 b 786 342 668 703 786 542 b 390 -12 786 142 654 -12 b 49 356 236 -12 49 78 m 278 283 b 413 138 278 196 331 138 b 556 283 492 138 556 196 "}}}
